<svg xmlns="http://www.w3.org/2000/svg" viewBox="0 0 750 500"><g id="freepik--background-complete--inject-224"><polygon points="533.92 113.45 541.91 144.6 503.5 154.74 495.5 123.59 533.92 113.45" style="fill:#f5f5f5"></polygon><path d="M533.92,113.45l-.19.06-.53.15-2.09.56-7.86,2.1-27.72,7.38.07-.13c2.39,9.27,5.12,19.9,8,31.14h0l-.14-.09,38.42-10.12-.07.12c-2.39-9.39-4.37-17.17-5.75-22.61l-1.6-6.32c-.18-.72-.32-1.28-.41-1.67s-.14-.58-.14-.58l.15.56c.1.38.25.93.43,1.64.38,1.46.94,3.58,1.64,6.29,1.41,5.45,3.43,13.24,5.86,22.64l0,.09-.09,0-38.41,10.16-.12,0,0-.12h0c-2.88-11.25-5.6-21.88-8-31.15l0-.1.1,0,27.81-7.29,7.85-2,2.07-.53.53-.14Z" style="fill:#e0e0e0"></path><polygon points="504.32 152.43 540.03 143 533.05 115.78 497.33 125.21 504.32 152.43" style="fill:#ebebeb"></polygon><polygon points="504.32 152.43 512.45 132.22 522.89 140.76 526.68 133.72 540.03 143 504.32 152.43" style="fill:#e0e0e0"></polygon><path d="M522.93,127.24a3,3,0,0,1-2.09,3.59,2.9,2.9,0,0,1-3.54-2.11,3,3,0,0,1,2.08-3.59A2.91,2.91,0,0,1,522.93,127.24Z" style="fill:#e0e0e0"></path><polygon points="574.43 86.51 577.81 135.03 517.98 139.31 514.6 90.79 574.43 86.51" style="fill:#f5f5f5"></polygon><path d="M574.44,86.51l-.29,0-.84.07-3.25.25-12.25.92L514.61,91l.15-.17c1,14.44,2.16,31,3.39,48.51h0l-.19-.17,59.84-4.25-.14.16c-1-14.61-1.8-26.72-2.37-35.19-.28-4.24-.49-7.56-.64-9.84-.08-1.13-.13-2-.17-2.6s0-.9,0-.9,0,.29.07.87.11,1.45.2,2.57c.16,2.26.41,5.58.71,9.8.61,8.49,1.48,20.63,2.53,35.27v.15h-.14L518,139.48l-.18,0v-.18h0c-1.21-17.51-2.35-34.07-3.35-48.51v-.16h.15l43.31-3,12.22-.83,3.22-.22.82,0Z" style="fill:#e0e0e0"></path><polygon points="519.83 136.11 575.45 132.13 572.51 89.72 516.88 93.7 519.83 136.11" style="fill:#ebebeb"></polygon><polygon points="519.83 136.11 537.42 108.36 550.61 123.99 558.15 114.59 575.45 132.13 519.83 136.11" style="fill:#e0e0e0"></polygon><path d="M554.34,103.9a4.39,4.39,0,1,1-4.69-4.13A4.44,4.44,0,0,1,554.34,103.9Z" style="fill:#e0e0e0"></path><path d="M265,127.79c1.62-5.17-.85-14.68-5.11-18a13.78,13.78,0,0,0-15.24-.89c0-11.29-9.27-21.85-20.47-23.3S201.31,92,198.43,102.9a18.71,18.71,0,0,0-23.37,24.89Z" style="fill:#ebebeb"></path><polygon points="225.32 108.05 221.41 103.8 217.49 99.56 213.58 103.8 209.66 108.05 214.05 108.05 214.05 120.7 220.93 120.7 220.93 108.05 225.32 108.05" style="fill:#fff"></polygon><path d="M225.32,108s-.35,0-1.09,0-1.85.07-3.3.09l.13-.13c0,3,.06,7.41.1,12.65v.23h-.23l-6.88,0h-.25v-.25c0-2.56,0-5.29,0-8.1,0-1.55,0-3.07,0-4.55l.25.25h-5l.39-.41,7.87-8.45.14-.16.15.16c2.38,2.62,4.33,4.75,5.68,6.3l1.51,1.74c.34.39.51.58.49.57s-.22-.22-.6-.6l-1.62-1.66c-1.36-1.38-3.32-3.49-5.75-6.08h.29l-7.79,8.51-.19-.42h4.65V120.7l-.26-.25,6.88,0-.23.23c0-5.24.08-9.61.1-12.65v-.14h.13c1.36,0,2.44.07,3.2.09l.87,0Z" style="fill:#e0e0e0"></path><rect x="365.03" y="119.27" width="83.25" height="66.09" transform="translate(-15.48 50.5) rotate(-6.97)" style="fill:#fff"></rect><rect x="362.07" y="119.45" width="83.25" height="17.3" transform="translate(-12.57 49.96) rotate(-6.97)" style="fill:#ebebeb"></rect><path d="M380.6,154.56a7.06,7.06,0,0,1-.16-.89c-.09-.63-.21-1.43-.35-2.42-.3-2.07-.71-5-1.16-8.48l.26.2-11.82,1.48.23-.29h0v.18l0,.2.05.41.1.8c.06.53.12,1.06.19,1.58.12,1,.24,2.06.36,3.05.24,2,.46,3.86.66,5.58l-.25-.2c3.5-.4,6.43-.71,8.51-.92l2.43-.24c.57-.05.88-.07.9-.06a3.65,3.65,0,0,1-.79.15l-2.37.35c-2.06.29-5,.71-8.63,1.17l-.22,0,0-.22c-.22-1.73-.45-3.6-.7-5.58-.13-1-.26-2-.39-3.05-.06-.52-.12-1-.19-1.58l-.1-.8-.05-.4,0-.21,0-.1v-.09h0c-.2.25.28-.36.23-.3l11.82-1.41.23,0,0,.22c.42,3.59.73,6.58.94,8.65.1,1,.18,1.76.24,2.38A5,5,0,0,1,380.6,154.56Z" style="fill:#e0e0e0"></path><path d="M396.07,152.67a7.06,7.06,0,0,1-.16-.89c-.09-.63-.21-1.43-.35-2.42-.3-2.07-.71-5-1.16-8.48l.25.2-11.81,1.48.23-.29h0v.18l0,.2.05.4.09.81c.07.53.13,1.05.2,1.58.12,1,.24,2.06.36,3,.24,2,.46,3.85.66,5.58l-.25-.2c3.5-.4,6.43-.71,8.51-.92l2.43-.24c.57,0,.88-.07.9-.06a3.67,3.67,0,0,1-.8.15l-2.36.35c-2.06.29-5,.71-8.63,1.17l-.22,0,0-.23c-.22-1.72-.46-3.59-.71-5.57-.12-1-.25-2-.38-3-.06-.52-.13-1.05-.19-1.58l-.1-.8,0-.41,0-.2,0-.1v-.09h0l.23-.29,11.82-1.41.22,0,0,.23c.42,3.59.73,6.58.94,8.65.1,1,.17,1.76.23,2.38A4.54,4.54,0,0,1,396.07,152.67Z" style="fill:#e0e0e0"></path><path d="M411.54,150.78a8.15,8.15,0,0,1-.16-.89c-.09-.63-.21-1.44-.36-2.42-.29-2.07-.7-5-1.15-8.48l.25.2-11.81,1.48.23-.29h0v.18l0,.2,0,.4.1.8c.07.54.13,1.06.19,1.58.13,1.05.25,2.07.37,3.06.23,2,.45,3.85.66,5.58l-.25-.2c3.49-.4,6.42-.71,8.5-.92l2.44-.24a6.44,6.44,0,0,1,.9-.06,6.56,6.56,0,0,1-.8.15l-2.37.35c-2.05.29-5,.71-8.62,1.17l-.22,0,0-.23c-.22-1.72-.46-3.59-.71-5.57-.12-1-.25-2-.38-3.05-.06-.52-.13-1-.19-1.58l-.1-.8-.05-.41,0-.2v-.18h0l.23-.29,11.82-1.41.22,0,0,.23c.42,3.59.73,6.58.94,8.65.09,1,.17,1.76.23,2.38A4.52,4.52,0,0,1,411.54,150.78Z" style="fill:#e0e0e0"></path><path d="M427,148.89a6,6,0,0,1-.16-.89c-.1-.63-.21-1.44-.36-2.42-.29-2.07-.7-5-1.15-8.48l.25.19-11.81,1.48.22-.28h0v.18l0,.2.05.4.1.8c.07.53.13,1.06.19,1.58.13,1,.25,2.06.37,3.06l.65,5.57-.25-.19c3.5-.41,6.43-.71,8.51-.93l2.44-.23a5,5,0,0,1,.9-.06,6.56,6.56,0,0,1-.8.15l-2.37.35c-2,.29-5,.7-8.62,1.17l-.22,0,0-.22c-.22-1.72-.46-3.59-.71-5.57-.12-1-.25-2-.38-3l-.2-1.58-.09-.81,0-.4,0-.2v-.18h0c-.21.26.27-.36.23-.29l11.82-1.41.22,0,0,.22c.41,3.6.73,6.59.94,8.65.09,1,.17,1.77.23,2.39A4.52,4.52,0,0,1,427,148.89Z" style="fill:#e0e0e0"></path><path d="M442.48,147a6,6,0,0,1-.16-.89c-.1-.63-.22-1.44-.36-2.42-.3-2.07-.7-5-1.15-8.48l.25.19-11.81,1.48c-.05.06.43-.55.22-.29h0v.19l0,.21.05.4.1.8c.06.53.13,1.06.19,1.58.13,1,.25,2.06.37,3.06l.65,5.57-.25-.19c3.5-.41,6.43-.72,8.51-.93l2.43-.24a5.54,5.54,0,0,1,.91-.05,5.82,5.82,0,0,1-.8.14l-2.37.35c-2.05.3-5,.71-8.62,1.17l-.23,0,0-.22q-.33-2.59-.71-5.57c-.13-1-.25-2-.38-3.06-.07-.52-.13-1-.2-1.58l-.1-.8,0-.4,0-.2v-.18h0c-.21.26.27-.36.22-.29L441,135l.23,0,0,.22c.42,3.6.74,6.59.95,8.65.09,1,.17,1.76.23,2.39A4.52,4.52,0,0,1,442.48,147Z" style="fill:#e0e0e0"></path><path d="M382.46,169.76a8.15,8.15,0,0,1-.16-.89c-.09-.63-.21-1.44-.35-2.42-.3-2.07-.71-5-1.16-8.48l.25.2-11.81,1.48.23-.29h0v.18l0,.2.05.4.09.8c.07.54.13,1.06.2,1.58q.18,1.58.36,3.06c.24,2,.46,3.85.66,5.58l-.25-.2c3.5-.41,6.43-.71,8.51-.92l2.43-.24a6.44,6.44,0,0,1,.9-.06,6.56,6.56,0,0,1-.8.15l-2.36.35c-2.06.29-5,.71-8.63,1.17l-.22,0,0-.23c-.22-1.72-.45-3.59-.71-5.57-.12-1-.25-2-.38-3-.06-.52-.13-1.05-.19-1.58l-.1-.8-.05-.41,0-.2,0-.1v-.08h0l.23-.29L381,157.72l.22,0,0,.22c.42,3.6.73,6.59.94,8.66.1,1,.17,1.76.23,2.38A4.52,4.52,0,0,1,382.46,169.76Z" style="fill:#e0e0e0"></path><path d="M397.93,167.87a8.15,8.15,0,0,1-.16-.89c-.09-.63-.21-1.44-.36-2.42-.29-2.07-.7-5-1.15-8.48l.25.19-11.81,1.48c-.05.07.43-.54.23-.28h0v.18l0,.2,0,.4.09.8c.07.53.13,1.06.19,1.58.13,1,.25,2.06.37,3.06.23,2,.45,3.85.66,5.57l-.25-.19c3.49-.41,6.42-.71,8.51-.93l2.43-.23a5,5,0,0,1,.9-.06,6.56,6.56,0,0,1-.8.15l-2.37.35c-2.05.29-5,.7-8.62,1.17l-.22,0,0-.22c-.22-1.72-.46-3.59-.71-5.57-.12-1-.25-2-.38-3.06-.06-.52-.13-1-.19-1.57l-.1-.81-.05-.4,0-.2v-.18h0l.23-.29,11.82-1.41.22,0,0,.22c.42,3.6.73,6.59.94,8.65.1,1,.17,1.77.23,2.39A4.52,4.52,0,0,1,397.93,167.87Z" style="fill:#e0e0e0"></path><path d="M413.4,166a5.34,5.34,0,0,1-.16-.88l-.36-2.42c-.29-2.07-.7-5-1.15-8.48l.25.19-11.81,1.48.23-.29h0v.19l0,.21.05.4.1.8c.07.53.13,1.06.19,1.58.13,1,.25,2.06.37,3.06.23,2,.45,3.85.66,5.57l-.26-.19c3.5-.41,6.43-.72,8.51-.93l2.44-.24c.57-.05.88-.07.9-.06a3.67,3.67,0,0,1-.8.15l-2.37.35c-2.05.3-5,.71-8.62,1.17l-.22,0,0-.22-.71-5.57c-.12-1-.25-2-.38-3.06-.06-.52-.13-1-.19-1.58l-.1-.8-.05-.4,0-.2v-.18h0l.23-.3,11.82-1.41.22,0,0,.22c.41,3.6.73,6.59.94,8.65.09,1,.17,1.76.23,2.38A4.56,4.56,0,0,1,413.4,166Z" style="fill:#e0e0e0"></path><path d="M428.87,164.08a5.34,5.34,0,0,1-.16-.89c-.1-.63-.21-1.43-.36-2.42-.29-2.07-.7-5-1.15-8.48l.25.2L415.64,154c-.05.06.43-.55.22-.29h0v.18l0,.2,0,.41.1.8c.06.53.13,1.06.19,1.58.13,1,.25,2.06.37,3l.65,5.58-.25-.2c3.5-.4,6.43-.71,8.51-.92l2.43-.24c.57,0,.89-.07.91-.06a3.67,3.67,0,0,1-.8.15l-2.37.35c-2.05.3-5,.71-8.62,1.17l-.23,0,0-.22c-.22-1.73-.46-3.6-.71-5.58-.12-1-.25-2-.38-3l-.2-1.58-.1-.8,0-.4,0-.21v-.19h0c-.21.25.27-.36.22-.3L427.39,152l.23,0,0,.22c.42,3.59.74,6.58.95,8.65.09,1,.17,1.76.23,2.38A4.56,4.56,0,0,1,428.87,164.08Z" style="fill:#e0e0e0"></path><path d="M444.33,162.19s-.07-.32-.16-.89-.21-1.43-.35-2.42c-.3-2.07-.7-5-1.15-8.48l.25.2-11.81,1.48a3.54,3.54,0,0,1,.22-.29h0v.08l0,.1,0,.2.05.41.1.8c.06.53.13,1,.19,1.58.12,1,.25,2.06.37,3.05.23,2,.45,3.85.65,5.58l-.25-.2c3.5-.4,6.43-.71,8.51-.92l2.43-.24c.57-.05.89-.07.9-.06a3.45,3.45,0,0,1-.79.15l-2.37.35c-2.06.29-5,.71-8.62,1.17l-.23,0,0-.23c-.21-1.72-.45-3.59-.7-5.57-.13-1-.25-2-.38-3.05-.07-.52-.13-1-.2-1.58l-.1-.8-.05-.4,0-.21v-.19h0l.23-.29,11.82-1.41.23,0,0,.23c.42,3.59.74,6.58.95,8.65.09,1,.17,1.76.23,2.38A3.79,3.79,0,0,1,444.33,162.19Z" style="fill:#e0e0e0"></path><rect x="371.61" y="172.8" width="11.9" height="11.9" transform="translate(-18.91 47.16) rotate(-6.97)" style="fill:#e0e0e0"></rect><path d="M399.66,182.05s-.07-.33-.16-.89-.21-1.44-.35-2.42c-.3-2.07-.7-5-1.15-8.48l.25.2-11.81,1.48a3.54,3.54,0,0,1,.22-.29h0v.08l0,.1,0,.2.05.4.1.8c.06.54.13,1.06.19,1.58.12,1,.25,2.07.37,3.06.23,2,.45,3.85.65,5.58l-.25-.2c3.5-.41,6.43-.71,8.51-.93l2.43-.23a6.5,6.5,0,0,1,.9-.06,6,6,0,0,1-.79.15l-2.37.35c-2.06.29-5,.71-8.62,1.17l-.23,0,0-.23c-.21-1.72-.45-3.59-.7-5.57-.13-1-.25-2-.38-3-.07-.52-.13-1.05-.2-1.58l-.1-.8-.05-.41,0-.2v-.18h0l.23-.29L398.19,170l.23,0,0,.22c.42,3.6.74,6.59.95,8.66.09,1,.17,1.76.23,2.38A3.8,3.8,0,0,1,399.66,182.05Z" style="fill:#e0e0e0"></path><path d="M415.13,180.16a8.15,8.15,0,0,1-.16-.89c-.09-.63-.21-1.44-.35-2.42-.3-2.07-.71-5-1.16-8.48l.25.19L401.9,170c0,.07.43-.54.23-.28h0V170l0,.21.05.4.1.8c.06.53.12,1.06.19,1.58q.18,1.56.36,3.06c.24,2,.46,3.85.66,5.57l-.25-.19c3.5-.41,6.43-.71,8.51-.93l2.43-.24a5.43,5.43,0,0,1,.9-.05,6.58,6.58,0,0,1-.79.15l-2.37.34c-2.06.3-5,.71-8.63,1.18l-.22,0,0-.22c-.22-1.72-.45-3.59-.7-5.57q-.19-1.49-.39-3.06c-.06-.52-.12-1-.19-1.58l-.1-.8,0-.4,0-.2,0-.1v-.08h0l.23-.29,11.82-1.41.23,0,0,.22c.42,3.6.73,6.59.94,8.65.1,1,.18,1.77.24,2.39A5,5,0,0,1,415.13,180.16Z" style="fill:#e0e0e0"></path><path d="M430.6,178.26a7.06,7.06,0,0,1-.16-.89c-.09-.63-.21-1.43-.35-2.41-.3-2.07-.71-5-1.16-8.48l.25.19-11.81,1.48.23-.29h0v.19l0,.21.05.4.09.8c.07.53.13,1.06.2,1.58q.18,1.56.36,3.06c.23,2,.46,3.85.66,5.57l-.25-.19c3.49-.41,6.43-.72,8.51-.93l2.43-.24c.57,0,.88-.07.9-.06a3.67,3.67,0,0,1-.8.15l-2.36.35c-2.06.3-5,.71-8.63,1.17l-.22,0,0-.22-.71-5.57c-.12-1-.25-2-.38-3.06l-.19-1.58-.1-.8-.05-.4,0-.2,0-.11V168h0c-.2.25.28-.36.23-.3l11.82-1.41.22,0,0,.22c.42,3.6.73,6.59.94,8.65.1,1,.17,1.76.23,2.38A4.56,4.56,0,0,1,430.6,178.26Z" style="fill:#e0e0e0"></path><path d="M446.07,176.37a7.06,7.06,0,0,1-.16-.89c-.09-.63-.21-1.43-.36-2.42-.29-2.07-.7-5-1.15-8.48l.25.2-11.81,1.48.23-.29h0v.18l0,.2,0,.41.1.8c.07.53.13,1.06.19,1.58.13,1,.25,2.06.37,3.05.23,2,.45,3.86.66,5.58l-.25-.2c3.49-.4,6.42-.71,8.5-.92l2.44-.24c.57-.05.88-.07.9-.06a3.67,3.67,0,0,1-.8.15l-2.37.35c-2,.29-5,.71-8.62,1.17l-.22,0,0-.22c-.22-1.73-.46-3.6-.71-5.58-.12-1-.25-2-.38-3.05l-.19-1.58-.1-.8,0-.4,0-.21V166h0l.23-.29,11.82-1.41.22,0,0,.22c.42,3.59.73,6.58.94,8.65.09,1,.17,1.76.23,2.38A4.56,4.56,0,0,1,446.07,176.37Z" style="fill:#e0e0e0"></path><rect x="376.69" y="117.02" width="3.68" height="10.92" rx="1.47" transform="translate(-12.07 46.85) rotate(-6.97)" style="fill:#e0e0e0"></rect><rect x="400.44" y="114.12" width="3.68" height="10.92" rx="1.47" transform="translate(-11.54 49.72) rotate(-6.97)" style="fill:#e0e0e0"></rect><rect x="424.18" y="111.21" width="3.68" height="10.92" rx="1.47" transform="translate(-11.02 52.64) rotate(-6.98)" style="fill:#e0e0e0"></rect><path d="M452.13,181.24s-.07-.43-.18-1.24-.26-2-.46-3.57c-.4-3.13-1-7.7-1.71-13.53-1.46-11.66-3.53-28.32-6-48.41l.25.19-82.63,10.15h0l.22-.29c2.94,24.13,5.72,46.93,8.14,66.78l-.26-.2,59.69-7.19,16.92-2,4.49-.53,1.16-.12.41,0-.38.06-1.13.15-4.44.57-16.85,2.13-59.81,7.43-.23,0,0-.24c-2.44-19.84-5.23-42.64-8.19-66.77l0-.25.26,0h0l82.63-10.06.22,0,0,.22c2.42,20.16,4.43,36.87,5.83,48.57.69,5.81,1.23,10.37,1.6,13.5.17,1.54.31,2.72.4,3.53S452.13,181.24,452.13,181.24Z" style="fill:#e0e0e0"></path><rect x="223.24" y="219.06" width="21.51" height="31.91" transform="translate(-25.64 441.36) rotate(-83.6)" style="fill:#ebebeb"></rect><path d="M251.12,226.38l-.33.25-1,.67-3.6,2.44-12,8-.1.07-.08-.08-.21-.21L223.6,227.16,220.51,224l-.83-.86a1.83,1.83,0,0,1-.27-.32l.31.27.87.83c.77.76,1.84,1.81,3.16,3.09,2.66,2.65,6.3,6.28,10.33,10.28l.2.2-.18,0,12-7.9,3.65-2.36,1-.63A1.79,1.79,0,0,1,251.12,226.38Z" style="fill:#e0e0e0"></path><path d="M217,244.19c-.06-.05,2.66-2.72,6.06-5.94s6.2-5.8,6.26-5.74-2.66,2.72-6.06,6S217.06,244.25,217,244.19Z" style="fill:#e0e0e0"></path><path d="M239.9,233.43c.07-.05,2.1,3.13,4.53,7.08s4.36,7.2,4.29,7.24-2.1-3.13-4.53-7.09S239.83,233.47,239.9,233.43Z" style="fill:#e0e0e0"></path><path d="M551.8,208.5c1.56,1,3.77-.07,4.59-1.72a7.82,7.82,0,0,0,.11-5.4,22.86,22.86,0,0,1-1.16-5.39,7.85,7.85,0,0,1,5.65-7.42A7.33,7.33,0,0,1,561,178c1.4-1.23,3.23-1.84,4.84-2.77a16.9,16.9,0,0,0,2.58-1.89,10.07,10.07,0,0,1-4.27-.09,6.91,6.91,0,0,1-4.77-4.63,6.25,6.25,0,0,1,1.84-6.32,5.72,5.72,0,0,1,6.48-.62c2,1.16,3,3.42,3.83,5.53l.82,2c3-3.62,5.9-7.37,10.35-8.46,4-1,8.23.56,12.38.47,3-.06,6-1,9-1.17s6.4.64,8,3.18c1,1.49,1.2,3.36,2.18,4.84,2,3.06,6.69,3.7,8.31,7,1.32,2.68,0,5.9.51,8.84.52,3.2,3,5.65,5,8.19s3.7,6,2.34,8.92c-1.19,2.6-4.35,3.86-5.49,6.47-.83,1.91-.41,4.1-.48,6.17s-1,4.5-3.08,4.87l-23.34,4.9c-8.1,2.82-16.46,5.67-25,5.22s-17.49-5-20.47-13.08a4.91,4.91,0,0,0,3.39-1.31A8.23,8.23,0,0,1,551.8,208.5Z" style="fill:#e0e0e0"></path><path d="M570.31,216.7a107.34,107.34,0,0,1-3.73-18c-.55-6.12,0-12.45,2.4-18.1.37-.86,3.44-6.57,4.36-6.43.66.1-1.33,5.47-1,6.06,2.91,5.66,3.44,12.3,2.6,18.61a82.87,82.87,0,0,1-4.61,17.91" style="fill:#e0e0e0"></path><path d="M595.12,268.49c-9.52-.69-26.84-27.14-26.84-27.14l2.63-48.12c.29-15.42,9.51-28.11,24.93-27.39l1.42.15a27.58,27.58,0,0,1,24.68,28.1c-.33,13.37-.86,28.14-1.7,35.24-1.73,14.7-16.7,15.44-16.7,15.44s-.26,3.42-.53,7.76c-.6,9.74-2.35,16.49-6.15,16Z" style="fill:#f5f5f5"></path><path d="M603.54,244.77A35.7,35.7,0,0,1,585,237.08s3.54,11.2,18.38,11.43Z" style="fill:#e0e0e0"></path><path d="M615,205.35a2.11,2.11,0,0,1-2.25,1.91,2,2,0,0,1-2-2.13,2.11,2.11,0,0,1,2.24-1.91A2,2,0,0,1,615,205.35Z" style="fill:#e0e0e0"></path><path d="M618.15,199.87c-.29.25-1.76-1.1-4-1.33s-4,.72-4.26.42c-.1-.14.21-.6,1-1.05a5.85,5.85,0,0,1,3.45-.68,5.64,5.64,0,0,1,3.16,1.4C618.11,199.24,618.29,199.76,618.15,199.87Z" style="fill:#e0e0e0"></path><path d="M594.56,203.75a2.1,2.1,0,0,1-2.25,1.91,2,2,0,0,1-2-2.12,2.1,2.1,0,0,1,2.24-1.91A2,2,0,0,1,594.56,203.75Z" style="fill:#e0e0e0"></path><path d="M595.89,198.45c-.29.25-1.76-1.1-4-1.33s-4,.72-4.26.42c-.1-.14.21-.6,1-1a5.85,5.85,0,0,1,3.45-.68,5.61,5.61,0,0,1,3.16,1.4C595.85,197.82,596,198.34,595.89,198.45Z" style="fill:#e0e0e0"></path><path d="M602.18,216.69a15.34,15.34,0,0,1,3.74-.28c.59,0,1.14,0,1.28-.44a2.93,2.93,0,0,0-.2-1.75c-.4-1.45-.81-3-1.25-4.58-1.71-6.51-2.88-11.84-2.62-11.91s1.86,5.16,3.58,11.67c.4,1.61.79,3.14,1.17,4.6a3.46,3.46,0,0,1,.06,2.3,1.44,1.44,0,0,1-1,.74,3.86,3.86,0,0,1-1,0A14.72,14.72,0,0,1,602.18,216.69Z" style="fill:#e0e0e0"></path><path d="M595.35,217.55c.37,0,.12,2.48,2,4.44s4.56,2,4.54,2.32c0,.15-.63.41-1.74.33a6.2,6.2,0,0,1-3.81-1.8,5.36,5.36,0,0,1-1.55-3.7C594.85,218.1,595.19,217.52,595.35,217.55Z" style="fill:#e0e0e0"></path><path d="M596.74,189.26c-.29.59-2.52.06-5.21.1s-4.91.54-5.2-.05c-.13-.28.3-.82,1.23-1.33a9.09,9.09,0,0,1,7.93,0C596.42,188.44,596.86,189,596.74,189.26Z" style="fill:#e0e0e0"></path><path d="M618,192.25c-.45.47-2-.22-3.83-.45s-3.49,0-3.8-.59c-.14-.28.17-.77.91-1.18a5.41,5.41,0,0,1,3.21-.52,5.29,5.29,0,0,1,2.94,1.36C618.05,191.47,618.21,192,618,192.25Z" style="fill:#e0e0e0"></path><path d="M571,204.26c-.24-.13-9.8-4.06-10.54,6s9.55,8.76,9.59,8.47S571,204.26,571,204.26Z" style="fill:#f5f5f5"></path><path d="M567.21,214.72s-.19.11-.49.22a1.75,1.75,0,0,1-1.32-.06c-1-.47-1.81-2.23-1.73-4.06a5.77,5.77,0,0,1,.68-2.48,2,2,0,0,1,1.42-1.25.89.89,0,0,1,1,.55c.12.3,0,.49.09.51s.23-.15.18-.57a1.13,1.13,0,0,0-.35-.66,1.29,1.29,0,0,0-1-.33,2.47,2.47,0,0,0-2,1.43,5.91,5.91,0,0,0-.81,2.77c-.09,2,.81,4,2.24,4.55a1.9,1.9,0,0,0,1.63-.15C567.17,215,567.24,214.74,567.21,214.72Z" style="fill:#e0e0e0"></path><path d="M616.48,176.93c1.7-.8-2.87-6.41-6.77-8.49-5.9-3.15-15.07-5.44-20.77-4.21-6.87,1.47-12.68,4.47-16.46,10.39a39.79,39.79,0,0,0-5.77,20,12,12,0,0,0,1,6.27c1.26,2.33,3.88,3.91,3.56,7a4.3,4.3,0,0,0,.85,3.15c1.73,2.09,4.11.39,5.27-1.4,2.47-3.81,3-8.52,3.51-13.05.35-3.21.69-6.49,0-9.65-.39-1.71-1.08-3.36-1.37-5.09a6.1,6.1,0,0,1,1-5,6.87,6.87,0,0,1,.88-.78A10.56,10.56,0,0,1,592,174.74c5.56,2.38,15.09,6,17.75,4.24,3.83-2.54,4.82-4.3,4.82-4.3Z" style="fill:#e0e0e0"></path><path d="M589.56,162.89a22.24,22.24,0,0,1,17,2c2.66,1.61,5,4.06,5.66,7.11s-.87,6.64-3.82,7.63l-.21.11c-4.4,1.17-7.17.42-11.37-1.35-3.54-1.48-6.61-3.92-10.15-5.39a20.54,20.54,0,0,0-12-1.12A33.56,33.56,0,0,1,589.56,162.89Z" style="fill:#e0e0e0"></path><path d="M626.19,285.18s10.62,6.78,13.41,19c2.19,9.63,5,35.51,5,35.51l10.51,19.53-6.86,15.57h0a26,26,0,0,1-16.5-4.49l-4.63-3.2-8.47-12Z" style="fill:#f5f5f5"></path><path d="M568.28,241.35,531.41,261l5.43,101.8-7,53.88,99.64.85s.19-74.07-.17-94.06c-.26-14,.12-41.17-4.63-57.87-2-7.12-21.45-16.23-21.45-16.23C595.12,259.43,581.57,255.47,568.28,241.35Z" style="fill:#ebebeb"></path><path d="M620.45,260s12.8,8.43,16.24,17.73c3.6,9.75,8.65,41.34,8.65,41.34H627.4Z" style="fill:#ebebeb"></path><path d="M628.68,282.11a3.32,3.32,0,0,1,.05.53c0,.41,0,.91,0,1.52,0,1.39.07,3.28.12,5.57.09,4.78.22,11.25.36,18.4s.22,13.7.22,18.41c0,2.35,0,4.26-.05,5.58,0,.61,0,1.11,0,1.51a1.69,1.69,0,0,1,0,.53,3.13,3.13,0,0,1-.05-.53c0-.4,0-.9,0-1.51,0-1.4-.07-3.28-.12-5.58-.1-4.78-.22-11.25-.37-18.4s-.22-13.69-.21-18.4c0-2.36,0-4.26.05-5.58,0-.61,0-1.11,0-1.52A1.93,1.93,0,0,1,628.68,282.11Z" style="fill:#e0e0e0"></path><polygon points="704.45 338.1 636.53 363.25 579.28 372.01 647.35 338.82 704.45 338.1" style="fill:#e0e0e0"></polygon><path d="M675.38,365.22A29.09,29.09,0,0,1,679,354.93a7.81,7.81,0,0,0,.93-1.93,2.23,2.23,0,0,0-.39-2c-.87-1-2.46-.52-3.53.19a12.47,12.47,0,0,0-4.58,6.41,37.16,37.16,0,0,0-1.49,7.85" style="fill:#f5f5f5"></path><path d="M648.91,358.76h3.38a6.53,6.53,0,0,1,3-1.7,2.34,2.34,0,0,1,2.23.86c-1.51-2.48-3.13-5.22-3.45-6-.6-1.46.73-2.55,2.92-2.55S668.74,363,668.74,363s-6-10.95-6.54-12.62c-1.45-4.18,3.12-4.5,4.78-2.48,2.06,2.51,10.39,15.1,10.39,15.1a5.88,5.88,0,0,1,.49,5c-1.09,2.43-4.25,1.45-4.25,1.45a4.09,4.09,0,0,1-2.23,3.38c-2.44,1.36-5.65-.21-5.65-.21l-12.42,2.79-4.5-.45a13.79,13.79,0,0,1-12.28-11.71h0Z" style="fill:#f5f5f5"></path><path d="M657.28,357.74a42.55,42.55,0,0,0,3.66,5.8c1.08,1.56,2.07,3,2.81,4a10.41,10.41,0,0,0,1.25,1.57,9.64,9.64,0,0,0-1-1.73c-.68-1-1.63-2.46-2.71-4s-2-3-2.78-4c-.31-.44-.6-.83-.86-1.19S657.31,357.74,657.28,357.74Z" style="fill:#e0e0e0"></path><path d="M658,371.6a11.65,11.65,0,0,0-1.1-2c-.74-1.22-1.79-2.89-2.93-4.74-.58-.92-1.13-1.8-1.58-2.62a3,3,0,0,1-.27-2.3,5.78,5.78,0,0,1,1.06-2s-.21.1-.48.4a3.92,3.92,0,0,0-.85,1.51,3.25,3.25,0,0,0,.22,2.54c.45.85,1,1.73,1.56,2.66,1.16,1.85,2.24,3.49,3,4.68A17.23,17.23,0,0,0,658,371.6Z" style="fill:#e0e0e0"></path><path d="M651.49,372.83a6.53,6.53,0,0,0-.66-1.94l-.88-2a15.39,15.39,0,0,1-.92-2.51,2.92,2.92,0,0,1,.4-2.43,2.41,2.41,0,0,1,.88-.63,2.57,2.57,0,0,1,.93-.26,3.79,3.79,0,0,1,1.34.47,1.53,1.53,0,0,0,.51.21s-.14-.14-.44-.34a5.52,5.52,0,0,0-.55-.34,2.13,2.13,0,0,0-.86-.27,2.59,2.59,0,0,0-1.06.24,2.49,2.49,0,0,0-1,.7,3.19,3.19,0,0,0-.49,2.74,14.81,14.81,0,0,0,1,2.57c.35.76.69,1.42,1,2C651.15,372.13,651.44,372.85,651.49,372.83Z" style="fill:#e0e0e0"></path><path d="M649.21,361.08s-.2,0-.53.16a6,6,0,0,0-1.3.76,7.09,7.09,0,0,0-2,9,6,6,0,0,0,.85,1.25c.24.26.39.38.41.37s-.5-.61-1-1.74a7.2,7.2,0,0,1,1.93-8.67C648.5,361.42,649.24,361.14,649.21,361.08Z" style="fill:#e0e0e0"></path><path d="M671.08,353.93a36.36,36.36,0,0,0,2.81,4.51,37.3,37.3,0,0,0,3.14,4.28,35.87,35.87,0,0,0-2.81-4.5A36.93,36.93,0,0,0,671.08,353.93Z" style="fill:#e0e0e0"></path><path d="M590.09,345.93l7.76-1.76,7.46-7a5.29,5.29,0,0,1,3.32-1.44l13.57-.78a5.33,5.33,0,0,1,3.72,1.24l9.71,8.2L593.31,365l-5.81.51Z" style="fill:#f5f5f5"></path><path d="M613.52,342.31c0,.06,1-.13,2.61-.33a11.21,11.21,0,0,1,6.14.64,15,15,0,0,1,2.93,1.83c.86.64,1.63,1.24,2.31,1.7a11.87,11.87,0,0,0,1.68,1,2.47,2.47,0,0,0,.67.25c0-.06-.9-.47-2.19-1.45-.65-.48-1.4-1.09-2.25-1.76a15.18,15.18,0,0,0-3-1.9,8.72,8.72,0,0,0-3.46-.77,15.27,15.27,0,0,0-2.88.22c-.81.13-1.45.28-1.89.38A2,2,0,0,0,613.52,342.31Z" style="fill:#e0e0e0"></path><path d="M610.73,349.86c0,.06.56-.18,1.47-.28a8,8,0,0,1,3.49.49,17.91,17.91,0,0,1,3.19,1.64,7.41,7.41,0,0,0,1.32.74,5.14,5.14,0,0,0-1.17-1,13.85,13.85,0,0,0-3.21-1.78,7.22,7.22,0,0,0-3.66-.39A2.87,2.87,0,0,0,610.73,349.86Z" style="fill:#e0e0e0"></path><path d="M593.27,351.11c.09.06,1.19-1.56,2.63-3.49a41.52,41.52,0,0,0,2.59-3.51,17.46,17.46,0,0,0-2.9,3.28A17.18,17.18,0,0,0,593.27,351.11Z" style="fill:#e0e0e0"></path><path d="M614.64,335.74l-17.21-16a1.64,1.64,0,0,1,.12-2.5h0a1.65,1.65,0,0,1,2.1.08l20.17,18.09" style="fill:#e0e0e0"></path><path d="M546.66,318.38l-3.53,19.72,50.13,7.38-4.41,20s-59.48,4.32-65.88,2.9c-8.1-1.79-14.3-11.5-14.1-25.69.08-5.62,2.68-16.83,6-29.88Z" style="fill:#f5f5f5"></path><path d="M511.18,313.21l40.25,6.51s6.69-41.52,2.83-49.23S541,255.23,531.41,261C524.83,264.89,511.18,313.21,511.18,313.21Z" style="fill:#ebebeb"></path><path d="M511.18,313.21a5.75,5.75,0,0,1,.8.08l2.28.32,8.38,1.27,27.81,4.42-.29.2.35-1.68a233.77,233.77,0,0,0,4.1-29c.29-3.74.44-6.77.51-8.86,0-1,.06-1.82.08-2.42a4.6,4.6,0,0,1,.06-.84,5.5,5.5,0,0,1,0,.84c0,.56,0,1.37,0,2.42,0,2.1-.1,5.14-.34,8.88a214.26,214.26,0,0,1-4,29.07l-.35,1.68,0,.24-.25,0-27.79-4.57-8.35-1.44-2.27-.41A4.47,4.47,0,0,1,511.18,313.21Z" style="fill:#e0e0e0"></path><path d="M205.47,219.77c-1.59,1-3.84-.07-4.67-1.75a8,8,0,0,1-.12-5.51,22.82,22.82,0,0,0,1.18-5.49,8,8,0,0,0-5.76-7.56,7.48,7.48,0,0,0,0-10.78c-1.44-1.25-3.3-1.87-4.94-2.83a16.31,16.31,0,0,1-2.62-1.92,10.24,10.24,0,0,0,4.34-.09,7,7,0,0,0,4.86-4.72,6.36,6.36,0,0,0-1.87-6.44,5.84,5.84,0,0,0-6.61-.64c-2,1.19-3,3.49-3.9,5.64-.28.66-.55,1.33-.83,2-3.09-3.69-6-7.51-10.55-8.63-4.11-1-8.4.58-12.63.49-3.08-.07-6.09-1-9.16-1.2s-6.53.65-8.21,3.24c-1,1.52-1.23,3.43-2.23,4.94-2.06,3.12-6.82,3.77-8.47,7.13-1.35,2.72,0,6-.52,9-.52,3.27-3.06,5.76-5.11,8.35s-3.77,6.1-2.39,9.1c1.21,2.64,4.43,3.93,5.6,6.59.85,1.95.42,4.17.49,6.29s1.05,4.59,3.13,5l23.8,5c8.26,2.87,16.77,5.78,25.5,5.32s17.83-5.13,20.86-13.33a5.08,5.08,0,0,1-3.45-1.34A8.38,8.38,0,0,0,205.47,219.77Z" style="fill:#e0e0e0"></path><path d="M186.61,228.13a108.3,108.3,0,0,0,3.79-18.4c.57-6.24,0-12.7-2.44-18.45-.38-.88-3.5-6.7-4.44-6.56-.67.1,1.35,5.58,1,6.19-3,5.76-3.51,12.54-2.66,19a84.82,84.82,0,0,0,4.71,18.26" style="fill:#e0e0e0"></path><path d="M161.32,280.92c9.7-.7,27.35-30.63,27.35-30.63L186,204.21c-.29-15.73-9.69-28.66-25.4-27.92l-1.45.15A28.11,28.11,0,0,0,134,205.08c.33,13.63.87,28.68,1.73,35.92,1.77,15,17,15.74,17,15.74s.27,3.49.54,7.91c.61,9.93,2.4,16.81,6.27,16.27Z" style="fill:#f5f5f5"></path><path d="M152.73,256.74a36.44,36.44,0,0,0,18.93-7.83s-3.61,11.41-18.73,11.64Z" style="fill:#e0e0e0"></path><path d="M141.08,216.56a2.14,2.14,0,0,0,2.29,1.94,2.05,2.05,0,0,0,2-2.16,2.16,2.16,0,0,0-2.29-2A2.06,2.06,0,0,0,141.08,216.56Z" style="fill:#e0e0e0"></path><path d="M137.84,211c.29.26,1.79-1.12,4.1-1.35s4.12.73,4.34.43c.11-.14-.22-.62-1-1.08a5.94,5.94,0,0,0-3.51-.69,5.72,5.72,0,0,0-3.23,1.43C137.88,210.33,137.7,210.86,137.84,211Z" style="fill:#e0e0e0"></path><path d="M161.88,214.93a2.16,2.16,0,0,0,2.3,1.95,2.06,2.06,0,0,0,2-2.17,2.15,2.15,0,0,0-2.29-2A2.07,2.07,0,0,0,161.88,214.93Z" style="fill:#e0e0e0"></path><path d="M160.53,209.53c.29.25,1.79-1.12,4.1-1.36s4.12.74,4.34.43c.11-.14-.22-.62-1-1.07a5.89,5.89,0,0,0-3.51-.69,5.59,5.59,0,0,0-3.23,1.43C160.57,208.88,160.38,209.42,160.53,209.53Z" style="fill:#e0e0e0"></path><path d="M154.12,228.12a15.31,15.31,0,0,0-3.81-.28c-.6,0-1.17-.06-1.31-.45a3.08,3.08,0,0,1,.21-1.79c.4-1.48.82-3,1.27-4.67,1.74-6.63,2.94-12.07,2.67-12.14s-1.9,5.26-3.64,11.9l-1.2,4.69a3.45,3.45,0,0,0-.06,2.34,1.5,1.5,0,0,0,1.06.76,3.57,3.57,0,0,0,1,0A15.21,15.21,0,0,0,154.12,228.12Z" style="fill:#e0e0e0"></path><path d="M161.08,229c-.38,0-.12,2.52-2.08,4.52s-4.64,2-4.63,2.36c0,.16.65.43,1.78.34a6.31,6.31,0,0,0,3.88-1.83,5.49,5.49,0,0,0,1.58-3.78C161.59,229.56,161.25,229,161.08,229Z" style="fill:#e0e0e0"></path><path d="M159.67,200.15c.29.61,2.56.07,5.3.11s5,.55,5.31,0c.13-.29-.31-.84-1.26-1.35a9.15,9.15,0,0,0-8.08,0C160,199.32,159.54,199.87,159.67,200.15Z" style="fill:#e0e0e0"></path><path d="M138,203.21c.46.48,2-.23,3.9-.46s3.57,0,3.88-.61c.14-.28-.17-.78-.93-1.2a5.7,5.7,0,0,0-6.27.86C137.94,202.41,137.78,203,138,203.21Z" style="fill:#e0e0e0"></path><path d="M185.94,215.45c.24-.14,10-4.14,10.74,6.16s-9.73,8.92-9.77,8.63S185.94,215.45,185.94,215.45Z" style="fill:#f5f5f5"></path><path d="M189.77,226.11s.19.11.5.23a1.81,1.81,0,0,0,1.34-.07c1.06-.48,1.85-2.27,1.76-4.13a5.82,5.82,0,0,0-.69-2.53,2.08,2.08,0,0,0-1.45-1.28.91.91,0,0,0-1,.57c-.12.3,0,.5-.09.52s-.23-.16-.18-.59a1.12,1.12,0,0,1,.36-.67,1.37,1.37,0,0,1,1-.34,2.53,2.53,0,0,1,2,1.46,6.09,6.09,0,0,1,.83,2.82c.09,2.08-.83,4.1-2.29,4.64a1.93,1.93,0,0,1-1.66-.15C189.8,226.36,189.73,226.13,189.77,226.11Z" style="fill:#e0e0e0"></path><path d="M139.54,187.59c-1.73-.81,2.93-6.53,6.91-8.65,6-3.21,15.35-5.55,21.16-4.3,7,1.51,12.93,4.56,16.79,10.59a40.67,40.67,0,0,1,5.88,20.4,12.24,12.24,0,0,1-1.05,6.38c-1.29,2.37-4,4-3.64,7.12a4.32,4.32,0,0,1-.86,3.21c-1.76,2.13-4.19.39-5.37-1.43-2.52-3.89-3.08-8.69-3.58-13.3-.35-3.27-.7-6.62,0-9.83.39-1.75,1.1-3.43,1.39-5.2a6.17,6.17,0,0,0-1.06-5.09,6.38,6.38,0,0,0-.89-.79,10.76,10.76,0,0,0-10.79-1.35c-5.66,2.43-15.37,6.13-18.09,4.33-3.9-2.59-4.91-4.38-4.91-4.38Z" style="fill:#e0e0e0"></path><path d="M167,173.28a22.66,22.66,0,0,0-17.34,2.07c-2.72,1.64-5.11,4.14-5.77,7.24s.88,6.78,3.89,7.78l.21.12c4.49,1.19,7.31.42,11.59-1.38,3.61-1.51,6.74-4,10.35-5.49a20.9,20.9,0,0,1,12.23-1.15A34.24,34.24,0,0,0,167,173.28Z" style="fill:#e0e0e0"></path><path d="M283.56,416.63s-.87-25.73-6.25-32.88-93.6,8.09-93.6,8.09l-12.06,24.79Z" style="fill:#e0e0e0"></path><path d="M84.65,362.12,126.3,339s12-56.74,12.47-57.83c3.41-7.78,14.5-16.49,14.5-16.49L163,326.28l-2.6,13.28a36.51,36.51,0,0,1-12,20.77l-.2.18c-3.37,2.85-7.47,4.11-11.42,6.47l-42,14.73Z" style="fill:#f5f5f5"></path><path d="M151.52,266.77s1.2,13.38,9.83,12.26,27.32-29.43,27.32-29.43a125.53,125.53,0,0,1,15.27,3.12c14.9,5.09,29.66,23.88,39.23,38.94,10.79,17,30.87,80.6,34.14,91.08a2.53,2.53,0,0,1-.64,2.56c-4.63,4.52-23,21.61-37.72,23.89-17,2.64-53.3-10.08-58.1-14.4L182.68,378l-34.13-69.71a39.25,39.25,0,0,1-.78-32.82l3.75-8.67" style="fill:#ebebeb"></path><path d="M153.27,264.65s-11.09,8.71-14.5,16.49c-.47,1.09-13,54.8-13,54.8l34.78,6.46L163,326.28Z" style="fill:#ebebeb"></path><path d="M192,266.57,174.05,350.4l-65.62,18,1.1,16.53s35.14,0,62.69-3c28.18-3,32.12-11.38,38-36.25S220.8,288.57,221,286.54C221.43,283.19,205.85,263.76,192,266.57Z" style="fill:#f5f5f5"></path><path d="M209.11,259.21s-18.68-7.56-23,20-5.9,38.66-5.9,38.66l39.31,14.35,9-40.52S230.07,264.91,209.11,259.21Z" style="fill:#ebebeb"></path><path d="M227.22,297.52s-.07.21-.17.62-.24,1.05-.43,1.84c-.37,1.63-.92,4-1.6,7l-5.67,25.15.22-.12L180,317.34l-1.15-.43.12.21c1.68-10.45,3.38-20.39,5.09-29.38.87-4.49,1.7-8.76,2.7-12.7A26.33,26.33,0,0,1,191.61,265a15.28,15.28,0,0,1,3.63-3.24,12.56,12.56,0,0,1,4-1.66,17.31,17.31,0,0,1,6.94.09,39.43,39.43,0,0,1,4.3,1.1l1.11.34.38.1-.37-.14-1.1-.38a36.16,36.16,0,0,0-4.29-1.16,17.18,17.18,0,0,0-7-.16,12.82,12.82,0,0,0-4.08,1.66,15.39,15.39,0,0,0-3.71,3.28,26.58,26.58,0,0,0-5,10.14c-1,4-1.86,8.22-2.74,12.71-1.73,9-3.44,18.93-5.12,29.39l0,.16.15.06,1.16.43,39.59,14.62.18.06,0-.18c2.29-10.44,4.2-19.1,5.53-25.18.65-3,1.16-5.39,1.52-7,.16-.79.29-1.41.38-1.85S227.22,297.52,227.22,297.52Z" style="fill:#e0e0e0"></path><path d="M169.61,351.27c.09,0-4.84-10.74-11-23.89s-11.27-23.77-11.37-23.73,4.84,10.74,11,23.89S169.51,351.31,169.61,351.27Z" style="fill:#e0e0e0"></path><polygon points="15.1 328 76.55 393.55 136.49 393.92 137.91 391.19 78.83 327.18 15.1 328" style="fill:#e0e0e0"></polygon><path d="M73.18,327.18s-4,0-5.17,1.4c-1.39,1.66-4,5.41,1.75,15,2.32,3.81,13.65,17,18.31,30.43,4.36,12.57,2.37,16.73,2.37,16.73L47.2,389.35l-.84-1.57s-18.81-50.93-13.82-60.6C34.83,322.74,73.49,325.55,73.18,327.18Z" style="fill:#e0e0e0"></path><path d="M40,388l46.52.39c.56-11.79-3.53-20.34-9.61-30.45-2.33-3.87-5.51-7.18-7.83-11.06a29.77,29.77,0,0,1-4.17-13.44c-.11-1.89,0-3.94,1.16-5.43s5.31-1.58,7.1-.85a13.53,13.53,0,0,0-6.85-2.52c-3.76-.31-34.51-.1-40.23-.06a18,18,0,0,0-4.08.66c-4.17,2.16-5,7.84-4.44,11.93.56,3.87,3,7.52,6,11.61a40.27,40.27,0,0,1,2.4,3.65c3.17,5.51,11.94,20.93,13.51,26.26A24.23,24.23,0,0,1,40,388Z" style="fill:#fafafa"></path><path d="M40,387.92l11.21.09,21.39.18,9,.08,3,0a7.27,7.27,0,0,0,1.68,0s.22,0,.25,0-.06-.86-.06-1c0-.41,0-.81,0-1.22,0-.79,0-1.58-.07-2.37a40.48,40.48,0,0,0-1.57-8.94c-1.72-5.87-4.69-11.28-7.83-16.5-1.72-2.86-3.85-5.42-5.82-8.11A33.91,33.91,0,0,1,66.62,342a28.93,28.93,0,0,1-1.83-9.15c-.05-2,.24-4.75,2.35-5.65a8.21,8.21,0,0,1,3-.54c.69,0,2.28-.08,2.87.39.16.14.08.18,0,.15s-.21-.15-.28-.19a8.78,8.78,0,0,0-1-.59A13.67,13.67,0,0,0,68.15,325a37.38,37.38,0,0,0-7.77-.42c-8-.07-16,0-23.92,0l-9.21.05a22.32,22.32,0,0,0-4.31.41c-2.44.51-4,3-4.75,5.18a15.33,15.33,0,0,0-.41,7.49,23.61,23.61,0,0,0,4.16,8.6c1.64,2.36,3.31,4.64,4.74,7.14,1,1.73,2,3.46,2.95,5.2,2.34,4.18,4.63,8.38,6.77,12.66,1.83,3.68,3.6,7.32,3.88,11.49a24.35,24.35,0,0,1-.17,5.19c0,.13-.21.07-.2-.05a22.29,22.29,0,0,0-1.73-12.38c-1.82-4.16-4-8.18-6.16-12.17q-3-5.44-6.08-10.82c-3-5.21-7.86-9.76-8.53-16-.42-3.92.49-9.66,4.61-11.45a12.33,12.33,0,0,1,4.45-.66l3.35,0c7.84-.05,15.67-.09,23.5-.08,3.38,0,6.76,0,10.13.07,3.07.05,6,.35,8.73,1.94a8.63,8.63,0,0,1,1.07.71.1.1,0,0,1-.1.17,8.72,8.72,0,0,0-5.53-.07c-2.45.8-2.71,3.71-2.61,5.93a29.69,29.69,0,0,0,4.92,14.92c1.44,2.19,3.11,4.22,4.67,6.32a63.93,63.93,0,0,1,4,6.26A69.36,69.36,0,0,1,84.47,373a42.32,42.32,0,0,1,2.17,15.43.12.12,0,0,1-.11.1l-15.72-.13-25.05-.21L40,388.12A.1.1,0,0,1,40,387.92Z" style="fill:#e0e0e0"></path><path d="M42.76,378.31c0,.11,8.21.21,18.32.21s18.33-.1,18.33-.21-8.2-.21-18.33-.21S42.76,378.19,42.76,378.31Z" style="fill:#e0e0e0"></path><path d="M41.73,372.18c0,.12,8.21.21,18.33.21s18.32-.09,18.32-.21-8.2-.21-18.32-.21S41.73,372.07,41.73,372.18Z" style="fill:#e0e0e0"></path><path d="M36.81,365.6c0,.12,8.2.21,18.32.21s18.33-.09,18.33-.21-8.21-.21-18.33-.21S36.81,365.49,36.81,365.6Z" style="fill:#e0e0e0"></path><path d="M33.78,359.6c0,.11,8.2.21,18.32.21s18.32-.1,18.32-.21-8.2-.22-18.32-.22S33.78,359.48,33.78,359.6Z" style="fill:#e0e0e0"></path><path d="M31.75,354.1c0,.12,8.21.21,18.33.21s18.32-.09,18.32-.21-8.2-.21-18.32-.21S31.75,354,31.75,354.1Z" style="fill:#e0e0e0"></path><path d="M26.81,346.88c0,.12,8.21.21,18.32.21s18.33-.09,18.33-.21-8.2-.21-18.33-.21S26.81,346.76,26.81,346.88Z" style="fill:#e0e0e0"></path><path d="M22.09,340c0,.12,8.21.21,18.33.21s18.32-.09,18.32-.21-8.2-.21-18.32-.21S22.09,339.85,22.09,340Z" style="fill:#e0e0e0"></path><path d="M22.43,333.4c0,.11,8.2.21,18.32.21s18.33-.1,18.33-.21-8.2-.21-18.33-.21S22.43,333.28,22.43,333.4Z" style="fill:#e0e0e0"></path><path d="M78.83,327.18l-.25.18-.72.58-2.79,2.26-.07.06.06.08c5,5.47,15.85,17.16,28.43,30.64,8.68,9.52,17,17.67,23.09,23.54,3,2.94,5.5,5.3,7.21,6.92l2,1.85.52.48.19.15a1,1,0,0,0-.16-.18l-.49-.51-1.93-1.91-7.12-7c-6-5.94-14.31-14.1-23-23.61-12.58-13.49-23.49-25.11-28.6-30.49v.13L77.92,328l.69-.61C78.76,327.26,78.84,327.19,78.83,327.18Z" style="fill:#ebebeb"></path><path d="M131.54,363.26h-8.77s-5.93-5.16-7.28-5.57a95,95,0,0,0-10.1-1.73l5,5.4h0c1.15,1.24,3.27,2.37,2,2.37h-9.12s-9.33-4.48-10.72-3.66c-1.17.68-1.57,1.93-.38,3.66s9.37,5.81,10.32,6.13l2.67.79-2.52.78-11.9-4.15c-.77-.14-1.83-.27-2.18.18a1.59,1.59,0,0,0,.06,2.3A50.32,50.32,0,0,0,94,374s-1.9,2.79-.32,4.21,6.13,5.66,6.13,5.66a6.66,6.66,0,0,0,1.89,3.46c1.41,1.1,17,1.1,18.09,1.1s7.39-3.62,7.39-3.62l6.83-.5Z" style="fill:#f5f5f5"></path><path d="M104.41,378.48a4.71,4.71,0,0,1-1.7.23,5.15,5.15,0,0,1-1.86-.33,10,10,0,0,1-2-1.08c-1.35-.87-2.55-1.68-3.42-2.29A9.07,9.07,0,0,1,94,374a7.06,7.06,0,0,1,1.5.82c.9.54,2.13,1.32,3.48,2.2a11.91,11.91,0,0,0,2,1.07,5.59,5.59,0,0,0,1.75.38C103.75,378.5,104.41,378.42,104.41,378.48Z" style="fill:#e0e0e0"></path><path d="M105.13,384.31a1.91,1.91,0,0,1-1.19.66,4.39,4.39,0,0,1-3.21-.54,12.86,12.86,0,0,1-2.6-1.94,4.16,4.16,0,0,1-.89-1,40.87,40.87,0,0,0,3.67,2.63,4.56,4.56,0,0,0,3,.61A8.31,8.31,0,0,0,105.13,384.31Z" style="fill:#e0e0e0"></path><path d="M109.54,371.42a6.69,6.69,0,0,1-2.47-.19,6.5,6.5,0,0,1-2.34-.8,12.53,12.53,0,0,1,2.42.44A12,12,0,0,1,109.54,371.42Z" style="fill:#e0e0e0"></path><path d="M105.39,356a4.34,4.34,0,0,1,.76.07l2.19.31,8,1.23h0l0,0c1.91,1.61,4.08,3.46,6.46,5.48l-.16-.06,6.88-.31h0l8.25-2.31,23.89-6.57,7.25-1.93,2-.5a3.3,3.3,0,0,1,.7-.14,3.68,3.68,0,0,1-.67.24l-2,.59-7.21,2.1L138,360.92l-8.26,2.29h-.06l-6.88.27h-.09l-.07-.06-6.4-5.54.09,0-8-1.39-2.17-.41A3.62,3.62,0,0,1,105.39,356Z" style="fill:#e0e0e0"></path></g><g id="freepik--character-3--inject-224"><path d="M605.88,310.78l-29.74,37c-4.59-2.09-34.32-42.26-34.32-42.26l-20.06,30.93s34.74,42.63,52.08,42.63c2.83,0,7.38.56,10.91-2.48,16.79-14.42,37.45-58.28,37.45-58.28Z" style="fill:#ffbe9d"></path><path d="M470.31,251.66c1.5.94,3.63-.07,4.42-1.66a7.57,7.57,0,0,0,.11-5.21,21.41,21.41,0,0,1-1.12-5.19,7.56,7.56,0,0,1,5.45-7.16,7.06,7.06,0,0,1,0-10.19c1.36-1.18,3.11-1.77,4.67-2.67a15.26,15.26,0,0,0,2.48-1.83,9.65,9.65,0,0,1-4.11-.08,6.67,6.67,0,0,1-4.6-4.47,6,6,0,0,1,1.78-6.09,5.52,5.52,0,0,1,6.25-.6c1.89,1.13,2.85,3.3,3.69,5.33l.78,1.89c2.93-3.49,5.69-7.1,10-8.16,3.89-1,7.94.55,11.94.46,2.92-.06,5.76-1,8.67-1.13s6.18.62,7.77,3.07c.93,1.43,1.16,3.24,2.1,4.67,1.95,3,6.45,3.57,8,6.74,1.27,2.57,0,5.68.49,8.52.49,3.09,2.89,5.44,4.83,7.89s3.57,5.77,2.26,8.61c-1.14,2.5-4.19,3.72-5.29,6.24-.81,1.83-.4,3.94-.46,5.95s-1,4.33-3,4.69L515,266c-7.81,2.72-15.86,5.47-24.12,5s-16.86-4.85-19.73-12.6a4.75,4.75,0,0,0,3.26-1.27A7.94,7.94,0,0,1,470.31,251.66Z" style="fill:#263238"></path><path d="M488.15,259.56a102.59,102.59,0,0,1-3.59-17.4,36,36,0,0,1,2.31-17.46c.35-.82,3.31-6.33,4.2-6.2.64.1-1.28,5.28-1,5.85,2.81,5.45,3.32,11.86,2.51,17.94a80.6,80.6,0,0,1-4.45,17.27" style="fill:#263238"></path><path d="M512.07,309.5c-9.17-.67-25.87-19.27-25.87-19.27l2.53-53.29c.28-14.88,9.17-27.11,24-26.42l1.37.15a26.59,26.59,0,0,1,23.8,27.09c-.32,12.89-.83,27.13-1.64,34-1.67,14.17-16.1,14.88-16.1,14.88s-.25,3.3-.51,7.48c-.58,9.4-2.27,15.91-5.93,15.4Z" style="fill:#ffbe9d"></path><path d="M520.19,286.62a34.43,34.43,0,0,1-17.91-7.41s3.42,10.8,17.72,11Z" style="fill:#eb996e"></path><path d="M533.52,248.16a2,2,0,0,1-2.17,1.84,2,2,0,0,1-1.9-2.05,2,2,0,0,1,2.17-1.84A2,2,0,0,1,533.52,248.16Z" style="fill:#263238"></path><path d="M534.28,243.34c-.28.23-1.7-1.07-3.88-1.29s-3.9.7-4.1.41c-.11-.13.2-.58,1-1a5.61,5.61,0,0,1,3.32-.65,5.35,5.35,0,0,1,3,1.35C534.24,242.73,534.41,243.23,534.28,243.34Z" style="fill:#263238"></path><path d="M512.57,246.84a2,2,0,0,1-2.17,1.84,2,2,0,0,1-1.9-2.05,2.05,2.05,0,0,1,2.17-1.84A2,2,0,0,1,512.57,246.84Z" style="fill:#263238"></path><path d="M512.82,242c-.28.23-1.7-1.07-3.88-1.29s-3.9.7-4.11.41c-.1-.13.2-.58,1-1a5.61,5.61,0,0,1,3.32-.65,5.35,5.35,0,0,1,3,1.35C512.77,241.36,513,241.86,512.82,242Z" style="fill:#263238"></path><path d="M518.87,259.55a14.57,14.57,0,0,1,3.61-.26c.57,0,1.11-.06,1.24-.43a2.9,2.9,0,0,0-.2-1.69l-1.2-4.41c-1.65-6.28-2.78-11.42-2.53-11.49s1.8,5,3.45,11.26c.39,1.54.77,3,1.13,4.43a3.29,3.29,0,0,1,.06,2.22,1.42,1.42,0,0,1-1,.71,4,4,0,0,1-1,0A14.19,14.19,0,0,1,518.87,259.55Z" style="fill:#263238"></path><path d="M512.3,260.38c.35,0,.11,2.39,2,4.28s4.39,1.9,4.38,2.24c0,.15-.61.4-1.68.31a5.89,5.89,0,0,1-3.67-1.73,5.17,5.17,0,0,1-1.5-3.57C511.81,260.91,512.13,260.35,512.3,260.38Z" style="fill:#263238"></path><path d="M513.63,233.1c-.28.57-2.43.06-5,.1s-4.73.52-5,0c-.12-.27.3-.79,1.19-1.28a8.71,8.71,0,0,1,7.65,0C513.33,232.31,513.75,232.83,513.63,233.1Z" style="fill:#263238"></path><path d="M534.14,236c-.44.45-1.89-.22-3.69-.43s-3.37,0-3.67-.58c-.13-.27.17-.74.88-1.13a5.12,5.12,0,0,1,3.09-.5,5.06,5.06,0,0,1,2.84,1.31C534.18,235.23,534.33,235.77,534.14,236Z" style="fill:#263238"></path><path d="M488.78,247.57c-.23-.13-9.45-3.92-10.16,5.82s9.21,8.45,9.24,8.17S488.78,247.57,488.78,247.57Z" style="fill:#ffbe9d"></path><path d="M485.16,257.65s-.18.11-.47.22a1.68,1.68,0,0,1-1.27-.07c-1-.45-1.75-2.15-1.67-3.91a5.72,5.72,0,0,1,.65-2.39,2,2,0,0,1,1.37-1.21.87.87,0,0,1,1,.54c.11.28,0,.47.08.49s.23-.15.18-.55a1.12,1.12,0,0,0-.34-.64,1.29,1.29,0,0,0-.92-.32,2.39,2.39,0,0,0-1.88,1.38,5.62,5.62,0,0,0-.79,2.67c-.08,2,.79,3.88,2.17,4.39a1.81,1.81,0,0,0,1.57-.15C485.12,257.89,485.19,257.67,485.16,257.65Z" style="fill:#eb996e"></path><path d="M532.67,221.22c1.63-.77-2.77-6.18-6.54-8.19-5.68-3-14.52-5.25-20-4.06-6.62,1.42-12.23,4.31-15.87,10a38.27,38.27,0,0,0-5.56,19.29,11.61,11.61,0,0,0,1,6c1.22,2.24,3.74,3.76,3.44,6.73a4.11,4.11,0,0,0,.82,3c1.66,2,3.95.37,5.07-1.35,2.39-3.68,2.92-8.22,3.39-12.58a28.79,28.79,0,0,0,0-9.31c-.37-1.65-1-3.24-1.32-4.91a5.85,5.85,0,0,1,1-4.82,5.61,5.61,0,0,1,.84-.75,10.17,10.17,0,0,1,10.2-1.27c5.36,2.3,14.55,5.8,17.11,4.09,3.7-2.45,4.65-4.14,4.65-4.14Z" style="fill:#263238"></path><path d="M506.71,207.68a21.43,21.43,0,0,1,16.4,2c2.57,1.55,4.83,3.91,5.46,6.85s-.84,6.41-3.69,7.36l-.2.11c-4.24,1.13-6.91.4-11-1.3-3.41-1.44-6.37-3.79-9.79-5.2a19.84,19.84,0,0,0-11.57-1.09A32.43,32.43,0,0,1,506.71,207.68Z" style="fill:#263238"></path><path d="M487.67,216.36c.08.08.91-.81,2.55-1.83a14.38,14.38,0,0,1,3-1.43,9.11,9.11,0,0,1,4-.46,13.34,13.34,0,0,1,6.65,3.15c1.45,1.28,2.1,2.32,2.19,2.25s-.08-.3-.38-.77a10.58,10.58,0,0,0-1.49-1.81,12.6,12.6,0,0,0-6.88-3.46,9.3,9.3,0,0,0-4.28.53,12.78,12.78,0,0,0-3.1,1.62A7.41,7.41,0,0,0,487.67,216.36Z" style="fill:#455a64"></path><path d="M486.52,219.77a8.3,8.3,0,0,0,.6,2.82,20.24,20.24,0,0,0,8.57,10.72,8.08,8.08,0,0,0,2.62,1.2c.13-.18-4-2-7.33-6.22S486.73,219.69,486.52,219.77Z" style="fill:#455a64"></path><path d="M482.47,221.14a3.27,3.27,0,0,0-.09,1.11,16.78,16.78,0,0,0,.27,3,20.39,20.39,0,0,0,11.92,15.18,17,17,0,0,0,2.86,1,3.14,3.14,0,0,0,1.1.17c0-.11-1.51-.46-3.77-1.57a21.45,21.45,0,0,1-11.66-14.85C482.56,222.72,482.59,221.14,482.47,221.14Z" style="fill:#455a64"></path><path d="M517.92,207.37c0,.1,1,.39,2.53,1.1a21.43,21.43,0,0,1,5.47,3.63,21.78,21.78,0,0,1,4.11,5.13,23.05,23.05,0,0,0,1.33,2.42,8.1,8.1,0,0,0-.92-2.64,18.36,18.36,0,0,0-4.08-5.39,18.08,18.08,0,0,0-5.73-3.57A7.48,7.48,0,0,0,517.92,207.37Z" style="fill:#455a64"></path><path d="M480.15,206.65c-.16,0,.12,2.83,2.2,5.55s4.7,3.78,4.74,3.62-2.29-1.42-4.22-4S480.35,206.59,480.15,206.65Z" style="fill:#455a64"></path><path d="M519.79,292.29s12.76,2.16,19.41,8.81,27.61,35.32,27.61,35.32l-18.48,32.43-8.54-7.36-6.68,55.66-104.18.33c-.33-1,16.41-88.79,16.41-88.79s-4.09-24.38,5.81-31.14c4.85-3.31,13.45-5.65,19.87-7.39,9.75-2.65,15-4.18,15-4.18s18.52,21.48,26.19,21.43C519.67,307.36,519.79,292.29,519.79,292.29Z" style="fill:#407BFF"></path><path d="M632.48,275.67c-2.77.53-15.06,14.11-15.06,14.11l-2.32-.34a7.46,7.46,0,0,0-8.51,6.78c-.54,6.59-.81,14.79-.81,14.79l11.63,8.45,4,0c3.57.52,8.46-5.95,11.66-10.58s-.16-6.34-.16-6.34c1-5-3.44-4.89-3.44-4.89.79-4.5-3.7-5.29-3.7-5.29s7.8-9.25,9.65-12.69S635.26,275.14,632.48,275.67Z" style="fill:#ffbe9d"></path><path d="M468.58,336.14c-3.16,10.36-16.24,55.67-16.24,55.67l61.3,11.31-1.17,13.6-93-.09c-2.37-11.05-4.39-25,.31-40.92,5.76-19.44,14.39-46.3,14.39-46.3" style="fill:#ffbe9d"></path><path d="M422.07,346.31s24-46.83,29.08-48.76c8.89-3.39,28.1,6.87,25.77,18.17s-16.29,49.54-16.29,49.54l-38.56-18.95Z" style="fill:#407BFF"></path><path d="M543.43,328.14a2.64,2.64,0,0,1,0,.64c0,.47-.07,1.07-.11,1.81-.1,1.58-.29,3.85-.55,6.66-.52,5.62-1.4,13.37-2.46,21.91s-2,16.27-2.61,21.88c-.3,2.75-.54,5-.72,6.64-.08.73-.15,1.33-.2,1.8a3.37,3.37,0,0,1-.11.63,2.6,2.6,0,0,1,0-.64c0-.47.07-1.07.11-1.81.1-1.58.29-3.85.55-6.66.52-5.62,1.4-13.36,2.46-21.91s2-16.27,2.61-21.88c.3-2.75.54-5,.72-6.63.08-.74.15-1.34.2-1.81A3.37,3.37,0,0,1,543.43,328.14Z" style="fill:#263238"></path><path d="M477.15,323.23c.14,0-3.12,9-7.28,20.08s-7.64,20-7.78,19.91,3.13-9,7.29-20.09S477,323.18,477.15,323.23Z" style="fill:#263238"></path><path d="M475.15,310.78c-.08.05-.78-1.08-2.15-2.7A29.17,29.17,0,0,0,459.4,299c-2-.64-3.34-.85-3.32-.94a3.12,3.12,0,0,1,.93.06,20,20,0,0,1,2.49.52,26.33,26.33,0,0,1,13.79,9.18,22,22,0,0,1,1.44,2.1A3.2,3.2,0,0,1,475.15,310.78Z" style="fill:#263238"></path><path d="M575.19,356.39c-.14,0,.41-2,.57-4.57s-.09-4.58.06-4.61a10.7,10.7,0,0,1,.46,4.64A10.47,10.47,0,0,1,575.19,356.39Z" style="fill:#eb996e"></path><path d="M629.19,297.57a25.19,25.19,0,0,1-2,3,13.8,13.8,0,0,1-1.13,1.45,6.6,6.6,0,0,1-1.71,1.26,5,5,0,0,1-2.3.65,3.21,3.21,0,0,1-2.35-1.09,2.31,2.31,0,0,1-.51-1.29,3.21,3.21,0,0,1,.22-1.29,15.3,15.3,0,0,1,1.1-2.06,27.87,27.87,0,0,1,2.29-3.15,23.43,23.43,0,0,1,1.79-1.92,3.21,3.21,0,0,1,.75-.61c.06.06-.92,1-2.26,2.76a33,33,0,0,0-2.16,3.17,16.23,16.23,0,0,0-1,2,2,2,0,0,0,.21,2.07,2.73,2.73,0,0,0,2,.91,4.6,4.6,0,0,0,2.06-.56,6.6,6.6,0,0,0,1.63-1.15,11.63,11.63,0,0,0,1.13-1.36A23.38,23.38,0,0,1,629.19,297.57Z" style="fill:#eb996e"></path><path d="M632.88,301.77a3.29,3.29,0,0,1-.39.85c-.28.52-.71,1.27-1.31,2.16a11.93,11.93,0,0,1-2.59,2.76,5,5,0,0,1-2.06,1,2.28,2.28,0,0,1-2.67-3.23,11.09,11.09,0,0,1,1-2,35.06,35.06,0,0,1,2.08-3.12,25,25,0,0,1,1.58-2c.39-.45.63-.67.66-.65s-.76,1.08-1.94,2.83c-.59.88-1.27,1.94-2,3.15a10.81,10.81,0,0,0-.95,1.93,1.79,1.79,0,0,0,2.1,2.57,4.78,4.78,0,0,0,1.87-.9,12.05,12.05,0,0,0,2.57-2.59C632.13,302.87,632.8,301.72,632.88,301.77Z" style="fill:#eb996e"></path><path d="M634.39,306a6.1,6.1,0,0,1-1,2.29,13,13,0,0,1-1.67,2.16,7,7,0,0,1-1.24,1.07,2,2,0,0,1-1.86.23,1.71,1.71,0,0,1-.93-1.65,4.3,4.3,0,0,1,.42-1.62,11.25,11.25,0,0,1,1.46-2.31,19.26,19.26,0,0,1,1.58-1.91,8.35,8.35,0,0,1-1.28,2.13,12.35,12.35,0,0,0-1.32,2.28,4,4,0,0,0-.35,1.44,1.22,1.22,0,0,0,.63,1.16,1.55,1.55,0,0,0,1.39-.18,6.84,6.84,0,0,0,1.16-1,14.24,14.24,0,0,0,1.7-2C634,306.79,634.32,305.91,634.39,306Z" style="fill:#eb996e"></path><path d="M615.1,289.44c3.31.54,8.18,1.51,11.3,2.4.39,2-1.31,3.87-3.24,4.43a11.72,11.72,0,0,1-5.95-.34,7.55,7.55,0,0,1-2.39,10.95" style="fill:#ffbe9d"></path><path d="M614.82,306.88a9.7,9.7,0,0,0,2.43-2.51,7.45,7.45,0,0,0,1.15-3.68,7.59,7.59,0,0,0-1.39-4.61l-.39-.54.64.15a12.88,12.88,0,0,0,5.31.45c2.16-.36,4-2.38,3.59-4.25l.17.18c-3.24-.91-6.08-1.49-8.07-1.92l-2.33-.49a3.31,3.31,0,0,1-.83-.22,4.5,4.5,0,0,1,.85.06c.55.07,1.36.19,2.36.36,2,.35,4.87.86,8.15,1.74l.14,0,0,.15a3.73,3.73,0,0,1-.94,3.13,5.19,5.19,0,0,1-3,1.73,13,13,0,0,1-5.52-.48l.26-.38a7.81,7.81,0,0,1,1.41,4.92,7.6,7.6,0,0,1-1.31,3.83,7.29,7.29,0,0,1-1.85,1.88A2.68,2.68,0,0,1,614.82,306.88Z" style="fill:#eb996e"></path><path d="M513.64,403.12s15.3,1.77,19.07,4.28,10.72,9.32,10.72,9.32h-31Z" style="fill:#ffbe9d"></path></g><g id="freepik--character-1--inject-224"><path d="M237.73,305.49l-.11,39.84L220,341.71l-14.81-3.1s20.29,40,42.37,40,24.93-33.3,24.93-33.3l1.29-39.84Z" style="fill:#ffbe9d"></path><path d="M329.17,202.71c-1.64.92-3.84-.27-4.58-2a8,8,0,0,1,.17-5.51,23.15,23.15,0,0,0,1.46-5.42,8,8,0,0,0-5.37-7.86,7.48,7.48,0,0,0,.53-10.77c-1.37-1.32-3.2-2-4.79-3.07a17.79,17.79,0,0,1-2.53-2.06,10.3,10.3,0,0,0,4.35.13,7,7,0,0,0,5.1-4.46,6.39,6.39,0,0,0-1.54-6.54,5.85,5.85,0,0,0-6.57-1c-2.06,1.08-3.19,3.33-4.19,5.43l-.93,1.95c-2.9-3.84-5.62-7.81-10.1-9.16-4.05-1.22-8.41.14-12.63-.16-3.08-.23-6-1.34-9.1-1.67s-6.56.32-8.37,2.82c-1.06,1.46-1.4,3.36-2.47,4.82-2.23,3-7,3.41-8.84,6.68-1.48,2.65-.34,6-1,9-.69,3.24-3.35,5.6-5.54,8.08s-4.08,5.89-2.85,9c1.07,2.71,4.23,4.16,5.25,6.88.75,2,.21,4.19.17,6.31s.81,4.64,2.88,5.12l23.51,6.21c8.1,3.29,16.46,6.64,25.21,6.63s18.07-4.21,21.53-12.25a5,5,0,0,1-3.38-1.51A8.39,8.39,0,0,0,329.17,202.71Z" style="fill:#263238"></path><path d="M309.89,210.09a108.38,108.38,0,0,0,4.74-18.19c.89-6.21.7-12.68-1.49-18.56-.33-.89-3.15-6.87-4.1-6.78-.68.07,1.06,5.65.72,6.23-3.26,5.61-4.15,12.35-3.63,18.82a85.28,85.28,0,0,0,3.76,18.48" style="fill:#263238"></path><path d="M289.12,262.22c9.73-.2,20.76-21.46,20.76-21.46l.63-54.6C311,170.43,302.3,157,286.57,157l-1.46.08a28.13,28.13,0,0,0-26.61,27.33c-.37,13.63-.6,28.69-.12,36,1,15.06,16.2,16.6,16.2,16.6s.08,3.5.13,7.93c.1,9.95,10.52,17.7,14.41,17.36Z" style="fill:#ffbe9d"></path><path d="M274.58,236.93a36.4,36.4,0,0,0,19.31-6.86s-4.19,11.22-19.31,10.67Z" style="fill:#eb996e"></path><path d="M265,196.19a2.16,2.16,0,0,0,2.2,2.06,2.06,2.06,0,0,0,2.11-2.06,2.17,2.17,0,0,0-2.19-2.07A2.07,2.07,0,0,0,265,196.19Z" style="fill:#263238"></path><path d="M262.05,190.44c.29.27,1.85-1,4.17-1.15s4.08,1,4.31.66c.12-.14-.18-.63-.95-1.13a5.93,5.93,0,0,0-3.47-.87,5.68,5.68,0,0,0-3.3,1.27C262.13,189.8,261.92,190.32,262.05,190.44Z" style="fill:#263238"></path><path d="M285.87,195.63a2.15,2.15,0,0,0,2.19,2.06,2.06,2.06,0,0,0,2.12-2.06,2.15,2.15,0,0,0-2.19-2.06A2.06,2.06,0,0,0,285.87,195.63Z" style="fill:#263238"></path><path d="M284.8,190.16c.28.27,1.85-1,4.16-1.15s4.08,1,4.31.66c.12-.14-.18-.63-.95-1.13a6,6,0,0,0-3.47-.87,5.75,5.75,0,0,0-3.3,1.27C284.87,189.52,284.66,190,284.8,190.16Z" style="fill:#263238"></path><path d="M277.44,208.41c0-.14-1.45-.31-3.8-.48-.59,0-1.16-.12-1.28-.52a3,3,0,0,1,.3-1.77l1.51-4.6c2.08-6.54,3.56-11.91,3.3-12s-2.17,5.15-4.26,11.7q-.75,2.42-1.43,4.62a3.42,3.42,0,0,0-.18,2.34,1.48,1.48,0,0,0,1,.81,4.86,4.86,0,0,0,1,.09A15.19,15.19,0,0,0,277.44,208.41Z" style="fill:#263238"></path><path d="M284.34,209.64c-.37,0-.24,2.52-2.3,4.42s-4.75,1.76-4.75,2.12c0,.15.62.45,1.76.42a6.23,6.23,0,0,0,4-1.63,5.46,5.46,0,0,0,1.77-3.69C284.83,210.23,284.51,209.62,284.34,209.64Z" style="fill:#263238"></path><path d="M284.42,180.75c.26.62,2.56.2,5.29.38s5,.8,5.31.22c.14-.28-.27-.85-1.19-1.41a8.77,8.77,0,0,0-4-1.16,8.92,8.92,0,0,0-4.09.7C284.78,179.94,284.3,180.46,284.42,180.75Z" style="fill:#263238"></path><path d="M262.6,182.69c.43.5,2-.13,3.92-.26s3.56.17,3.91-.41c.15-.27-.14-.78-.88-1.24a5.39,5.39,0,0,0-3.23-.7,5.5,5.5,0,0,0-3.07,1.23C262.6,181.89,262.41,182.44,262.6,182.69Z" style="fill:#263238"></path><path d="M309.88,197.39c.25-.13,10.19-3.62,10.42,6.7s-10.19,8.42-10.21,8.12S309.88,197.39,309.88,197.39Z" style="fill:#ffbe9d"></path><path d="M313.15,208.23c.05,0,.19.12.49.26a1.82,1.82,0,0,0,1.35,0c1.08-.43,2-2.18,2-4a5.84,5.84,0,0,0-.56-2.56,2.1,2.1,0,0,0-1.38-1.36.92.92,0,0,0-1,.52c-.13.29-.06.5-.12.52s-.22-.17-.15-.6a1.16,1.16,0,0,1,.39-.66,1.42,1.42,0,0,1,1-.28,2.54,2.54,0,0,1,1.92,1.56,6.16,6.16,0,0,1,.68,2.86c0,2.08-1,4.05-2.53,4.52a1.93,1.93,0,0,1-1.65-.24C313.18,208.48,313.12,208.25,313.15,208.23Z" style="fill:#eb996e"></path><path d="M265,167.17c-1.68-.9,3.26-6.38,7.34-8.3,6.17-2.89,15.63-4.75,21.37-3.2,6.92,1.87,12.68,5.22,16.22,11.45a40.58,40.58,0,0,1,4.83,20.68,12.32,12.32,0,0,1-1.38,6.32c-1.41,2.3-4.16,3.78-4,6.92a4.32,4.32,0,0,1-1,3.17c-1.86,2-4.2.17-5.28-1.7-2.33-4-2.64-8.84-2.9-13.48-.18-3.29-.36-6.65.53-9.82.48-1.73,1.27-3.37,1.66-5.12a6.2,6.2,0,0,0-.8-5.14,6.13,6.13,0,0,0-.85-.84,10.77,10.77,0,0,0-10.71-1.9c-5.79,2.13-15.67,5.33-18.29,3.39C267.9,166.81,267,165,267,165Z" style="fill:#263238"></path><path d="M293.11,154.28a22.67,22.67,0,0,0-17.43,1.18c-2.8,1.5-5.31,3.87-6.13,6.93s.53,6.82,3.49,8l.2.12c4.42,1.43,7.28.8,11.65-.77,3.68-1.33,6.94-3.65,10.62-5a21,21,0,0,1,12.28-.52A34.24,34.24,0,0,0,293.11,154.28Z" style="fill:#263238"></path><path d="M312.75,164.49c-.09.08-.92-.91-2.6-2.08a14.9,14.9,0,0,0-3.13-1.67,9.64,9.64,0,0,0-4.2-.71,14.12,14.12,0,0,0-7.2,3c-1.6,1.27-2.34,2.33-2.43,2.26s.11-.32.45-.8a10.5,10.5,0,0,1,1.67-1.83,13.31,13.31,0,0,1,7.45-3.28,9.69,9.69,0,0,1,4.49.8,13.7,13.7,0,0,1,3.19,1.87A7.79,7.79,0,0,1,312.75,164.49Z" style="fill:#455a64"></path><path d="M313.78,168.14a8.76,8.76,0,0,1-.79,3A21.42,21.42,0,0,1,303.35,182a8.67,8.67,0,0,1-2.83,1.13c-.12-.2,4.34-1.89,8.08-6.18S313.56,168.05,313.78,168.14Z" style="fill:#455a64"></path><path d="M318,169.82a3.71,3.71,0,0,1,0,1.17,17.8,17.8,0,0,1-.45,3.17,21.52,21.52,0,0,1-13.42,15.39,17.35,17.35,0,0,1-3.08.88,3.15,3.15,0,0,1-1.17.12c0-.12,1.62-.4,4.07-1.45A22.72,22.72,0,0,0,317.1,174C317.8,171.48,317.86,169.81,318,169.82Z" style="fill:#455a64"></path><path d="M281.29,153.34c0,.11-1.07.36-2.74,1a22.82,22.82,0,0,0-6,3.53,23.08,23.08,0,0,0-4.61,5.19c-1,1.51-1.43,2.54-1.53,2.49a8.14,8.14,0,0,1,1.11-2.74,19.47,19.47,0,0,1,4.6-5.47,19.27,19.27,0,0,1,6.25-3.46A7.89,7.89,0,0,1,281.29,153.34Z" style="fill:#455a64"></path><path d="M321.22,154.63c.17,0-.28,3-2.62,5.75s-5.18,3.74-5.21,3.57,2.5-1.38,4.68-4S321,154.56,321.22,154.63Z" style="fill:#455a64"></path><path d="M310.94,236.44l30.15,17.73.19,105.55,7.44,57.22L247,416.63s-.32-76.63,0-97c.26-14.29-.12-42,4.71-59C253.81,253.38,274,244,274,244,285,253.74,297.39,250.83,310.94,236.44Z" style="fill:#407BFF"></path><path d="M278.3,372.18s60.84,29,67.52,22.43c-2.1-14-7.44-63.11-7.44-63.11L278.3,372.18" style="opacity:0.3"></path><path d="M240.34,346h75.72l.37-39.9,34.94-4.51s.16,40.52.16,53.82c0,15.95-13.79,27-25.36,25.33s-85.83-15.54-85.83-15.54Z" style="fill:#ffbe9d"></path><path d="M353.8,309.85l-40.72,4.23V266.3s4-16.14,18.06-15.47,22.36,15.9,22.66,29.85S353.8,309.85,353.8,309.85Z" style="fill:#407BFF"></path><path d="M256.06,255s-13.05,8.6-16.55,18.07c-3.67,9.94-8.82,42.15-8.82,42.15H249Z" style="fill:#407BFF"></path><path d="M312.72,268.2a10.15,10.15,0,0,1,0,1.74c0,1.21-.09,2.81-.15,4.75-.13,4-.25,9.54-.23,15.66s.18,11.65.33,15.66c.07,1.93.13,3.53.18,4.74a12.19,12.19,0,0,1,0,1.74,10.61,10.61,0,0,1-.22-1.73c-.1-1.11-.22-2.73-.34-4.74-.24-4-.46-9.54-.48-15.67s.16-11.67.38-15.68c.11-2,.22-3.62.31-4.74A13.14,13.14,0,0,1,312.72,268.2Z" style="fill:#263238"></path><path d="M333.24,251.61c0,.1-1.37-.27-3.58-.23a15.92,15.92,0,0,0-13.92,8.54c-1,1.95-1.32,3.32-1.41,3.29a2.76,2.76,0,0,1,.16-1,13.83,13.83,0,0,1,.92-2.5A15.42,15.42,0,0,1,329.66,251a13.84,13.84,0,0,1,2.65.31A3.23,3.23,0,0,1,333.24,251.61Z" style="fill:#263238"></path><path d="M247.67,277.52a1.8,1.8,0,0,1,.05.54l.05,1.55c0,1.34,0,3.28,0,5.68,0,4.8-.08,11.44-.22,18.76s-.28,13.89-.37,18.76c0,2.34-.09,4.26-.12,5.68,0,.62,0,1.13-.05,1.55a2,2,0,0,1-.06.54A2.34,2.34,0,0,1,247,330l0-1.55c0-1.34,0-3.29,0-5.69,0-4.8.08-11.43.22-18.76s.27-13.88.37-18.75c.05-2.34.09-4.27.12-5.69,0-.62,0-1.13.05-1.54A2.34,2.34,0,0,1,247.67,277.52Z" style="fill:#263238"></path><path d="M211.53,338.92l6.12-3.76a6.65,6.65,0,0,1,3.44-1h11.85l12.25,11.15,3.66,1.83-1.36,19.25-8-1s-17,.73-18.64-.37-4-4.56-4-4.56-9.34-3-10.24-3.84a6.09,6.09,0,0,1-2.06-3.85l-1.59-.72c-.3.56-2.62-3.22-2.38-5.12.14-1.1-.18-1.1-.18-1.1a4.54,4.54,0,0,1-2.93-3.65c-.16-1.13,4.44-.88,4.44-.88l11.51.15Z" style="fill:#ffbe9d"></path><polygon points="220.02 341.71 207.93 325.24 182.82 325.24 182.82 327.37 195.47 342.04 195.47 342.04 220.02 341.71" style="fill:#455a64"></polygon><path d="M216.51,347.29a8.71,8.71,0,0,1-2.41.32,39.5,39.5,0,0,1-5.88-.08,41.36,41.36,0,0,1-5.81-.92,9.85,9.85,0,0,1-2.32-.73,13.52,13.52,0,0,1,2.4.37c1.47.26,3.51.57,5.77.76s4.33.24,5.83.24A14.72,14.72,0,0,1,216.51,347.29Z" style="fill:#eb996e"></path><path d="M219.59,353.75a9.45,9.45,0,0,1-2.42.32,40.46,40.46,0,0,1-11.68-1,10,10,0,0,1-2.33-.72,12.83,12.83,0,0,1,2.4.36c1.47.26,3.51.57,5.78.77s4.33.24,5.82.23A14.15,14.15,0,0,1,219.59,353.75Z" style="fill:#eb996e"></path><path d="M197.48,341.68a11.12,11.12,0,0,0,.35,1.34,5.08,5.08,0,0,0,2.63,2.75l.08,0v.08a8.12,8.12,0,0,0,.84,3.77,7,7,0,0,0,3.34,3.27l.2.1-.09.18a1.72,1.72,0,0,0,0,1.47,3.88,3.88,0,0,0,1.05,1.29,14.09,14.09,0,0,0,3.21,1.84,45.87,45.87,0,0,0,7.84,2.46l.11,0,0,.09a14.54,14.54,0,0,0,2.41,2.7,7.49,7.49,0,0,0,3.14,1.85,10,10,0,0,0,2.8.29l2.82.07,5.42.15,9.79.27h0l11.66,2.37,3.25.7.84.2.29.09-.3,0-.86-.13-3.26-.58-11.7-2.2h0l-9.79-.21-5.43-.12-2.82-.07a10.53,10.53,0,0,1-2.92-.31,7.93,7.93,0,0,1-3.35-2,15.11,15.11,0,0,1-2.49-2.81l.16.11a45.08,45.08,0,0,1-7.92-2.52,14.52,14.52,0,0,1-3.3-1.93,4.22,4.22,0,0,1-1.16-1.46,2.09,2.09,0,0,1,0-1.81l.11.27a7.4,7.4,0,0,1-3.5-3.49,8.44,8.44,0,0,1-.8-3.93l.09.13a5.12,5.12,0,0,1-2.66-2.95A3.68,3.68,0,0,1,197.48,341.68Z" style="fill:#eb996e"></path><path d="M223.1,359.42a6.94,6.94,0,0,1-3.33,1.11,6.82,6.82,0,0,1-3.5-.19c0-.15,1.56-.07,3.43-.33S223,359.28,223.1,359.42Z" style="fill:#eb996e"></path><path d="M228.6,341.23a27,27,0,0,1-5.27.45,26,26,0,0,1-5.29-.07,27.76,27.76,0,0,1,5.27-.45A27,27,0,0,1,228.6,341.23Z" style="fill:#eb996e"></path><path d="M248.63,345.59a1.31,1.31,0,0,1-.75.3,3.4,3.4,0,0,1-2.13-.48,16.69,16.69,0,0,1-2.5-2l-2.92-2.55L235,336.27a16.44,16.44,0,0,1-2.16-2,15.86,15.86,0,0,1,2.39,1.68c1.43,1.1,3.37,2.67,5.45,4.48,1,.91,2,1.78,2.9,2.59a17.85,17.85,0,0,0,2.36,2,3.38,3.38,0,0,0,1.93.59C248.35,345.67,248.61,345.55,248.63,345.59Z" style="fill:#eb996e"></path></g><g id="freepik--character-2--inject-224"><g style="opacity:0.30000000000000004"><path d="M491.14,396.24a228.94,228.94,0,0,0-10.45-26.72c-1.32-2.83-2.7-6.18-1.23-8.94.59-1.1,1.59-2,2.05-3.13.7-1.75,0-3.72-.67-5.47-6.33-15.89-15.35-31.27-29-41.52a13.22,13.22,0,0,0-4.44-2.43,5.2,5.2,0,0,0-4.8.94L484,416.83c.55.61,11.25.26,12.62.24C497.41,417.05,491.39,397,491.14,396.24Z"></path></g><polygon points="367.17 303.8 374.82 301.48 408.13 300.49 415.64 302.54 414.65 320.85 397.66 331.68 381.19 331.35 370.82 321.91 368.53 312.55 367.17 303.8" style="fill:#ffbe9d"></polygon><path d="M463.31,332.62a110.9,110.9,0,0,0-6.77-12.11,30.18,30.18,0,0,0-17.38-12.65L412,300.49s-1.41,27.14-20.09,27.14-22.32-25.43-22.32-25.43l-31.44,12.53c-1.08.42-8.37,2.94-16.85,21.13-8.08,17.33-11.61,26.19-11.61,26.19l32.38,9.35,2,29.12-.68,16.63,98.27-.21-.54-19,.41-29.14,1.23,2,32.71-13.12S471.27,349,463.31,332.62Z" style="fill:#407BFF"></path><path d="M442.77,370.76a5.45,5.45,0,0,1,.63-.3l1.85-.78,6.95-2.85,24-9.65-.12.35c-1.95-3.7-4.05-7.69-6.21-11.81l-9-17c-2.88-5.14-5.1-10.08-8.33-13.18a29.45,29.45,0,0,0-8.62-6c-1.13-.52-2-.86-2.65-1.08l-.71-.24-.24-.1.25,0,.73.2a27.11,27.11,0,0,1,2.71,1,28.84,28.84,0,0,1,8.79,5.89,26.5,26.5,0,0,1,4.41,5.87c1.31,2.29,2.66,4.75,4.08,7.34,2.83,5.2,5.89,10.93,9.08,17l6.19,11.81.13.25-.26.1-24.06,9.49-7,2.71-1.88.7A4.33,4.33,0,0,1,442.77,370.76Z" style="fill:#263238"></path><path d="M442,350.22c.14,0,.06,10.53-.2,23.52s-.57,23.51-.71,23.51-.06-10.53.19-23.52S441.9,350.22,442,350.22Z" style="fill:#263238"></path><path d="M336.08,315.76a2.53,2.53,0,0,1-.42.31l-.53.35-.67.53a26.1,26.1,0,0,0-3.75,4,100.6,100.6,0,0,0-9.36,15.55c-3.22,6.33-5.84,12.22-7.69,16.49-.9,2.09-1.64,3.81-2.18,5.08l-.6,1.38a3.6,3.6,0,0,1-.23.47,1.68,1.68,0,0,1,.14-.51c.13-.38.3-.85.5-1.42.46-1.22,1.14-3,2-5.14,1.77-4.31,4.33-10.23,7.56-16.59a91.94,91.94,0,0,1,9.54-15.54,23.52,23.52,0,0,1,3.91-3.93l.71-.5.56-.31A1.83,1.83,0,0,1,336.08,315.76Z" style="fill:#263238"></path><path d="M337.16,344.27a4.39,4.39,0,0,1,.36,1.08c.2.7.46,1.73.77,3,.61,2.54,1.38,6.07,2.09,10s1.22,7.5,1.53,10.1c.15,1.3.26,2.35.32,3.08a4.52,4.52,0,0,1,0,1.14,5.42,5.42,0,0,1-.24-1.12c-.13-.83-.3-1.85-.49-3.05-.4-2.58-1-6.14-1.68-10.06s-1.41-7.46-1.93-10c-.24-1.2-.44-2.21-.61-3A5.67,5.67,0,0,1,337.16,344.27Z" style="fill:#263238"></path><path d="M427.3,266.25c-1.55.87-3.63-.25-4.33-1.88a7.55,7.55,0,0,1,.16-5.21,22.14,22.14,0,0,0,1.38-5.13,7.56,7.56,0,0,0-5.07-7.43,7.07,7.07,0,0,0,.49-10.18c-1.29-1.25-3-1.93-4.53-2.91a15.76,15.76,0,0,1-2.38-1.94,9.83,9.83,0,0,0,4.11.13,6.66,6.66,0,0,0,4.82-4.23,6,6,0,0,0-1.46-6.18,5.53,5.53,0,0,0-6.21-.92c-1.94,1-3,3.15-4,5.14l-.88,1.84c-2.74-3.63-5.32-7.38-9.55-8.66-3.83-1.15-7.95.14-11.95-.15-2.91-.21-5.7-1.26-8.6-1.58s-6.2.3-7.91,2.66c-1,1.39-1.32,3.19-2.34,4.56-2.1,2.85-6.62,3.23-8.35,6.32-1.4,2.51-.32,5.68-.93,8.49-.65,3-3.17,5.28-5.23,7.63s-3.86,5.57-2.7,8.48c1,2.55,4,3.93,5,6.5.71,1.88.2,4,.16,6s.77,4.39,2.72,4.84L382,278.28c7.66,3.11,15.56,6.28,23.83,6.26s17.09-4,20.35-11.57a4.76,4.76,0,0,1-3.19-1.43A8,8,0,0,0,427.3,266.25Z" style="fill:#263238"></path><path d="M409.08,273.23a103.58,103.58,0,0,0,4.48-17.2,36.11,36.11,0,0,0-1.41-17.55c-.32-.84-3-6.5-3.88-6.41-.64.07,1,5.34.68,5.9-3.09,5.3-3.93,11.67-3.43,17.78a79.79,79.79,0,0,0,3.56,17.48" style="fill:#263238"></path><path d="M389.44,322.52c9.19-.19,19.62-20.29,19.62-20.29l.6-51.63c.48-14.87-7.77-27.54-22.64-27.61l-1.38.07a26.59,26.59,0,0,0-25.16,25.84c-.35,12.89-.57,27.13-.11,34,.94,14.24,15.31,15.7,15.31,15.7s.08,3.3.13,7.49c.1,9.41,9.94,16.74,13.63,16.42Z" style="fill:#ffbe9d"></path><path d="M375.68,298.61A34.52,34.52,0,0,0,394,292.12s-4,10.61-18.26,10.09Z" style="fill:#eb996e"></path><path d="M366.63,260.08A2,2,0,0,0,368.7,262a2,2,0,0,0,2-1.95,2,2,0,0,0-2.07-1.95A2,2,0,0,0,366.63,260.08Z" style="fill:#263238"></path><path d="M363.84,254.65c.27.25,1.75-1,3.94-1.08s3.86.89,4.08.61c.11-.12-.17-.59-.9-1.06a5.6,5.6,0,0,0-3.28-.82,5.35,5.35,0,0,0-3.12,1.19C363.91,254,363.71,254.54,363.84,254.65Z" style="fill:#263238"></path><path d="M386.36,259.56a2.05,2.05,0,0,0,2.07,1.95,2,2,0,0,0,2-1.95,2,2,0,0,0-2.07-1.95A2,2,0,0,0,386.36,259.56Z" style="fill:#263238"></path><path d="M385.34,254.39c.27.25,1.75-1,3.94-1.09s3.86.9,4.08.62c.11-.13-.17-.59-.9-1.06a5.67,5.67,0,0,0-3.28-.83,5.38,5.38,0,0,0-3.12,1.2C385.42,253.78,385.21,254.27,385.34,254.39Z" style="fill:#263238"></path><path d="M378.39,271.64a14.08,14.08,0,0,0-3.59-.45c-.56,0-1.1-.12-1.21-.49a2.77,2.77,0,0,1,.28-1.68c.45-1.38.93-2.83,1.43-4.35,2-6.18,3.36-11.26,3.11-11.34s-2.05,4.88-4,11.07L373,268.76a3.25,3.25,0,0,0-.18,2.22,1.39,1.39,0,0,0,1,.76,3.68,3.68,0,0,0,.95.08A14.31,14.31,0,0,0,378.39,271.64Z" style="fill:#263238"></path><path d="M384.92,272.81c-.36,0-.24,2.37-2.18,4.17s-4.49,1.67-4.49,2c0,.15.59.43,1.66.41a5.91,5.91,0,0,0,3.75-1.54,5.16,5.16,0,0,0,1.68-3.49C385.38,273.36,385.08,272.78,384.92,272.81Z" style="fill:#263238"></path><path d="M385,245.49c.25.58,2.42.19,5,.36s4.71.76,5,.21c.14-.27-.25-.81-1.12-1.34a8.7,8.7,0,0,0-7.64-.43C385.33,244.72,384.88,245.21,385,245.49Z" style="fill:#263238"></path><path d="M364.36,247.32c.41.48,1.89-.12,3.7-.24s3.37.15,3.7-.39c.14-.26-.13-.74-.83-1.18a5.38,5.38,0,0,0-6,.51C364.36,246.56,364.17,247.09,364.36,247.32Z" style="fill:#263238"></path><path d="M409.06,261.22c.24-.12,9.64-3.43,9.85,6.34s-9.63,7.95-9.65,7.68S409.06,261.22,409.06,261.22Z" style="fill:#ffbe9d"></path><path d="M412.16,271.47s.17.12.46.24a1.67,1.67,0,0,0,1.27,0c1-.4,1.86-2,1.87-3.81a5.74,5.74,0,0,0-.53-2.43,2,2,0,0,0-1.31-1.28.87.87,0,0,0-1,.49c-.13.28-.06.47-.11.49s-.22-.16-.15-.56a1.08,1.08,0,0,1,.38-.62,1.26,1.26,0,0,1,.93-.27,2.38,2.38,0,0,1,1.81,1.47,5.93,5.93,0,0,1,.65,2.71c0,2-1,3.83-2.39,4.27a1.81,1.81,0,0,1-1.56-.23C412.18,271.71,412.12,271.49,412.16,271.47Z" style="fill:#eb996e"></path><path d="M366.59,232.64c-1.59-.85,3.08-6,6.94-7.84,5.84-2.73,14.78-4.49,20.21-3,6.53,1.76,12,4.93,15.33,10.82a38.41,38.41,0,0,1,4.57,19.55,11.76,11.76,0,0,1-1.3,6c-1.34,2.18-3.94,3.57-3.79,6.55a4.09,4.09,0,0,1-1,3c-1.76,1.92-4,.16-5-1.61-2.19-3.8-2.49-8.36-2.74-12.74-.17-3.11-.34-6.29.5-9.29.46-1.63,1.21-3.18,1.57-4.84a5.86,5.86,0,0,0-.75-4.86,6,6,0,0,0-.8-.79,10.19,10.19,0,0,0-10.13-1.8c-5.47,2-14.82,5-17.3,3.21-3.56-2.64-4.43-4.38-4.43-4.38Z" style="fill:#263238"></path><path d="M393.21,220.46a21.46,21.46,0,0,0-16.48,1.11c-2.65,1.42-5,3.66-5.8,6.56s.5,6.44,3.3,7.54l.19.12c4.18,1.35,6.88.76,11-.74,3.47-1.25,6.55-3.45,10-4.68a19.82,19.82,0,0,1,11.61-.49A32.34,32.34,0,0,0,393.21,220.46Z" style="fill:#263238"></path><path d="M411.77,230.11c-.08.07-.87-.86-2.45-2a14,14,0,0,0-3-1.58,9.08,9.08,0,0,0-4-.67,13.34,13.34,0,0,0-6.81,2.81c-1.51,1.2-2.21,2.2-2.3,2.13s.1-.3.42-.75a10.67,10.67,0,0,1,1.58-1.74,12.7,12.7,0,0,1,7.05-3.1,9.23,9.23,0,0,1,4.25.76,12.58,12.58,0,0,1,3,1.77A7.15,7.15,0,0,1,411.77,230.11Z" style="fill:#455a64"></path><path d="M412.75,233.57a8.27,8.27,0,0,1-.75,2.79,20.31,20.31,0,0,1-9.11,10.26,8.15,8.15,0,0,1-2.68,1.07c-.11-.19,4.1-1.79,7.65-5.84S412.55,233.48,412.75,233.57Z" style="fill:#455a64"></path><path d="M416.72,235.15a3.35,3.35,0,0,1,0,1.11,17.46,17.46,0,0,1-.43,3,20.39,20.39,0,0,1-12.68,14.55,16.46,16.46,0,0,1-2.92.83,3.37,3.37,0,0,1-1.1.12c0-.12,1.53-.39,3.84-1.38a21.44,21.44,0,0,0,12.41-14.23C416.55,236.72,416.6,235.14,416.72,235.15Z" style="fill:#455a64"></path><path d="M382,219.57a24.22,24.22,0,0,1-2.59,1,21.21,21.21,0,0,0-10,8.25c-.92,1.43-1.35,2.4-1.45,2.36a7.55,7.55,0,0,1,1-2.59,18.53,18.53,0,0,1,10.26-8.45A7.6,7.6,0,0,1,382,219.57Z" style="fill:#455a64"></path><path d="M419.78,220.79c.16,0-.26,2.83-2.47,5.43s-4.9,3.54-4.93,3.38,2.37-1.3,4.43-3.8S419.59,220.73,419.78,220.79Z" style="fill:#455a64"></path><path d="M312.48,362.86,299.31,389.3a19.26,19.26,0,0,0-2,9.52h0a19.26,19.26,0,0,0,19.24,18.33L354.32,415,356,397.74l-28.74-6.93,10.9-20.59Z" style="fill:#ffbe9d"></path><path d="M327.23,390.81c0,.12-1.3-.1-3.39-.09a26.37,26.37,0,0,0-8,1.41,24.28,24.28,0,0,0-7.14,3.79c-1.63,1.28-2.4,2.34-2.49,2.27s.13-.3.47-.79a12.82,12.82,0,0,1,1.73-1.84,21.43,21.43,0,0,1,7.22-4.05,23,23,0,0,1,8.18-1.25,16.06,16.06,0,0,1,2.49.3C326.93,390.68,327.24,390.76,327.23,390.81Z" style="fill:#eb996e"></path><path d="M301.9,384.62a3.49,3.49,0,0,1,.24-.93c.18-.59.49-1.43.9-2.45a72.41,72.41,0,0,1,3.8-7.75c1.65-2.94,3.22-5.54,4.34-7.43a29.44,29.44,0,0,1,1.89-3,3.45,3.45,0,0,1-.37.89c-.26.56-.67,1.35-1.2,2.32-1,1.94-2.56,4.58-4.2,7.51s-3,5.63-3.92,7.63S302,384.65,301.9,384.62Z" style="fill:#eb996e"></path><path d="M338.59,370a8,8,0,0,1-.62,2,39.41,39.41,0,0,1-4.92,8.89,7.74,7.74,0,0,1-1.38,1.6c-.12-.1,1.77-2.68,3.67-6.14S338.44,370,338.59,370Z" style="fill:#eb996e"></path><path d="M473.8,358.31s8.18,24.27,17.08,46.33c.18.45.38,1.26.54,1.72,2,5.46-4,10.79-10.14,10.79l-51.49-.08V400.33l32-6.8-11.6-25.76Z" style="fill:#ffbe9d"></path><path d="M482.2,398.44c-.07.09-1.07-.7-2.85-1.73A27,27,0,0,0,464,393.23c-2,.16-3.3.44-3.32.33a2.57,2.57,0,0,1,.85-.31,16.39,16.39,0,0,1,2.43-.48,23.86,23.86,0,0,1,8.14.41,23.48,23.48,0,0,1,7.51,3.14,16.33,16.33,0,0,1,2,1.47C482,398.18,482.23,398.41,482.2,398.44Z" style="fill:#eb996e"></path><path d="M473.8,358.31a2.68,2.68,0,0,1,.28.6l.7,1.76,2.48,6.5,8,21.51c1.52,4.21,3.1,8.18,4.38,11.85.64,1.83,1.24,3.58,1.76,5.23.13.41.26.82.38,1.22s.18.83.27,1.23,0,.83,0,1.22a7.92,7.92,0,0,1-.25,1.14,7.77,7.77,0,0,1-2.28,3.29,13.22,13.22,0,0,1-2.46,1.73,13.81,13.81,0,0,1-1.71.83,3.5,3.5,0,0,1-.63.21,4.38,4.38,0,0,1,.58-.31c.39-.19,1-.48,1.65-.9a13.4,13.4,0,0,0,2.37-1.78,7.56,7.56,0,0,0,2.13-3.18,7.24,7.24,0,0,0,.21-1.07c0-.36,0-.75,0-1.13s-.16-.76-.27-1.16l-.39-1.21c-.54-1.63-1.15-3.37-1.81-5.2-1.29-3.65-2.89-7.61-4.41-11.83l-7.86-21.56c-1-2.73-1.75-4.95-2.32-6.56L474,359A4.31,4.31,0,0,1,473.8,358.31Z" style="fill:#eb996e"></path><path d="M450.22,367.77s.11.15.25.44l.63,1.29,2.22,4.8c1.85,4.07,4.37,9.69,7.13,15.92.44,1,.87,2,1.29,2.93l.12.28-.3.07L446.68,397l-4.44,1a11.94,11.94,0,0,1-1.62.3,9.6,9.6,0,0,1,1.58-.48l4.4-1.13L461.44,393l-.17.36-1.3-2.93c-2.76-6.22-5.23-11.88-7-16l-2.07-4.86-.53-1.34A2.31,2.31,0,0,1,450.22,367.77Z" style="fill:#eb996e"></path><path d="M348.58,396.74H356s16.68-6,20.11-5.46c3.09.52,14.4,8,16.62,9.52a1.47,1.47,0,0,1,.54.69h0a2.43,2.43,0,0,1-1.35,3.08l-.24.1.1.33a3.8,3.8,0,0,1,.17,1.35,1.63,1.63,0,0,1-3,.71l.43.75a1.9,1.9,0,0,1,.24,1l0,.69a1.86,1.86,0,0,1-1.28,1.66h0a1.85,1.85,0,0,1-1.94-.51c-1.44-1.58-4.54-4.74-6.63-5.09a49,49,0,0,0-6.85-.34,2.32,2.32,0,0,0-2.15,1.48h0c1.24.09,9.91,4.61,13,6.23a3.26,3.26,0,0,1,1.78,2.46c.11,1-.37,2-2.27,1.53-4.08-.95-11.41-4.33-11.41-4.33s-3.78-1.08-6.23.65c-3.45,2.43-5,3.33-8,2.34a25.15,25.15,0,0,1-5.15-2.39l-5.83-.58S341,398.85,348.58,396.74Z" style="fill:#ffbe9d"></path><path d="M370.61,399.55c0,.07,1.18-.31,3.13-.43a16.16,16.16,0,0,1,13.48,5.75c1.26,1.5,1.8,2.6,1.86,2.57a5,5,0,0,0-.37-.78,15,15,0,0,0-1.31-1.93,15.69,15.69,0,0,0-13.68-5.83,13.26,13.26,0,0,0-2.3.39A3.65,3.65,0,0,0,370.61,399.55Z" style="fill:#eb996e"></path><path d="M372.37,395.5a12.63,12.63,0,0,1,10.85,1.58,30.75,30.75,0,0,1,6.12,5.17L391,404a7.43,7.43,0,0,0,.64.64,4.33,4.33,0,0,0-.55-.72c-.36-.44-.91-1.08-1.6-1.85a28.17,28.17,0,0,0-6.12-5.29,13.87,13.87,0,0,0-7.75-2.1,9.22,9.22,0,0,0-2.43.44,6.37,6.37,0,0,0-.62.24A.72.72,0,0,0,372.37,395.5Z" style="fill:#eb996e"></path><path d="M440.62,397.26h-7.39s-16.69-6-20.12-5.45c-3.09.51-14.4,8-16.61,9.52a1.34,1.34,0,0,0-.54.68h0a2.42,2.42,0,0,0,1.35,3.08l.23.1-.1.33a4.31,4.31,0,0,0-.17,1.35,1.63,1.63,0,0,0,3,.71l-.42.76a1.78,1.78,0,0,0-.24,1l0,.69A1.86,1.86,0,0,0,401,411.7h0a1.85,1.85,0,0,0,1.94-.51c1.43-1.58,4.53-4.74,6.63-5.09a48.9,48.9,0,0,1,6.84-.34,2.32,2.32,0,0,1,2.16,1.48h0c-1.25.09-9.91,4.61-13,6.23a3.29,3.29,0,0,0-1.79,2.47c-.11,1,.38,2,2.28,1.52,4.07-.95,11.41-4.32,11.41-4.32s3.78-1.09,6.23.64c3.45,2.44,5,3.33,8,2.35a25.52,25.52,0,0,0,5.14-2.39l5.84-.59S448.16,399.37,440.62,397.26Z" style="fill:#ffbe9d"></path><path d="M418.59,400.07c0,.07-1.18-.31-3.13-.43A16.2,16.2,0,0,0,402,405.39a29.86,29.86,0,0,0-1.85,2.57,3.25,3.25,0,0,1,.37-.77,14,14,0,0,1,1.31-1.94,15.66,15.66,0,0,1,13.67-5.83,14.47,14.47,0,0,1,2.31.39A4.47,4.47,0,0,1,418.59,400.07Z" style="fill:#eb996e"></path><path d="M416.82,396a14.18,14.18,0,0,0-3.26-.57A14.33,14.33,0,0,0,406,397.6a31,31,0,0,0-6.11,5.17l-1.68,1.79a4.47,4.47,0,0,1-.64.63,5.19,5.19,0,0,1,.55-.72c.37-.44.91-1.08,1.61-1.85a28.08,28.08,0,0,1,6.11-5.29,13.9,13.9,0,0,1,7.76-2.1,9.21,9.21,0,0,1,2.42.44c.28.08.48.19.63.24S416.83,396,416.82,396Z" style="fill:#eb996e"></path><path d="M430.62,417.63H353a4.13,4.13,0,0,1-4.12-3.94l-2.32-53.41a4.12,4.12,0,0,1,4.11-4.3h82.1a4.11,4.11,0,0,1,4.11,4.29l-2.17,53.4A4.13,4.13,0,0,1,430.62,417.63Z" style="fill:#e0e0e0"></path><path d="M396,387.75a4.25,4.25,0,1,1-4.25-4.25A4.25,4.25,0,0,1,396,387.75Z" style="fill:#fff"></path></g><g id="freepik--Envelope--inject-224"><path d="M172.19,279.3l44.73-.2a.66.66,0,0,1,.67.64l1.15,29.95a.67.67,0,0,1-.68.7l-46.29-.56a.67.67,0,0,1-.66-.68l.42-29.19A.66.66,0,0,1,172.19,279.3Z" style="fill:#407BFF"></path><path d="M171.53,279.3l21.84-17.57a2.5,2.5,0,0,1,3.16,0l21,17.35" style="fill:#407BFF"></path><g style="opacity:0.30000000000000004"><path d="M177.63,279.38l16.06-12.92a1.84,1.84,0,0,1,2.32,0l15.47,12.76"></path></g><g style="opacity:0.5"><polyline points="217.57 279.1 194.4 297.5 171.53 279.3"></polyline></g><polygon points="173.85 281.01 173.81 270.99 214.48 271.11 214.54 281.4 194.4 297.26 173.85 281.01" style="fill:#fafafa"></polygon><path d="M173.85,281l.38.29,1.09.86,4.17,3.28,14.93,11.78h0l20.13-15.86v0c0-1.46,0-3,0-4.59,0-1.93,0-3.84,0-5.71l0,0L173.8,271l0,0c0,3.17,0,5.67,0,7.39V281s0-.06,0-.17v-.51c0-.44,0-1.1,0-2,0-1.71,0-4.22-.05-7.39v0h0l40.67.1h0v0c0,1.87,0,3.78,0,5.71,0,1.57,0,3.13,0,4.59h0l0,0-20.14,15.84,0,0,0,0-14.93-11.81-4.14-3.29-1.09-.87Z" style="fill:#263238"></path><path d="M204.17,277.55s-4.57.06-10.21.09-10.21,0-10.21,0,4.57-.07,10.21-.1S204.17,277.53,204.17,277.55Z" style="fill:#263238"></path><path d="M207.71,282.24s-6.16.06-13.77.08-13.77,0-13.77,0,6.17-.06,13.77-.09S207.71,282.22,207.71,282.24Z" style="fill:#263238"></path><path d="M207.7,286.92s-5.88.06-13.14.08-13.13,0-13.13,0,5.88-.05,13.13-.08S207.7,286.9,207.7,286.92Z" style="fill:#263238"></path><path d="M202.53,291h-.62l-1.71,0-5.62.06c-2.19,0-4.18,0-5.62,0h0l5.62-.07c2.2,0,4.18,0,5.62,0h2.33Z" style="fill:#263238"></path><path d="M197.33,295s-1.31,0-2.94,0-2.93,0-2.93-.05,1.31,0,2.93,0S197.33,294.93,197.33,295Z" style="fill:#263238"></path><path d="M218.48,310.24l-.12-.05L218,310l-1.38-.74-5-2.78-7.44-4.14-4.39-2.45-2.32-1.3-.6-.33c-.19-.11-.39-.23-.59-.33a4.31,4.31,0,0,0-1.28-.38,4.18,4.18,0,0,0-2.58.46l-2.32,1.29-4.39,2.46-7.44,4.15-5,2.78-1.37.74-.36.19-.13.06.12-.08.35-.21,1.35-.78,5-2.85,7.41-4.19L190,299.1l2.32-1.3a4.49,4.49,0,0,1,2.73-.49,4.59,4.59,0,0,1,1.35.41l.6.33.59.33,2.32,1.3,4.39,2.47,7.42,4.18,5,2.84L218,310l.35.21C218.45,310.21,218.49,310.24,218.48,310.24Z" style="fill:#263238"></path></g><g id="freepik--Document--inject-224"><rect x="59.76" y="208.93" width="51.56" height="70.55" transform="translate(-29.18 12.27) rotate(-7.01)" style="fill:#fff"></rect><path d="M115.44,276.07s0-.12-.06-.34-.08-.57-.14-1c-.11-.89-.28-2.17-.49-3.82-.43-3.35-1-8.22-1.84-14.38-1.54-12.32-3.73-29.79-6.32-50.46l.26.2L55.69,212.6h0l.22-.29c3.2,26.16,6.17,50.38,8.57,70l-.23-.18,37.17-4.46,10.35-1.22,2.72-.31,1-.1-.91.14-2.68.35-10.29,1.32-37.27,4.7-.21,0,0-.21c-2.44-19.65-5.43-43.86-8.67-70l0-.25.26,0h0l51.17-6.27.23,0,0,.23c2.51,20.75,4.62,38.28,6.12,50.64.72,6.14,1.3,11,1.7,14.34.19,1.64.33,2.91.43,3.79,0,.41.08.73.11,1Z" style="fill:#263238"></path><path d="M88.67,222.57c0,.14-5.53.94-12.4,1.78s-12.45,1.42-12.46,1.28,5.53-.94,12.4-1.79S88.66,222.43,88.67,222.57Z" style="fill:#263238"></path><path d="M102.87,227c0,.14-8.54,1.31-19.12,2.61s-19.18,2.24-19.19,2.1,8.54-1.31,19.12-2.61S102.86,226.86,102.87,227Z" style="fill:#263238"></path><path d="M103.65,233.34c0,.15-8.54,1.32-19.12,2.62s-19.18,2.24-19.19,2.1,8.54-1.31,19.12-2.61S103.64,233.2,103.65,233.34Z" style="fill:#263238"></path><path d="M104.43,239.69c0,.14-8.54,1.31-19.12,2.61s-19.17,2.25-19.19,2.11,8.54-1.31,19.13-2.62S104.42,239.55,104.43,239.69Z" style="fill:#263238"></path><path d="M105.22,246c0,.14-8.55,1.31-19.13,2.61s-19.17,2.25-19.19,2.1,8.54-1.31,19.13-2.61S105.2,245.9,105.22,246Z" style="fill:#263238"></path><path d="M106,252.39c0,.14-8.55,1.31-19.13,2.61s-19.17,2.24-19.19,2.1,8.55-1.31,19.13-2.61S106,252.25,106,252.39Z" style="fill:#263238"></path><path d="M106.78,258.74c0,.14-8.55,1.31-19.13,2.61s-19.17,2.24-19.19,2.1,8.55-1.31,19.13-2.61S106.76,258.59,106.78,258.74Z" style="fill:#263238"></path><path d="M89.84,267.26a100.24,100.24,0,0,1-10.27,1.53c-5.69.7-10.31,1.15-10.33,1s4.58-.82,10.27-1.52S89.82,267.12,89.84,267.26Z" style="fill:#263238"></path><circle cx="110.31" cy="271.31" r="10.47" transform="translate(-123.92 95.49) rotate(-30.98)" style="fill:#407BFF"></circle><path d="M115.78,266.58c.5.36-1.19,3.52-3.76,7.05-.42.57-.83,1.12-1.22,1.62l-.63.8-.79-.52c-2.85-1.85-4.77-3.51-4.51-3.95s2.63.47,5.61,2.11l-1.42.29c.36-.53.75-1.09,1.16-1.66C112.8,268.79,115.29,266.22,115.78,266.58Z" style="fill:#fff"></path></g><g id="freepik--Chart--inject-224"><rect x="627.76" y="214.64" width="97.6" height="75.96" style="fill:#fff"></rect><path d="M725.36,290.6c0-.75,0-30.12-.09-76l.09.09-97.59,0h0l.11-.11c0,27.38,0,53.28,0,76l-.1-.1,97.6.1-97.6.1h-.1v-.1c0-22.68,0-48.58,0-76v-.11h.12l97.59,0h.09v.09C725.4,260.48,725.36,289.85,725.36,290.6Z" style="fill:#263238"></path><path d="M656.6,281.3c-.06,0-.11-7.67-.11-17.12s0-17.12.11-17.12.11,7.66.11,17.12S656.66,281.3,656.6,281.3Z" style="fill:#263238"></path><path d="M695.93,281.3c-.06,0-.11-7.67-.11-17.12s0-17.12.11-17.12.11,7.66.11,17.12S696,281.3,695.93,281.3Z" style="fill:#263238"></path><path d="M670,281.3c-.06,0-.11-9.8-.11-21.89s.05-21.88.11-21.88.11,9.8.11,21.88S670.09,281.3,670,281.3Z" style="fill:#263238"></path><path d="M642.81,281.3c-.06,0-.11-9.8-.11-21.89s0-21.88.11-21.88.11,9.8.11,21.88S642.88,281.3,642.81,281.3Z" style="fill:#263238"></path><path d="M711.36,281.3c-.06,0-.11-9.8-.11-21.89s0-21.88.11-21.88.11,9.8.11,21.88S711.42,281.3,711.36,281.3Z" style="fill:#263238"></path><path d="M681.8,281.3c-.06,0-.11-11.32-.11-25.27s0-25.27.11-25.27.11,11.31.11,25.27S681.86,281.3,681.8,281.3Z" style="fill:#263238"></path><path d="M656.92,247.06a.32.32,0,0,1-.32.32.32.32,0,1,1,0-.64A.32.32,0,0,1,656.92,247.06Z" style="fill:#263238"></path><path d="M670.35,237.53a.32.32,0,1,1-.32-.32A.32.32,0,0,1,670.35,237.53Z" style="fill:#263238"></path><path d="M670,238.67a1.14,1.14,0,1,1,1.14-1.14A1.14,1.14,0,0,1,670,238.67Zm0-2.18a1,1,0,1,0,1,1A1,1,0,0,0,670,236.49Z" style="fill:#407BFF"></path><path d="M682.12,230.76a.32.32,0,1,1-.32-.32A.32.32,0,0,1,682.12,230.76Z" style="fill:#263238"></path><path d="M696.25,247.38a.32.32,0,1,1-.32-.32A.32.32,0,0,1,696.25,247.38Z" style="fill:#263238"></path><path d="M711.69,237.53a.32.32,0,1,1-.32-.32A.32.32,0,0,1,711.69,237.53Z" style="fill:#263238"></path><path d="M643.14,237.85a.33.33,0,1,1-.33-.32A.32.32,0,0,1,643.14,237.85Z" style="fill:#263238"></path><path d="M714.4,253s-.35.09-1,.35a7.15,7.15,0,0,0-2.32,1.78c-.87,1-1.74,2.28-2.84,3.77a18.44,18.44,0,0,1-1.94,2.26,10.16,10.16,0,0,1-1.26,1.05,9.37,9.37,0,0,1-1.53.84,8.54,8.54,0,0,1-3.66.62,9.55,9.55,0,0,1-2-.24,5.06,5.06,0,0,1-1.92-.84,6.18,6.18,0,0,1-1.5-1.56c-.42-.6-.78-1.22-1.14-1.86-.71-1.28-1.44-2.55-2.27-3.84s-1.58-2.69-2.43-4a20,20,0,0,0-2.95-3.81,8.56,8.56,0,0,0-2-1.4,7.76,7.76,0,0,0-1.12-.46l-.6-.13-.3-.07a3,3,0,0,0-.31,0,8.46,8.46,0,0,0-4.85,1,12.34,12.34,0,0,0-3.7,3.46,36.75,36.75,0,0,0-2.67,4.28,29,29,0,0,1-5.75,7.8,9.79,9.79,0,0,1-4,2.22,7.57,7.57,0,0,1-2.21.24,8.2,8.2,0,0,1-2.11-.39,14.39,14.39,0,0,1-3.55-1.86c-1-.73-2-1.48-2.95-2.16a15.55,15.55,0,0,0-2.78-1.69,9,9,0,0,0-2.77-.79,6.72,6.72,0,0,0-2.48.15,4.84,4.84,0,0,0-.54.17,3.72,3.72,0,0,0-.5.2,5.79,5.79,0,0,0-.89.48,10.47,10.47,0,0,0-1.33,1.05c-.32.37-.63.66-.84.93a6.87,6.87,0,0,1-.65.81,6,6,0,0,1,.55-.89c.19-.29.48-.6.8-1a10.81,10.81,0,0,1,1.33-1.13,7.07,7.07,0,0,1,.9-.52,3.11,3.11,0,0,1,.53-.22,4.61,4.61,0,0,1,.56-.2,6.87,6.87,0,0,1,2.6-.21,9.48,9.48,0,0,1,2.9.77,15.86,15.86,0,0,1,2.88,1.7c1,.67,1.92,1.41,3,2.11a13.65,13.65,0,0,0,3.44,1.77,8.06,8.06,0,0,0,2,.35,7.08,7.08,0,0,0,2-.24,9.47,9.47,0,0,0,3.75-2.12,28.33,28.33,0,0,0,5.58-7.66,40.62,40.62,0,0,1,2.71-4.36,13.12,13.12,0,0,1,3.91-3.64,9.09,9.09,0,0,1,5.24-1.11c.11,0,.23,0,.34,0l.33.07c.22,0,.44.09.65.15a7.51,7.51,0,0,1,1.24.51,8.68,8.68,0,0,1,2.12,1.51,20.53,20.53,0,0,1,3.05,3.94c.85,1.38,1.6,2.76,2.41,4.05s1.57,2.62,2.26,3.89a9.59,9.59,0,0,0,2.44,3.25,4.49,4.49,0,0,0,1.73.77,8.5,8.5,0,0,0,1.87.25,8.21,8.21,0,0,0,3.46-.54,8.46,8.46,0,0,0,1.46-.78,9.94,9.94,0,0,0,1.22-1,17.55,17.55,0,0,0,1.94-2.18,46.39,46.39,0,0,1,2.94-3.71,6.66,6.66,0,0,1,2.46-1.73,4.11,4.11,0,0,1,.76-.2A.86.86,0,0,1,714.4,253Z" style="fill:#407BFF"></path><rect x="642.49" y="224.62" width="15.8" height="0.88" style="fill:#263238"></rect><rect x="642.49" y="226.68" width="7.81" height="0.88" style="fill:#263238"></rect><rect x="627.76" y="212.43" width="97.6" height="6.1" style="fill:#263238"></rect></g><g id="freepik--Desk--inject-224"><path d="M653.08,417.07c0,.14-124.51.26-278.07.26s-278.09-.12-278.09-.26,124.48-.26,278.09-.26S653.08,416.92,653.08,417.07Z" style="fill:#263238"></path></g></svg>