<?xml version="1.0" encoding="UTF-8" standalone="no"?>
<!-- Created with Inkscape (http://www.inkscape.org/) -->

<svg
   version="1.1"
   id="svg2"
   xml:space="preserve"
   width="666.66669"
   height="496.81332"
   viewBox="0 0 666.66669 496.81332"
   sodipodi:docname="5187553.eps"
   xmlns:inkscape="http://www.inkscape.org/namespaces/inkscape"
   xmlns:sodipodi="http://sodipodi.sourceforge.net/DTD/sodipodi-0.dtd"
   xmlns="http://www.w3.org/2000/svg"
   xmlns:svg="http://www.w3.org/2000/svg"><defs
     id="defs6" /><sodipodi:namedview
     id="namedview4"
     pagecolor="#ffffff"
     bordercolor="#666666"
     borderopacity="1.0"
     inkscape:pageshadow="2"
     inkscape:pageopacity="0.0"
     inkscape:pagecheckerboard="0" /><g
     id="g8"
     inkscape:groupmode="layer"
     inkscape:label="ink_ext_XXXXXX"
     transform="matrix(1.3333333,0,0,-1.3333333,0,496.81333)"><g
       id="g10"
       transform="scale(0.1)"><path
         d="m 0,449.129 h 5000 v 2.5 H 0 Z"
         style="fill:#eeeeee;fill-opacity:1;fill-rule:nonzero;stroke:none"
         id="path12" /><path
         d="m 4167.79,290.672 h 331.22 v -2.5 h -331.22 v 2.5"
         style="fill:#eeeeee;fill-opacity:1;fill-rule:nonzero;stroke:none"
         id="path14" /><path
         d="m 3225.27,263.539 h 86.93 v -2.5 h -86.93 v 2.5"
         style="fill:#eeeeee;fill-opacity:1;fill-rule:nonzero;stroke:none"
         id="path16" /><path
         d="m 3965.86,383.539 h 191.92 v -2.5 h -191.92 v 2.5"
         style="fill:#eeeeee;fill-opacity:1;fill-rule:nonzero;stroke:none"
         id="path18" /><path
         d="m 524.59,366.73 h 431.933 v -2.5 H 524.59 v 2.5"
         style="fill:#eeeeee;fill-opacity:1;fill-rule:nonzero;stroke:none"
         id="path20" /><path
         d="m 1045.56,366.73 h 63.33 v -2.5 h -63.33 v 2.5"
         style="fill:#eeeeee;fill-opacity:1;fill-rule:nonzero;stroke:none"
         id="path22" /><path
         d="m 1314.71,322.012 h 936.758 v 2.5 H 1314.71 Z"
         style="fill:#eeeeee;fill-opacity:1;fill-rule:nonzero;stroke:none"
         id="path24" /><path
         d="m 439.152,3723.59 c -30.101,0 -54.582,-24.48 -54.582,-54.57 V 954.699 c 0,-30.097 24.481,-54.578 54.582,-54.578 H 2370.14 c 30.08,0 54.57,24.481 54.57,54.578 V 3669.02 c 0,30.09 -24.49,54.57 -54.57,54.57 H 439.152 M 2370.14,897.621 H 439.152 c -31.476,0 -57.082,25.598 -57.082,57.078 V 3669.02 c 0,31.46 25.606,57.07 57.082,57.07 H 2370.14 c 31.46,0 57.07,-25.61 57.07,-57.07 V 954.699 c 0,-31.48 -25.61,-57.078 -57.07,-57.078"
         style="fill:#eeeeee;fill-opacity:1;fill-rule:nonzero;stroke:none"
         id="path26" /><path
         d="m 2602.12,3723.59 c -30.09,0 -54.57,-24.48 -54.57,-54.57 V 954.699 c 0,-30.097 24.48,-54.578 54.57,-54.578 h 1930.99 c 30.09,0 54.58,24.481 54.58,54.578 V 3669.02 c 0,30.09 -24.49,54.57 -54.58,54.57 H 2602.12 M 4533.11,897.621 H 2602.12 c -31.47,0 -57.07,25.598 -57.07,57.078 V 3669.02 c 0,31.46 25.6,57.07 57.07,57.07 h 1930.99 c 31.47,0 57.08,-25.61 57.08,-57.07 V 954.699 c 0,-31.48 -25.61,-57.078 -57.08,-57.078"
         style="fill:#eeeeee;fill-opacity:1;fill-rule:nonzero;stroke:none"
         id="path28" /><path
         d="m 2707.58,462.379 h 1353.05 v 1983.76 H 2707.58 Z"
         style="fill:#f4f4f4;fill-opacity:1;fill-rule:nonzero;stroke:none"
         id="path30" /><path
         d="m 2755.4,2017.31 h 1257.4 v 366.383 H 2755.4 Z"
         style="fill:#e3e3e2;fill-opacity:1;fill-rule:nonzero;stroke:none"
         id="path32" /><path
         d="m 3941.37,2017.31 h 71.4297 v 307.07 H 3941.37 Z"
         style="fill:#eeeeee;fill-opacity:1;fill-rule:nonzero;stroke:none"
         id="path34" /><path
         d="m 3595.99,2017.31 h 71.4336 v 307.07 H 3595.99 Z"
         style="fill:#eeeeee;fill-opacity:1;fill-rule:nonzero;stroke:none"
         id="path36" /><path
         d="m 3151.74,2029.44 70.39,-12.13 52.15,302.61 -70.39,12.13 -52.15,-302.61"
         style="fill:#eeeeee;fill-opacity:1;fill-rule:nonzero;stroke:none"
         id="path38" /><path
         d="m 3852.86,2017.31 h 71.4297 v 266.602 H 3852.86 Z"
         style="fill:#eeeeee;fill-opacity:1;fill-rule:nonzero;stroke:none"
         id="path40" /><path
         d="m 3688.69,2017.31 h 71.418 v 266.602 h -71.418 z"
         style="fill:#eeeeee;fill-opacity:1;fill-rule:nonzero;stroke:none"
         id="path42" /><path
         d="m 3274.28,2017.31 h 71.4297 v 266.602 H 3274.28 Z"
         style="fill:#eeeeee;fill-opacity:1;fill-rule:nonzero;stroke:none"
         id="path44" /><path
         d="m 3444.34,2032.81 69.73,-15.5 57.82,260.26 -69.72,15.49 -57.83,-260.25"
         style="fill:#eeeeee;fill-opacity:1;fill-rule:nonzero;stroke:none"
         id="path46" /><path
         d="m 3791.1,2017.31 h 35.707 v 322.313 H 3791.1 Z"
         style="fill:#eeeeee;fill-opacity:1;fill-rule:nonzero;stroke:none"
         id="path48" /><path
         d="m 3366.25,2017.31 h 35.7109 v 322.313 H 3366.25 Z"
         style="fill:#eeeeee;fill-opacity:1;fill-rule:nonzero;stroke:none"
         id="path50" /><path
         d="m 2755.4,1592.92 h 1257.4 v 366.379 H 2755.4 Z"
         style="fill:#e3e3e2;fill-opacity:1;fill-rule:nonzero;stroke:none"
         id="path52" /><path
         d="m 2755.4,1592.92 h 71.4336 v 307.066 H 2755.4 Z"
         style="fill:#eeeeee;fill-opacity:1;fill-rule:nonzero;stroke:none"
         id="path54" /><path
         d="m 3100.79,1592.92 h 71.4219 v 307.066 H 3100.79 Z"
         style="fill:#eeeeee;fill-opacity:1;fill-rule:nonzero;stroke:none"
         id="path56" /><path
         d="m 3616.46,1605.06 -70.39,-12.14 -52.15,302.61 70.39,12.13 52.15,-302.6"
         style="fill:#eeeeee;fill-opacity:1;fill-rule:nonzero;stroke:none"
         id="path58" /><path
         d="m 2843.91,1592.92 h 71.4297 v 266.598 H 2843.91 Z"
         style="fill:#eeeeee;fill-opacity:1;fill-rule:nonzero;stroke:none"
         id="path60" /><path
         d="m 3008.09,1592.92 h 71.4297 v 266.598 H 3008.09 Z"
         style="fill:#eeeeee;fill-opacity:1;fill-rule:nonzero;stroke:none"
         id="path62" /><path
         d="m 3422.49,1592.92 h 71.4336 v 266.598 H 3422.49 Z"
         style="fill:#eeeeee;fill-opacity:1;fill-rule:nonzero;stroke:none"
         id="path64" /><path
         d="m 3323.86,1608.42 -69.73,-15.5 -57.83,260.25 69.73,15.5 57.83,-260.25"
         style="fill:#eeeeee;fill-opacity:1;fill-rule:nonzero;stroke:none"
         id="path66" /><path
         d="m 2941.39,1592.92 h 35.7109 v 322.316 H 2941.39 Z"
         style="fill:#eeeeee;fill-opacity:1;fill-rule:nonzero;stroke:none"
         id="path68" /><path
         d="m 3366.25,1592.92 h 35.7109 v 322.316 H 3366.25 Z"
         style="fill:#eeeeee;fill-opacity:1;fill-rule:nonzero;stroke:none"
         id="path70" /><path
         d="m 3941.37,1592.92 h 71.4297 v 307.066 H 3941.37 Z"
         style="fill:#eeeeee;fill-opacity:1;fill-rule:nonzero;stroke:none"
         id="path72" /><path
         d="m 3852.86,1592.92 h 71.4297 v 266.598 H 3852.86 Z"
         style="fill:#eeeeee;fill-opacity:1;fill-rule:nonzero;stroke:none"
         id="path74" /><path
         d="m 3688.69,1592.92 h 71.418 v 266.598 h -71.418 z"
         style="fill:#eeeeee;fill-opacity:1;fill-rule:nonzero;stroke:none"
         id="path76" /><path
         d="m 3791.1,1592.92 h 35.707 v 322.316 H 3791.1 Z"
         style="fill:#eeeeee;fill-opacity:1;fill-rule:nonzero;stroke:none"
         id="path78" /><path
         d="m 2755.4,1168.54 h 1257.4 v 366.371 H 2755.4 Z"
         style="fill:#e3e3e2;fill-opacity:1;fill-rule:nonzero;stroke:none"
         id="path80" /><path
         d="m 3219.67,1168.54 h 71.418 v 307.063 h -71.418 z"
         style="fill:#eeeeee;fill-opacity:1;fill-rule:nonzero;stroke:none"
         id="path82" /><path
         d="m 2775.42,1180.67 70.39,-12.13 52.15,302.59 -70.39,12.14 -52.15,-302.6"
         style="fill:#eeeeee;fill-opacity:1;fill-rule:nonzero;stroke:none"
         id="path84" /><path
         d="m 3476.54,1168.54 h 71.4297 v 266.602 H 3476.54 Z"
         style="fill:#eeeeee;fill-opacity:1;fill-rule:nonzero;stroke:none"
         id="path86" /><path
         d="m 3312.36,1168.54 h 71.4297 v 266.602 H 3312.36 Z"
         style="fill:#eeeeee;fill-opacity:1;fill-rule:nonzero;stroke:none"
         id="path88" /><path
         d="m 2897.96,1168.54 h 71.4297 v 266.602 H 2897.96 Z"
         style="fill:#eeeeee;fill-opacity:1;fill-rule:nonzero;stroke:none"
         id="path90" /><path
         d="m 3068.02,1184.02 69.73,-15.48 57.83,260.25 -69.73,15.49 -57.83,-260.26"
         style="fill:#eeeeee;fill-opacity:1;fill-rule:nonzero;stroke:none"
         id="path92" /><path
         d="m 3414.78,1168.54 h 35.7109 v 322.301 H 3414.78 Z"
         style="fill:#eeeeee;fill-opacity:1;fill-rule:nonzero;stroke:none"
         id="path94" /><path
         d="m 2989.92,1168.54 h 35.707 v 322.301 h -35.707 z"
         style="fill:#eeeeee;fill-opacity:1;fill-rule:nonzero;stroke:none"
         id="path96" /><path
         d="m 3597.18,1180.67 70.39,-12.13 52.15,302.59 -70.39,12.14 -52.15,-302.6"
         style="fill:#eeeeee;fill-opacity:1;fill-rule:nonzero;stroke:none"
         id="path98" /><path
         d="m 3719.72,1168.54 h 71.4297 v 266.602 H 3719.72 Z"
         style="fill:#eeeeee;fill-opacity:1;fill-rule:nonzero;stroke:none"
         id="path100" /><path
         d="m 3889.78,1184.02 69.73,-15.48 57.82,260.25 -69.72,15.49 -57.83,-260.26"
         style="fill:#eeeeee;fill-opacity:1;fill-rule:nonzero;stroke:none"
         id="path102" /><path
         d="m 3811.68,1168.54 h 35.7188 v 322.301 H 3811.68 Z"
         style="fill:#eeeeee;fill-opacity:1;fill-rule:nonzero;stroke:none"
         id="path104" /><path
         d="m 4060.63,457.191 h 233.422 v 1988.95 H 4060.63 Z"
         style="fill:#e3e3e2;fill-opacity:1;fill-rule:nonzero;stroke:none"
         id="path106" /><path
         d="m 1044.19,2873.2 c 0,0 -11.71,77.26 44.64,126.8 56.35,49.54 51.39,79.01 35.3,82.85 -16.1,3.85 -30.97,-45.7 -55.74,-59.32 0,0 -0.78,70.6 24.38,96.6 25.16,26.01 38.37,93.01 14.43,94.19 -23.94,1.18 -26.42,-39.79 -31.37,-68.85 -4.96,-29.05 -31.64,-69.92 -31.64,-69.92 0,0 -5.2,63.16 -21.46,89.17 -16.26,26.01 27.09,85.46 10.37,111.47 -16.72,26 -46.444,-23.54 -43.967,-79.27 2.472,-55.73 39.627,-115.17 30.957,-173.39 0,0 -16.39,40.88 -31.106,44.59 -14.714,3.71 -29.574,30.75 -39.488,40.76 -9.906,10.02 -22.289,-24.66 0,-56.86 22.297,-32.2 79.264,-118.35 70.594,-187.98 l 24.1,9.16"
         style="fill:#e9e9e8;fill-opacity:1;fill-rule:nonzero;stroke:none"
         id="path108" /><path
         d="m 1077.88,2908.36 18.46,-115.81 c 5.7,-35.76 -21.94,-68.14 -58.15,-68.14 h -19.68 c -36.221,0 -63.854,32.38 -58.151,68.14 l 18.454,115.81 h 99.067"
         style="fill:#e9e9e8;fill-opacity:1;fill-rule:nonzero;stroke:none"
         id="path110" /><path
         d="M 798.777,2767.14 H 2103.16 v -67.02 H 798.777 v 67.02"
         style="fill:#e3e3e2;fill-opacity:1;fill-rule:nonzero;stroke:none"
         id="path112" /><path
         d="m 1985.66,2767.14 h 57.47 v 247.04 h -57.47 v -247.04"
         style="fill:#eeeeee;fill-opacity:1;fill-rule:nonzero;stroke:none"
         id="path114" /><path
         d="m 1707.79,2767.14 h 57.47 v 247.04 h -57.47 v -247.04"
         style="fill:#eeeeee;fill-opacity:1;fill-rule:nonzero;stroke:none"
         id="path116" /><path
         d="m 1350.39,2776.9 56.63,-9.76 41.95,243.45 -56.62,9.76 -41.96,-243.45"
         style="fill:#eeeeee;fill-opacity:1;fill-rule:nonzero;stroke:none"
         id="path118" /><path
         d="m 1914.46,2767.14 h 57.46 v 214.49 h -57.46 v -214.49"
         style="fill:#eeeeee;fill-opacity:1;fill-rule:nonzero;stroke:none"
         id="path120" /><path
         d="m 1782.37,2767.14 h 57.47 v 214.49 h -57.47 v -214.49"
         style="fill:#eeeeee;fill-opacity:1;fill-rule:nonzero;stroke:none"
         id="path122" /><path
         d="m 1448.97,2767.14 h 57.48 v 214.49 h -57.48 v -214.49"
         style="fill:#eeeeee;fill-opacity:1;fill-rule:nonzero;stroke:none"
         id="path124" /><path
         d="m 1585.79,2779.61 56.1,-12.47 46.52,209.38 -56.1,12.46 -46.52,-209.37"
         style="fill:#eeeeee;fill-opacity:1;fill-rule:nonzero;stroke:none"
         id="path126" /><path
         d="m 1864.77,2767.14 h 28.73 v 259.31 h -28.73 v -259.31"
         style="fill:#eeeeee;fill-opacity:1;fill-rule:nonzero;stroke:none"
         id="path128" /><path
         d="m 1522.96,2767.14 h 28.73 v 259.31 h -28.73 v -259.31"
         style="fill:#eeeeee;fill-opacity:1;fill-rule:nonzero;stroke:none"
         id="path130" /><path
         d="M 2103.16,2266.83 H 798.777 v -67.02 H 2103.16 v 67.02"
         style="fill:#e3e3e2;fill-opacity:1;fill-rule:nonzero;stroke:none"
         id="path132" /><path
         d="m 916.285,2266.83 h -57.469 v 247.04 h 57.469 v -247.04"
         style="fill:#eeeeee;fill-opacity:1;fill-rule:nonzero;stroke:none"
         id="path134" /><path
         d="m 1194.15,2266.83 h -57.47 v 247.04 h 57.47 v -247.04"
         style="fill:#eeeeee;fill-opacity:1;fill-rule:nonzero;stroke:none"
         id="path136" /><path
         d="m 1551.55,2276.59 -56.63,-9.76 -41.95,243.45 56.62,9.75 41.96,-243.44"
         style="fill:#eeeeee;fill-opacity:1;fill-rule:nonzero;stroke:none"
         id="path138" /><path
         d="m 987.488,2266.83 h -57.465 v 214.48 h 57.465 v -214.48"
         style="fill:#eeeeee;fill-opacity:1;fill-rule:nonzero;stroke:none"
         id="path140" /><path
         d="m 1119.57,2266.83 h -57.46 v 214.48 h 57.46 v -214.48"
         style="fill:#eeeeee;fill-opacity:1;fill-rule:nonzero;stroke:none"
         id="path142" /><path
         d="m 1452.97,2266.83 h -57.47 v 214.48 h 57.47 v -214.48"
         style="fill:#eeeeee;fill-opacity:1;fill-rule:nonzero;stroke:none"
         id="path144" /><path
         d="m 1316.15,2279.29 -56.1,-12.46 -46.52,209.38 56.1,12.46 46.52,-209.38"
         style="fill:#eeeeee;fill-opacity:1;fill-rule:nonzero;stroke:none"
         id="path146" /><path
         d="m 1037.18,2266.83 h -28.73 v 259.3 h 28.73 v -259.3"
         style="fill:#eeeeee;fill-opacity:1;fill-rule:nonzero;stroke:none"
         id="path148" /><path
         d="m 1378.98,2266.83 h -28.73 v 259.3 h 28.73 v -259.3"
         style="fill:#eeeeee;fill-opacity:1;fill-rule:nonzero;stroke:none"
         id="path150" /><path
         d="m 1978,2462.35 h -280 v -193.31 h 280 v 193.31"
         style="fill:#eeeeee;fill-opacity:1;fill-rule:nonzero;stroke:none"
         id="path152" /><path
         d="m 3652.04,3070.33 c 0,-107.88 -87.46,-195.33 -195.33,-195.33 -107.87,0 -195.32,87.45 -195.32,195.33 0,107.87 87.45,195.32 195.32,195.32 107.87,0 195.33,-87.45 195.33,-195.32"
         style="fill:#e3e3e2;fill-opacity:1;fill-rule:nonzero;stroke:none"
         id="path154" /><path
         d="m 3622.79,3070.33 c 0,-91.72 -74.36,-166.08 -166.08,-166.08 -91.72,0 -166.08,74.36 -166.08,166.08 0,91.72 74.36,166.07 166.08,166.07 91.72,0 166.08,-74.35 166.08,-166.07"
         style="fill:#f4f4f4;fill-opacity:1;fill-rule:nonzero;stroke:none"
         id="path156" /><path
         d="m 3448.88,3184.25 v -116.09 l -76.94,43.54"
         style="fill:#f4f4f4;fill-opacity:1;fill-rule:nonzero;stroke:none"
         id="path158" /><path
         d="m 3438.88,3184.25 v -98.94 l -62.02,35.09 c -4.8,2.72 -10.91,1.03 -13.62,-3.78 -2.72,-4.81 -1.03,-10.91 3.77,-13.63 l 76.94,-43.53 c 3.11,-1.76 6.88,-1.74 9.96,0.06 3.09,1.8 4.97,5.07 4.97,8.64 v 116.09 c 0,5.53 -4.48,10 -10,10 -5.53,0 -10,-4.47 -10,-10"
         style="fill:#e3e3e2;fill-opacity:1;fill-rule:nonzero;stroke:none"
         id="path160" /><path
         d="M 4438.89,113.23 C 4438.89,50.6914 3570.83,0 2500,0 1429.18,0 561.113,50.6914 561.113,113.23 c 0,62.54 868.067,113.239 1938.887,113.239 1070.83,0 1938.89,-50.699 1938.89,-113.239"
         style="fill:#f8f8f9;fill-opacity:1;fill-rule:nonzero;stroke:none"
         id="path162" /><path
         d="M 2234.91,1114.34 H 4225.15 V 2998.77 H 2234.91 Z"
         style="fill:#4870c0;fill-opacity:1;fill-rule:nonzero;stroke:none"
         id="path164" /><path
         d="m 4159.33,1114.34 h -216.47 c 9.18,15.21 13.05,25.2 13.04,30.96 -0.01,4.31 -2.19,6.26 -5.94,6.26 -10.62,0 -33.84,-15.57 -56.15,-37.22 h -107.49 c -9.68,30.43 -22.9,50.65 -40.98,50.65 -0.87,0 -1.76,-0.05 -2.66,-0.15 -18.09,-1.94 -24.94,-17.79 -24.95,-42.37 0,-2.61 0.08,-5.33 0.23,-8.13 H 2652.88 l -8.22,139.98 h 194.64 c 6.28,0 11.37,5.08 11.37,11.37 v 7.16 c 0,6.28 -5.09,11.37 -11.37,11.37 h -196.4 l -2.61,44.42 h 0.15 l -1.82,29.03 h 31.26 c 11.94,0 21.62,9.67 21.62,21.62 v 11.04 0.63 h 562.89 c 6.29,0 11.38,5.09 11.38,11.37 v 7.16 c 0,6.28 -5.09,11.37 -11.38,11.37 h -516.63 c 2.78,3.23 4.46,7.43 4.46,12.02 0,10.17 -8.24,18.41 -18.4,18.41 h -488.91 v 24.9 c 4.48,4.19 8.02,9.27 9.91,14.74 l 60.61,174.63 h 1810.38 c 2.76,0 5,2.24 5,5 0,2.76 -2.24,5 -5,5 H 2308.9 l 36.22,104.35 c 1.05,2.98 1.53,5.81 1.49,8.43 -0.13,10.18 -7.67,17.51 -19.56,17.51 h -92.14 V 2998.77 H 4225.15 2234.91 v -95.93 h 1990.24 -65.82 V 1114.34 M 3016.82,1297.2 c -2.21,0 -3.99,-1.79 -3.99,-3.99 v -46.64 c 0,-2.19 1.78,-3.98 3.99,-3.98 h 46.63 c 2.2,0 3.99,1.79 3.99,3.98 v 46.64 c 0,2.2 -1.79,3.99 -3.99,3.99 h -46.63 m 554.78,0.62 c -2.21,0 -3.99,-1.78 -3.99,-3.98 v -46.64 c 0,-2.2 1.78,-3.99 3.99,-3.99 h 46.64 c 2.19,0 3.98,1.79 3.98,3.99 v 46.64 c 0,2.2 -1.79,3.98 -3.98,3.98 h -46.64 m -442.23,-12.98 c -6.27,0 -11.37,-5.08 -11.37,-11.36 v -7.16 c 0,-6.29 5.1,-11.38 11.37,-11.38 h 264.71 c 6.28,0 11.37,5.09 11.37,11.38 v 7.16 c 0,6.28 -5.09,11.36 -11.37,11.36 h -264.71 m 554.79,0.63 c -6.28,0 -11.38,-5.09 -11.38,-11.37 v -7.16 c 0,-6.29 5.1,-11.37 11.38,-11.37 h 264.7 c 6.28,0 11.37,5.08 11.37,11.37 v 7.16 c 0,6.28 -5.09,11.37 -11.37,11.37 h -264.7 M 2604.4,1451.32 h 59.58 c 0,0 3.15,5.85 5.62,17.28 h 1366.75 c 6.28,0 11.37,5.1 11.37,11.38 v 7.16 c 0,6.28 -5.09,11.38 -11.37,11.38 H 2672.49 c -0.16,29.48 -8.51,45.49 -8.51,45.49 h 32.61 c 0,0 0.41,0.76 1.04,2.25 h 1338.72 c 6.28,0 11.37,5.09 11.37,11.37 v 7.16 c 0,6.27 -5.09,11.37 -11.37,11.37 H 2704.46 c 0.41,4.3 0.65,9.02 0.65,14.15 0,30.05 -8.52,46.4 -8.52,46.4 h -365.91 v -8.68 h 7.41 v -52.71 c -16.03,-4.85 -29.2,-16.37 -36.26,-31.31 h -3.76 v -8.68 h 0.47 c -1.51,-5.21 -2.32,-10.71 -2.32,-16.4 0,-11.65 3.4,-22.53 9.26,-31.68 V 1460 h -7.41 v -8.68 h 170.15 v 0 h 68.09 v 0 h 68.09 v 0 m -119.05,358.89 c -15.08,0 -27.3,-12.23 -27.3,-27.31 0,-15.08 12.22,-27.3 27.3,-27.3 15.08,0 27.31,12.22 27.31,27.3 0,15.08 -12.23,27.31 -27.31,27.31 m 554.78,0.62 c -15.08,0 -27.3,-12.23 -27.3,-27.3 0,-15.08 12.22,-27.31 27.3,-27.31 15.08,0 27.31,12.23 27.31,27.31 0,15.07 -12.23,27.3 -27.31,27.3 m 554.79,0.63 c -15.09,0 -27.31,-12.23 -27.31,-27.31 0,-15.08 12.22,-27.3 27.31,-27.3 15.07,0 27.3,12.22 27.3,27.3 0,15.08 -12.23,27.31 -27.3,27.31 m -1020.33,-13.61 c -6.28,0 -11.37,-5.09 -11.37,-11.37 v -7.16 c 0,-6.28 5.09,-11.37 11.37,-11.37 h 264.71 c 6.28,0 11.37,5.09 11.37,11.37 v 7.16 c 0,6.28 -5.09,11.37 -11.37,11.37 h -264.71 m 554.78,0.63 c -6.27,0 -11.37,-5.09 -11.37,-11.38 v -7.16 c 0,-6.28 5.1,-11.36 11.37,-11.36 h 264.71 c 6.28,0 11.37,5.08 11.37,11.36 v 7.16 c 0,6.29 -5.09,11.38 -11.37,11.38 h -264.71 m 554.79,0.62 c -6.28,0 -11.38,-5.09 -11.38,-11.37 v -7.16 c 0,-6.28 5.1,-11.37 11.38,-11.37 h 264.7 c 6.28,0 11.37,5.09 11.37,11.37 v 7.16 c 0,6.28 -5.09,11.37 -11.37,11.37 h -264.7 m -1329.05,211.27 c -32.48,0 -58.89,-26.42 -58.89,-58.89 0,-32.47 26.41,-58.9 58.89,-58.9 32.47,0 58.89,26.43 58.89,58.9 0,32.47 -26.42,58.89 -58.89,58.89 m 114.31,-79.7 c -6.28,0 -11.37,-5.08 -11.37,-11.36 v -7.16 c 0,-6.29 5.09,-11.38 11.37,-11.38 h 297.85 c 6.28,0 11.37,5.09 11.37,11.38 v 7.16 c 0,6.28 -5.09,11.36 -11.37,11.36 h -297.85 m 0,77.66 c -6.28,0 -11.37,-5.1 -11.37,-11.38 v -7.15 c 0,-6.29 5.09,-11.38 11.37,-11.38 h 1566.93 c 6.28,0 11.37,5.09 11.37,11.38 v 7.15 c 0,6.28 -5.09,11.38 -11.37,11.38 H 2469.42 m -193.17,97.23 c -2.76,0 -5,-2.24 -5,-5 0,-2.76 2.24,-5 5,-5 h 1839.56 c 2.76,0 5,2.24 5,5 0,2.76 -2.24,5 -5,5 H 2276.25 m 209.1,124.22 c -15.08,0 -27.3,-12.22 -27.3,-27.3 0,-15.08 12.22,-27.31 27.3,-27.31 15.08,0 27.31,12.23 27.31,27.31 0,15.08 -12.23,27.3 -27.31,27.3 m 554.78,0.63 c -15.08,0 -27.3,-12.23 -27.3,-27.31 0,-15.08 12.22,-27.3 27.3,-27.3 15.08,0 27.31,12.22 27.31,27.3 0,15.08 -12.23,27.31 -27.31,27.31 m 554.79,0.62 c -15.09,0 -27.31,-12.22 -27.31,-27.3 0,-15.08 12.22,-27.31 27.31,-27.31 15.07,0 27.3,12.23 27.3,27.31 0,15.08 -12.23,27.3 -27.3,27.3 m -1020.33,-13.6 c -6.28,0 -11.37,-5.1 -11.37,-11.37 v -7.16 c 0,-6.28 5.09,-11.37 11.37,-11.37 h 264.71 c 6.28,0 11.37,5.09 11.37,11.37 v 7.16 c 0,6.27 -5.09,11.37 -11.37,11.37 h -264.71 m 554.78,0.62 c -6.27,0 -11.37,-5.09 -11.37,-11.37 v -7.16 c 0,-6.28 5.1,-11.37 11.37,-11.37 h 264.71 c 6.28,0 11.37,5.09 11.37,11.37 v 7.16 c 0,6.28 -5.09,11.37 -11.37,11.37 h -264.71 m 554.79,0.63 c -6.28,0 -11.38,-5.1 -11.38,-11.37 v -7.16 c 0,-6.28 5.1,-11.38 11.38,-11.38 h 264.7 c 6.28,0 11.37,5.1 11.37,11.38 v 7.16 c 0,6.27 -5.09,11.37 -11.37,11.37 h -264.7 m -1214.74,132.81 c -6.28,0 -11.37,-5.1 -11.37,-11.38 v -7.16 c 0,-6.28 5.09,-11.37 11.37,-11.37 h 1024.97 c 6.29,0 11.38,5.09 11.38,11.37 v 7.16 c 0,6.28 -5.09,11.38 -11.38,11.38 H 2469.42 m -114.31,157.15 c -32.48,0 -58.89,-26.42 -58.89,-58.9 0,-32.47 26.41,-58.89 58.89,-58.89 32.47,0 58.89,26.42 58.89,58.89 0,32.48 -26.42,58.9 -58.89,58.9 m 114.31,-79.51 c -6.28,0 -11.37,-5.09 -11.37,-11.37 v -7.16 c 0,-6.28 5.09,-11.37 11.37,-11.37 h 1566.93 c 6.28,0 11.37,5.09 11.37,11.37 v 7.16 c 0,6.28 -5.09,11.37 -11.37,11.37 H 2469.42 m 0,77.65 c -6.28,0 -11.37,-5.09 -11.37,-11.37 v -7.16 c 0,-6.28 5.09,-11.37 11.37,-11.37 h 1566.93 c 6.28,0 11.37,5.09 11.37,11.37 v 7.16 c 0,6.28 -5.09,11.37 -11.37,11.37 H 2469.42 m -193.17,353.78 v -281.35 h 1839.56 v 281.35 H 2276.25 m 311.03,-1746.22 h -39.73 -2.5 -117.84 -2.5 -189.8 v 243.33 h 334.83 l 2.35,-32.13 2.98,-41.32 h -0.48 c -6.28,0 -11.37,-5.09 -11.37,-11.37 v -7.16 c 0,-6.29 5.09,-11.37 11.37,-11.37 h 2.62 l 10.07,-139.98 m -125.25,182.23 c -2.2,0 -3.98,-1.78 -3.98,-3.98 v -46.64 c 0,-2.2 1.78,-3.99 3.98,-3.99 h 46.64 c 2.2,0 3.99,1.79 3.99,3.99 v 46.64 c 0,2.2 -1.79,3.98 -3.99,3.98 h -46.64"
         style="fill:#c7d9f2;fill-opacity:1;fill-rule:nonzero;stroke:none"
         id="path166" /><path
         d="m 2234.91,2902.84 h 1990.24 v 95.9336 H 2234.91 Z"
         style="fill:#4870c0;fill-opacity:1;fill-rule:nonzero;stroke:none"
         id="path168" /><path
         d="m 4225.15,1112.67 h -65.82 v 1.67 h 65.82 v 1331.8 -1333.47"
         style="fill:#b3b2b1;fill-opacity:1;fill-rule:nonzero;stroke:none"
         id="path170" /><path
         d="m 4225.15,1114.34 h -65.82 v 1788.5 h 65.82 v -1788.5 m -35.23,1746.11 c -9.28,0 -16.81,-7.53 -16.81,-16.82 v -215.74 c 0,-9.29 7.53,-16.82 16.81,-16.82 h 6 c 9.28,0 16.81,7.53 16.81,16.82 v 215.74 c 0,9.29 -7.53,16.82 -16.81,16.82 h -6"
         style="fill:#9cacd3;fill-opacity:1;fill-rule:nonzero;stroke:none"
         id="path172" /><path
         d="m 4195.92,2611.07 h -6 c -9.28,0 -16.81,7.53 -16.81,16.82 v 215.74 c 0,9.29 7.53,16.82 16.81,16.82 h 6 c 9.28,0 16.81,-7.53 16.81,-16.82 v -215.74 c 0,-9.29 -7.53,-16.82 -16.81,-16.82"
         style="fill:#dae1ef;fill-opacity:1;fill-rule:nonzero;stroke:none"
         id="path174" /><path
         d="M 4115.81,1665.56 H 2305.43 l 3.47,10 h 1806.91 c 2.76,0 5,-2.24 5,-5 0,-2.76 -2.24,-5 -5,-5"
         style="fill:#9cacd3;fill-opacity:1;fill-rule:nonzero;stroke:none"
         id="path176" /><path
         d="M 4115.81,2095.56 H 2276.25 c -2.76,0 -5,2.24 -5,5 0,2.76 2.24,5 5,5 h 1839.56 c 2.76,0 5,-2.24 5,-5 0,-2.76 -2.24,-5 -5,-5"
         style="fill:#9cacd3;fill-opacity:1;fill-rule:nonzero;stroke:none"
         id="path178" /><path
         d="m 2276.25,2579.21 h 1839.56 v 281.352 H 2276.25 Z"
         style="fill:#4870c0;fill-opacity:1;fill-rule:nonzero;stroke:none"
         id="path180" /><path
         d="m 4178.12,2926.74 c -13.3,0 -24.07,10.78 -24.07,24.06 0,13.3 10.77,24.07 24.07,24.07 13.29,0 24.06,-10.77 24.06,-24.07 0,-13.28 -10.77,-24.06 -24.06,-24.06"
         style="fill:#b4caec;fill-opacity:1;fill-rule:nonzero;stroke:none"
         id="path182" /><path
         d="m 4093.12,2926.74 c -13.3,0 -24.07,10.78 -24.07,24.06 0,13.3 10.77,24.07 24.07,24.07 13.29,0 24.06,-10.77 24.06,-24.07 0,-13.28 -10.77,-24.06 -24.06,-24.06"
         style="fill:#b4caec;fill-opacity:1;fill-rule:nonzero;stroke:none"
         id="path184" /><path
         d="m 4008.11,2926.74 c -13.29,0 -24.06,10.78 -24.06,24.06 0,13.3 10.77,24.07 24.06,24.07 13.3,0 24.07,-10.77 24.07,-24.07 0,-13.28 -10.77,-24.06 -24.07,-24.06"
         style="fill:#b4caec;fill-opacity:1;fill-rule:nonzero;stroke:none"
         id="path186" /><path
         d="m 2355.11,2390.85 c -32.48,0 -58.89,26.42 -58.89,58.89 0,32.48 26.41,58.9 58.89,58.9 32.47,0 58.89,-26.42 58.89,-58.9 0,-32.47 -26.42,-58.89 -58.89,-58.89"
         style="fill:#6d7e9d;fill-opacity:1;fill-rule:nonzero;stroke:none"
         id="path188" /><path
         d="m 2362.31,2472.07 v -44.65 h -10.33 v 36.36 h -8.93 v 8.29 h 19.26"
         style="fill:#ffffff;fill-opacity:1;fill-rule:nonzero;stroke:none"
         id="path190" /><path
         d="M 4036.35,2476.88 H 2469.42 c -6.28,0 -11.37,5.09 -11.37,11.37 v 7.16 c 0,6.28 5.09,11.37 11.37,11.37 h 1566.93 c 6.28,0 11.37,-5.09 11.37,-11.37 v -7.16 c 0,-6.28 -5.09,-11.37 -11.37,-11.37"
         style="fill:#6d7e9d;fill-opacity:1;fill-rule:nonzero;stroke:none"
         id="path192" /><path
         d="M 4036.35,2399.23 H 2469.42 c -6.28,0 -11.37,5.09 -11.37,11.37 v 7.16 c 0,6.28 5.09,11.37 11.37,11.37 h 1566.93 c 6.28,0 11.37,-5.09 11.37,-11.37 v -7.16 c 0,-6.28 -5.09,-11.37 -11.37,-11.37"
         style="fill:#6d7e9d;fill-opacity:1;fill-rule:nonzero;stroke:none"
         id="path194" /><path
         d="M 3494.39,2321.58 H 2469.42 c -6.28,0 -11.37,5.09 -11.37,11.37 v 7.16 c 0,6.28 5.09,11.38 11.37,11.38 h 1024.97 c 6.29,0 11.38,-5.1 11.38,-11.38 v -7.16 c 0,-6.28 -5.09,-11.37 -11.38,-11.37"
         style="fill:#6d7e9d;fill-opacity:1;fill-rule:nonzero;stroke:none"
         id="path196" /><path
         d="m 2485.35,2175.17 c -15.08,0 -27.3,12.23 -27.3,27.31 0,15.08 12.22,27.3 27.3,27.3 15.08,0 27.31,-12.22 27.31,-27.3 0,-15.08 -12.23,-27.31 -27.31,-27.31"
         style="fill:#9cacd3;fill-opacity:1;fill-rule:nonzero;stroke:none"
         id="path198" /><path
         d="m 2504.2,2202.48 c 0,-10.41 -8.44,-18.86 -18.85,-18.86 -10.41,0 -18.85,8.45 -18.85,18.86 0,10.41 8.44,18.85 18.85,18.85 10.41,0 18.85,-8.44 18.85,-18.85"
         style="fill:#ffffff;fill-opacity:1;fill-rule:nonzero;stroke:none"
         id="path200" /><path
         d="m 2839.3,2187.53 h -264.71 c -6.28,0 -11.37,5.09 -11.37,11.37 v 7.16 c 0,6.27 5.09,11.37 11.37,11.37 h 264.71 c 6.28,0 11.37,-5.1 11.37,-11.37 v -7.16 c 0,-6.28 -5.09,-11.37 -11.37,-11.37"
         style="fill:#6d7e9d;fill-opacity:1;fill-rule:nonzero;stroke:none"
         id="path202" /><path
         d="m 3040.13,2175.8 c -15.08,0 -27.3,12.22 -27.3,27.3 0,15.08 12.22,27.31 27.3,27.31 15.08,0 27.31,-12.23 27.31,-27.31 0,-15.08 -12.23,-27.3 -27.31,-27.3"
         style="fill:#9cacd3;fill-opacity:1;fill-rule:nonzero;stroke:none"
         id="path204" /><path
         d="m 3058.98,2203.1 c 0,-10.41 -8.43,-18.85 -18.85,-18.85 -10.41,0 -18.85,8.44 -18.85,18.85 0,10.42 8.44,18.85 18.85,18.85 10.42,0 18.85,-8.43 18.85,-18.85"
         style="fill:#4870c0;fill-opacity:1;fill-rule:nonzero;stroke:none"
         id="path206" /><path
         d="m 3394.08,2188.15 h -264.71 c -6.27,0 -11.37,5.09 -11.37,11.37 v 7.16 c 0,6.28 5.1,11.37 11.37,11.37 h 264.71 c 6.28,0 11.37,-5.09 11.37,-11.37 v -7.16 c 0,-6.28 -5.09,-11.37 -11.37,-11.37"
         style="fill:#6d7e9d;fill-opacity:1;fill-rule:nonzero;stroke:none"
         id="path208" /><path
         d="m 3594.92,2176.42 c -15.09,0 -27.31,12.23 -27.31,27.31 0,15.08 12.22,27.3 27.31,27.3 15.07,0 27.3,-12.22 27.3,-27.3 0,-15.08 -12.23,-27.31 -27.3,-27.31"
         style="fill:#9cacd3;fill-opacity:1;fill-rule:nonzero;stroke:none"
         id="path210" /><path
         d="m 3613.77,2203.73 c 0,-10.41 -8.44,-18.86 -18.85,-18.86 -10.42,0 -18.86,8.45 -18.86,18.86 0,10.41 8.44,18.85 18.86,18.85 10.41,0 18.85,-8.44 18.85,-18.85"
         style="fill:#ffffff;fill-opacity:1;fill-rule:nonzero;stroke:none"
         id="path212" /><path
         d="m 3948.86,2188.77 h -264.7 c -6.28,0 -11.38,5.1 -11.38,11.38 v 7.16 c 0,6.27 5.1,11.37 11.38,11.37 h 264.7 c 6.28,0 11.37,-5.1 11.37,-11.37 v -7.16 c 0,-6.28 -5.09,-11.38 -11.37,-11.38"
         style="fill:#6d7e9d;fill-opacity:1;fill-rule:nonzero;stroke:none"
         id="path214" /><path
         d="m 2355.11,1892.58 c -32.48,0 -58.89,26.43 -58.89,58.9 0,32.47 26.41,58.89 58.89,58.89 32.47,0 58.89,-26.42 58.89,-58.89 0,-32.47 -26.42,-58.9 -58.89,-58.9"
         style="fill:#6d7e9d;fill-opacity:1;fill-rule:nonzero;stroke:none"
         id="path216" /><path
         d="m 2372.14,1937.19 v -8.42 h -33.74 v 6.7 l 17.22,16.27 c 3.96,3.76 4.65,6.05 4.65,8.22 0,3.51 -2.42,5.55 -7.14,5.55 -3.82,0 -7.08,-1.47 -9.25,-4.46 l -7.52,4.84 c 3.44,5.04 9.69,8.3 17.73,8.3 9.95,0 16.58,-5.11 16.58,-13.2 0,-4.35 -1.21,-8.3 -7.46,-14.1 l -10.27,-9.7 h 19.2"
         style="fill:#ffffff;fill-opacity:1;fill-rule:nonzero;stroke:none"
         id="path218" /><path
         d="M 4036.35,1978.42 H 2469.42 c -6.28,0 -11.37,5.09 -11.37,11.38 v 7.15 c 0,6.28 5.09,11.38 11.37,11.38 h 1566.93 c 6.28,0 11.37,-5.1 11.37,-11.38 v -7.15 c 0,-6.29 -5.09,-11.38 -11.37,-11.38"
         style="fill:#6d7e9d;fill-opacity:1;fill-rule:nonzero;stroke:none"
         id="path220" /><path
         d="m 2767.27,1900.77 h -297.85 c -6.28,0 -11.37,5.09 -11.37,11.38 v 7.16 c 0,6.28 5.09,11.36 11.37,11.36 h 297.85 c 6.28,0 11.37,-5.08 11.37,-11.36 v -7.16 c 0,-6.29 -5.09,-11.38 -11.37,-11.38"
         style="fill:#6d7e9d;fill-opacity:1;fill-rule:nonzero;stroke:none"
         id="path222" /><path
         d="m 2485.35,1755.6 c -15.08,0 -27.3,12.22 -27.3,27.3 0,15.08 12.22,27.31 27.3,27.31 15.08,0 27.31,-12.23 27.31,-27.31 0,-15.08 -12.23,-27.3 -27.31,-27.3"
         style="fill:#9cacd3;fill-opacity:1;fill-rule:nonzero;stroke:none"
         id="path224" /><path
         d="m 2504.2,1782.9 c 0,-10.41 -8.44,-18.86 -18.85,-18.86 -10.41,0 -18.85,8.45 -18.85,18.86 0,10.41 8.44,18.85 18.85,18.85 10.41,0 18.85,-8.44 18.85,-18.85"
         style="fill:#ffffff;fill-opacity:1;fill-rule:nonzero;stroke:none"
         id="path226" /><path
         d="m 2839.3,1767.95 h -264.71 c -6.28,0 -11.37,5.09 -11.37,11.37 v 7.16 c 0,6.28 5.09,11.37 11.37,11.37 h 264.71 c 6.28,0 11.37,-5.09 11.37,-11.37 v -7.16 c 0,-6.28 -5.09,-11.37 -11.37,-11.37"
         style="fill:#6d7e9d;fill-opacity:1;fill-rule:nonzero;stroke:none"
         id="path228" /><path
         d="m 3040.13,1756.22 c -15.08,0 -27.3,12.23 -27.3,27.31 0,15.07 12.22,27.3 27.3,27.3 15.08,0 27.31,-12.23 27.31,-27.3 0,-15.08 -12.23,-27.31 -27.31,-27.31"
         style="fill:#9cacd3;fill-opacity:1;fill-rule:nonzero;stroke:none"
         id="path230" /><path
         d="m 3058.98,1783.53 c 0,-10.41 -8.43,-18.86 -18.85,-18.86 -10.41,0 -18.85,8.45 -18.85,18.86 0,10.41 8.44,18.84 18.85,18.84 10.42,0 18.85,-8.43 18.85,-18.84"
         style="fill:#ffffff;fill-opacity:1;fill-rule:nonzero;stroke:none"
         id="path232" /><path
         d="m 3394.08,1768.58 h -264.71 c -6.27,0 -11.37,5.08 -11.37,11.36 v 7.16 c 0,6.29 5.1,11.38 11.37,11.38 h 264.71 c 6.28,0 11.37,-5.09 11.37,-11.38 v -7.16 c 0,-6.28 -5.09,-11.36 -11.37,-11.36"
         style="fill:#6d7e9d;fill-opacity:1;fill-rule:nonzero;stroke:none"
         id="path234" /><path
         d="m 3594.92,1756.85 c -15.09,0 -27.31,12.22 -27.31,27.3 0,15.08 12.22,27.31 27.31,27.31 15.07,0 27.3,-12.23 27.3,-27.31 0,-15.08 -12.23,-27.3 -27.3,-27.3"
         style="fill:#9cacd3;fill-opacity:1;fill-rule:nonzero;stroke:none"
         id="path236" /><path
         d="m 3613.77,1784.15 c 0,-10.41 -8.44,-18.86 -18.85,-18.86 -10.42,0 -18.86,8.45 -18.86,18.86 0,10.41 8.44,18.85 18.86,18.85 10.41,0 18.85,-8.44 18.85,-18.85"
         style="fill:#4870c0;fill-opacity:1;fill-rule:nonzero;stroke:none"
         id="path238" /><path
         d="m 3948.86,1769.2 h -264.7 c -6.28,0 -11.38,5.09 -11.38,11.37 v 7.16 c 0,6.28 5.1,11.37 11.38,11.37 h 264.7 c 6.28,0 11.37,-5.09 11.37,-11.37 v -7.16 c 0,-6.28 -5.09,-11.37 -11.37,-11.37"
         style="fill:#6d7e9d;fill-opacity:1;fill-rule:nonzero;stroke:none"
         id="path240" /><path
         d="m 2305.48,1487.25 c -5.86,9.15 -9.26,20.03 -9.26,31.68 0,5.69 0.81,11.19 2.32,16.4 h 6.94 v -48.08 m 25.2,56.76 h -28.85 c 7.06,14.94 20.23,26.46 36.26,31.31 v -22.62 h -7.41 v -8.69"
         style="fill:#6d7e9d;fill-opacity:1;fill-rule:nonzero;stroke:none"
         id="path242" /><path
         d="m 2371.69,1510.64 c 0,-7.52 -5.8,-14.42 -18.49,-14.42 -6.26,0 -12.7,1.73 -17.03,4.79 l 4.02,7.91 c 3.37,-2.55 8.1,-4.02 12.75,-4.02 5.17,0 8.36,2.1 8.36,5.74 0,3.38 -2.49,5.48 -8.36,5.48 h -4.72 v 6.83 l 9.19,10.4 h -19.01 v 8.29 h 31.25 v -6.7 l -10.07,-11.48 c 8.03,-1.27 12.11,-6.25 12.11,-12.82"
         style="fill:#ffffff;fill-opacity:1;fill-rule:nonzero;stroke:none"
         id="path244" /><path
         d="M 4036.35,1546.26 H 2697.63 c 1.78,4.2 5.37,14.26 6.83,29.9 h 1331.89 c 6.28,0 11.37,-5.1 11.37,-11.37 v -7.16 c 0,-6.28 -5.09,-11.37 -11.37,-11.37"
         style="fill:#6d7e9d;fill-opacity:1;fill-rule:nonzero;stroke:none"
         id="path246" /><path
         d="M 4036.35,1468.6 H 2669.6 c 1.59,7.38 2.89,17.08 2.89,29.03 v 0 0 c 0,0.29 0,0.59 0,0.89 h 1363.86 c 6.28,0 11.37,-5.1 11.37,-11.38 v -7.16 c 0,-6.28 -5.09,-11.38 -11.37,-11.38"
         style="fill:#6d7e9d;fill-opacity:1;fill-rule:nonzero;stroke:none"
         id="path248" /><path
         d="M 3254.39,1390.96 H 2691.5 v 23.51 h 32.32 c 5.57,0 10.56,2.48 13.94,6.39 h 516.63 c 6.29,0 11.38,-5.09 11.38,-11.37 v -7.16 c 0,-6.28 -5.09,-11.37 -11.38,-11.37"
         style="fill:#6d7e9d;fill-opacity:1;fill-rule:nonzero;stroke:none"
         id="path250" /><path
         d="m 3063.45,1242.59 h -46.63 c -2.21,0 -3.99,1.79 -3.99,3.98 v 46.64 c 0,2.2 1.78,3.99 3.99,3.99 h 46.63 c 2.2,0 3.99,-1.79 3.99,-3.99 v -46.64 c 0,-2.19 -1.79,-3.98 -3.99,-3.98"
         style="fill:#6d7e9d;fill-opacity:1;fill-rule:nonzero;stroke:none"
         id="path252" /><path
         d="m 3019.4,1249.16 v 41.47 h 41.46 v -41.47 h -41.46"
         style="fill:#ffffff;fill-opacity:1;fill-rule:nonzero;stroke:none"
         id="path254" /><path
         d="m 3394.08,1254.94 h -264.71 c -6.27,0 -11.37,5.09 -11.37,11.38 v 7.16 c 0,6.28 5.1,11.36 11.37,11.36 h 264.71 c 6.28,0 11.37,-5.08 11.37,-11.36 v -7.16 c 0,-6.29 -5.09,-11.38 -11.37,-11.38"
         style="fill:#6d7e9d;fill-opacity:1;fill-rule:nonzero;stroke:none"
         id="path256" /><path
         d="m 3025.81,1268.04 10.4,-9.47 1.85,-0.64 1.74,0.87 16.25,19.18 c 0.9,1.06 0.76,2.64 -0.29,3.53 -1.05,0.89 -2.63,0.76 -3.52,-0.29 l -14.58,-17.21 -8.49,7.73 c -1.02,0.93 -2.6,0.86 -3.53,-0.16 -0.93,-1.02 -0.85,-2.61 0.17,-3.54"
         style="fill:#4870c0;fill-opacity:1;fill-rule:nonzero;stroke:none"
         id="path258" /><path
         d="m 3618.24,1243.21 h -46.64 c -2.21,0 -3.99,1.79 -3.99,3.99 v 46.64 c 0,2.2 1.78,3.98 3.99,3.98 h 46.64 c 2.19,0 3.98,-1.78 3.98,-3.98 v -46.64 c 0,-2.2 -1.79,-3.99 -3.98,-3.99"
         style="fill:#6d7e9d;fill-opacity:1;fill-rule:nonzero;stroke:none"
         id="path260" /><path
         d="m 3574.18,1249.79 v 41.46 h 41.47 v -41.46 h -41.47"
         style="fill:#ffffff;fill-opacity:1;fill-rule:nonzero;stroke:none"
         id="path262" /><path
         d="m 3948.86,1255.57 h -264.7 c -6.28,0 -11.38,5.08 -11.38,11.37 v 7.16 c 0,6.28 5.1,11.37 11.38,11.37 h 264.7 c 6.28,0 11.37,-5.09 11.37,-11.37 v -7.16 c 0,-6.29 -5.09,-11.37 -11.37,-11.37"
         style="fill:#6d7e9d;fill-opacity:1;fill-rule:nonzero;stroke:none"
         id="path264" /><path
         d="m 3580.59,1268.67 10.4,-9.47 1.85,-0.65 1.74,0.88 16.26,19.18 c 0.89,1.05 0.76,2.63 -0.29,3.52 -1.06,0.89 -2.63,0.76 -3.53,-0.29 l -14.58,-17.2 -8.48,7.73 c -1.02,0.93 -2.6,0.85 -3.53,-0.17 -0.93,-1.02 -0.86,-2.6 0.16,-3.53"
         style="fill:#4870c0;fill-opacity:1;fill-rule:nonzero;stroke:none"
         id="path266" /><path
         d="m 2508.67,1241.96 h -46.64 c -2.2,0 -3.98,1.79 -3.98,3.99 v 46.64 c 0,2.2 1.78,3.98 3.98,3.98 h 46.64 c 2.2,0 3.99,-1.78 3.99,-3.98 v -46.64 c 0,-2.2 -1.79,-3.99 -3.99,-3.99"
         style="fill:#6d7e9d;fill-opacity:1;fill-rule:nonzero;stroke:none"
         id="path268" /><path
         d="M 2464.62,1248.54 V 1290 h 41.46 v -41.46 h -41.46"
         style="fill:#ffffff;fill-opacity:1;fill-rule:nonzero;stroke:none"
         id="path270" /><path
         d="m 2839.3,1254.32 h -194.64 l -1.76,29.9 h 196.4 c 6.28,0 11.37,-5.09 11.37,-11.37 v -7.16 c 0,-6.29 -5.09,-11.37 -11.37,-11.37 m -262.09,0 h -2.62 c -6.28,0 -11.37,5.08 -11.37,11.37 v 7.16 c 0,6.28 5.09,11.37 11.37,11.37 h 0.48 l 2.14,-29.9"
         style="fill:#6d7e9d;fill-opacity:1;fill-rule:nonzero;stroke:none"
         id="path272" /><path
         d="m 2424.58,2728.82 c 0,13.27 -9.38,22.36 -21.86,22.36 -12.47,0 -21.85,-9.09 -21.85,-22.36 0,-13.27 9.38,-22.35 21.85,-22.35 12.48,0 21.86,9.08 21.86,22.35 z m -60.08,0 c 0,20.76 16.17,36.13 38.22,36.13 21.96,0 38.22,-15.27 38.22,-36.13 0,-20.85 -16.26,-36.12 -38.22,-36.12 -22.05,0 -38.22,15.37 -38.22,36.12"
         style="fill:#ffffff;fill-opacity:1;fill-rule:nonzero;stroke:none"
         id="path274" /><path
         d="m 2506.85,2724.63 v -30.73 h -15.57 v 28.34 c 0,8.68 -3.99,12.67 -10.88,12.67 -7.48,0 -12.87,-4.59 -12.87,-14.47 v -26.54 h -15.57 v 53.69 h 14.87 v -6.29 c 4.19,4.59 10.48,7.09 17.76,7.09 12.68,0 22.26,-7.39 22.26,-23.76"
         style="fill:#ffffff;fill-opacity:1;fill-rule:nonzero;stroke:none"
         id="path276" /><path
         d="m 2520.87,2767.95 h 15.57 v -74.05 h -15.57 v 74.05"
         style="fill:#ffffff;fill-opacity:1;fill-rule:nonzero;stroke:none"
         id="path278" /><path
         d="m 2550.88,2747.59 h 15.57 v -53.69 h -15.57 z m -1.9,16.16 c 0,4.89 3.9,8.68 9.69,8.68 5.78,0 9.67,-3.59 9.67,-8.38 0,-5.19 -3.89,-8.98 -9.67,-8.98 -5.79,0 -9.69,3.79 -9.69,8.68"
         style="fill:#ffffff;fill-opacity:1;fill-rule:nonzero;stroke:none"
         id="path280" /><path
         d="m 2635.79,2724.63 v -30.73 h -15.57 v 28.34 c 0,8.68 -3.99,12.67 -10.88,12.67 -7.48,0 -12.87,-4.59 -12.87,-14.47 v -26.54 h -15.57 v 53.69 h 14.87 v -6.29 c 4.19,4.59 10.48,7.09 17.77,7.09 12.67,0 22.25,-7.39 22.25,-23.76"
         style="fill:#ffffff;fill-opacity:1;fill-rule:nonzero;stroke:none"
         id="path282" /><path
         d="m 2661.88,2725.43 h 26.45 c -1.1,6.79 -6.19,11.18 -13.18,11.18 -7.08,0 -12.17,-4.29 -13.27,-11.18 z m 40.82,-9.08 h -40.62 c 1.49,-6.69 7.18,-10.78 15.37,-10.78 5.68,0 9.78,1.7 13.47,5.19 l 8.28,-8.98 c -4.99,-5.69 -12.47,-8.68 -22.15,-8.68 -18.56,0 -30.64,11.68 -30.64,27.64 0,16.07 12.28,27.65 28.64,27.65 15.77,0 27.94,-10.58 27.94,-27.85 0,-1.19 -0.2,-2.89 -0.29,-4.19"
         style="fill:#ffffff;fill-opacity:1;fill-rule:nonzero;stroke:none"
         id="path284" /><path
         d="m 2757.12,2750.58 h -22.35 v 13.17 h 60.87 v -13.17 h -22.35 v -56.68 h -16.17 v 56.68"
         style="fill:#ffffff;fill-opacity:1;fill-rule:nonzero;stroke:none"
         id="path286" /><path
         d="m 2809.17,2725.43 h 26.45 c -1.1,6.79 -6.19,11.18 -13.18,11.18 -7.08,0 -12.17,-4.29 -13.27,-11.18 z m 40.82,-9.08 h -40.62 c 1.49,-6.69 7.18,-10.78 15.37,-10.78 5.68,0 9.78,1.7 13.47,5.19 l 8.28,-8.98 c -4.99,-5.69 -12.47,-8.68 -22.15,-8.68 -18.56,0 -30.64,11.68 -30.64,27.64 0,16.07 12.28,27.65 28.64,27.65 15.77,0 27.94,-10.58 27.94,-27.85 0,-1.19 -0.2,-2.89 -0.29,-4.19"
         style="fill:#ffffff;fill-opacity:1;fill-rule:nonzero;stroke:none"
         id="path288" /><path
         d="m 2855.43,2698.89 5.19,11.17 c 4.79,-3.09 12.07,-5.19 18.66,-5.19 7.18,0 9.88,1.9 9.88,4.9 0,8.78 -32.44,-0.2 -32.44,21.25 0,10.18 9.19,17.37 24.85,17.37 7.39,0 15.57,-1.71 20.66,-4.7 l -5.19,-11.07 c -5.29,2.99 -10.58,3.99 -15.47,3.99 -6.98,0 -9.97,-2.2 -9.97,-4.99 0,-9.18 32.43,-0.3 32.43,-21.46 0,-9.97 -9.28,-17.06 -25.35,-17.06 -9.08,0 -18.26,2.49 -23.25,5.79"
         style="fill:#ffffff;fill-opacity:1;fill-rule:nonzero;stroke:none"
         id="path290" /><path
         d="m 2948.19,2696.49 c -3.19,-2.29 -7.88,-3.39 -12.67,-3.39 -12.67,0 -20.06,6.49 -20.06,19.26 v 22.05 h -8.28 v 11.98 h 8.28 v 13.07 h 15.57 v -13.07 h 13.37 v -11.98 h -13.37 v -21.85 c 0,-4.59 2.5,-7.09 6.68,-7.09 2.3,0 4.59,0.7 6.29,2 l 4.19,-10.98"
         style="fill:#ffffff;fill-opacity:1;fill-rule:nonzero;stroke:none"
         id="path292" /><path
         d="m 4032.18,2718.78 c 0,-43.83 -35.52,-79.35 -79.34,-79.35 -43.82,0 -79.34,35.52 -79.34,79.35 0,43.81 35.52,79.34 79.34,79.34 43.82,0 79.34,-35.53 79.34,-79.34"
         style="fill:#ffffff;fill-opacity:1;fill-rule:nonzero;stroke:none"
         id="path294" /><path
         d="m 3952.81,2718.79 v 79.3 c 30.4,0 56.9,-17.1 70.2,-42.3 l -70.2,-37"
         style="fill:#cecdcc;fill-opacity:1;fill-rule:nonzero;stroke:none"
         id="path296" /><path
         d="m 3803.89,277.852 c 0,0 43.21,204.23 -35.49,314.867 -78.71,110.621 71.13,1.261 88.36,-102.297 0,0 25.83,185.168 -50.52,315.437 -76.34,130.282 66.5,23.313 78.64,-110.918 0,0 23.39,165.2 -11.69,258.028 -35.08,92.831 25.95,33.133 49.41,-25.059 23.46,-58.18 -7.33,-202.281 -7.33,-202.281 0,0 61.23,266.441 119.18,245.242 57.96,-21.211 -86.64,-195.781 -106.7,-286.59 0,0 68.34,122.211 120.18,96.77 51.85,-25.442 -80.29,-38.102 -140.8,-220.332 l -21.25,-85.438 c 0,0 62.88,120.617 104,82.559 41.12,-38.039 -121.91,-103.719 -159.8,-286.512 l -26.19,6.524"
         style="fill:#1d2a30;fill-opacity:1;fill-rule:nonzero;stroke:none"
         id="path298" /><path
         d="m 3812.35,266.09 c 0,0 9.09,257.5 136.32,366.551 127.23,109.05 -84.82,22.718 -136.32,-96.18 0,0 24.24,229.469 154.5,362.758 130.26,133.291 -72.71,47.722 -127.24,-109.418 0,0 21.21,204.82 90.88,305.549 69.68,100.74 -21.2,47.42 -66.64,-15.28 -45.44,-62.71 -51.5,-244.461 -51.5,-244.461 0,0 6.06,337.361 -69.67,329.231 -75.74,-8.13 45.44,-260.309 42.41,-375.039 0,0 -45.44,166.73 -115.12,151.699 -69.67,-15.008 84.82,-69.551 103,-305.84 V 527 c 0,0 -39.38,163.199 -99.97,129.879 -60.58,-33.32 115.12,-160.559 106.03,-390.789 h 33.32"
         style="fill:#1d2a30;fill-opacity:1;fill-rule:nonzero;stroke:none"
         id="path300" /><path
         d="m 3814.06,290.898 h -34.76 c -3.13,181.75 -119.08,295.133 -119.04,345.082 0.01,9.032 3.81,15.981 12.74,20.899 5.62,3.082 11.04,4.48 16.28,4.48 51.26,0 83.69,-134.359 83.69,-134.359 v 108.66 0 c -14.87,193.262 -120.92,264.93 -120.94,292.852 0,6.207 5.25,10.258 17.94,12.988 3.01,0.648 5.97,0.961 8.88,0.961 64.63,0 106.24,-152.66 106.24,-152.66 0.03,1.398 0.05,2.82 0.05,4.258 0.04,88.41 -67.41,251.321 -67.41,328.411 0.01,24.58 6.86,40.43 24.95,42.37 0.9,0.1 1.79,0.15 2.66,0.15 62.74,0 67.13,-243.81 67.13,-311.908 0,-11.051 -0.12,-17.473 -0.12,-17.473 v 0 0 c 0,0 6.06,181.751 51.5,244.461 27.11,37.41 70.4,71.49 86.11,71.49 3.75,0 5.93,-1.95 5.94,-6.26 0.01,-5.76 -3.86,-15.75 -13.04,-30.96 v 0 c -3.38,-5.61 -7.48,-11.92 -12.37,-18.99 -19.78,-28.6 -35.65,-65.59 -48.25,-103.901 -3.78,-11.508 -7.26,-23.129 -10.47,-34.679 -23.72,-85.461 -32.16,-166.969 -32.16,-166.969 v 0 0 c 35.75,103.019 135.29,175.277 162.92,175.277 4.59,0 7.2,-1.996 7.19,-6.187 0,-8.481 -10.76,-25.969 -37.44,-54.032 -1.75,-1.839 -3.55,-3.711 -5.43,-5.64 -12.84,-13.137 -24.65,-27.207 -35.51,-41.91 -14.68,-19.86 -27.62,-40.868 -39.01,-62.239 -7.49,-14.039 -14.31,-28.238 -20.51,-42.39 -9.02,-20.551 -16.75,-40.981 -23.35,-60.61 -28.7,-85.351 -36.12,-155.609 -36.12,-155.609 v 0 0 c 34.9,80.57 143.53,146.18 170.33,146.18 3.87,0 6.03,-1.36 6.03,-4.231 0.01,-6.621 -11.45,-21.269 -40.04,-45.769 C 3845.46,544.172 3820,358.031 3814.06,290.898"
         style="fill:#45555c;fill-opacity:1;fill-rule:nonzero;stroke:none"
         id="path302" /><path
         d="m 3720.94,84.8594 h 154.19 c 60.72,0 109.94,49.2226 109.94,109.9496 V 215.5 H 3611 v -20.691 c 0,-60.727 49.22,-109.9496 109.94,-109.9496"
         style="fill:#4870c0;fill-opacity:1;fill-rule:nonzero;stroke:none"
         id="path304" /><path
         d="m 3604.12,173.93 h 387.83 c 23.25,0 42.11,18.851 42.11,42.109 v 32.75 c 0,23.262 -18.86,42.109 -42.11,42.109 h -387.83 c -23.26,0 -42.11,-18.847 -42.11,-42.109 v -32.75 c 0,-23.258 18.85,-42.109 42.11,-42.109"
         style="fill:#4870c0;fill-opacity:1;fill-rule:nonzero;stroke:none"
         id="path306" /><path
         d="m 3991.95,173.93 h -387.83 c -23.26,0 -42.11,18.851 -42.11,42.109 v 32.75 c 0,23.262 18.85,42.109 42.11,42.109 h 387.83 c 23.25,0 42.11,-18.847 42.11,-42.109 v -32.75 c 0,-23.258 -18.86,-42.109 -42.11,-42.109"
         style="fill:#658acf;fill-opacity:1;fill-rule:nonzero;stroke:none"
         id="path308" /><path
         d="m 1717.08,1490.93 c -4.95,-14.31 3.13,-25.94 18.07,-25.94 h 473.54 c 15.02,0 31.18,11.63 36.13,25.94 l 100.3,288.98 c 1.05,2.98 1.53,5.81 1.49,8.43 -0.13,10.18 -7.67,17.51 -19.56,17.51 h -473.54 c -15.02,0 -31.18,-11.62 -36.13,-25.94 l -100.3,-288.98"
         style="fill:#1d2a30;fill-opacity:1;fill-rule:nonzero;stroke:none"
         id="path310" /><path
         d="m 2212.31,1479.52 c 7.19,0 15.28,5.84 17.66,12.74 l 100.3,288.99 c 0.47,1.33 0.69,2.5 0.67,3.56 -0.05,4.02 -2.93,6.51 -7.52,6.51 h -473.54 c -7.18,0 -15.27,-5.83 -17.65,-12.74 l -100.31,-288.99 c -0.98,-2.84 -0.8,-5.45 0.52,-7.3 0.89,-1.26 2.72,-2.77 6.34,-2.77 h 473.53"
         style="fill:#4870c0;fill-opacity:1;fill-rule:nonzero;stroke:none"
         id="path312" /><path
         d="m 2223.15,1483.46 v 2.99 h -328.29 v 15.01 c 0,0 -8.97,3.1 -22.72,8.19 h 351.74 c 1.38,0 2.92,1.17 3.43,2.62 0.52,1.43 -0.18,2.61 -1.56,2.61 h -367.54 c -30.94,11.79 -74.43,29.5 -101.72,45.48 l 75.74,218.22 c 2.38,6.91 10.47,12.74 17.65,12.74 h 473.54 c 4.59,0 7.47,-2.49 7.52,-6.51 0,-0.05 0,-0.1 0,-0.15 0,-1.02 -0.22,-2.14 -0.67,-3.41 l -100.3,-288.99 c -1.17,-3.37 -3.7,-6.49 -6.82,-8.8 m -449.97,104.69 c -1.38,0 -2.92,-1.18 -3.43,-2.61 -0.52,-1.45 0.18,-2.62 1.56,-2.62 h 478.72 c 1.39,0 2.92,1.17 3.44,2.62 0.51,1.43 -0.19,2.61 -1.57,2.61 h -478.72 m 26.16,73.27 c -1.39,0 -2.92,-1.17 -3.44,-2.62 -0.52,-1.44 0.18,-2.62 1.57,-2.62 h 478.72 c 1.38,0 2.92,1.18 3.43,2.62 0.52,1.45 -0.18,2.62 -1.56,2.62 h -478.72 m 40.76,114.2 -18.64,-52.22 h 478.72 l 18.64,52.22 H 1840.1"
         style="fill:#dbe8f7;fill-opacity:1;fill-rule:nonzero;stroke:none"
         id="path314" /><path
         d="m 1514.37,1486.45 v -13.38 l 93.84,-24.04 h 598.28 c 9.22,0 16.66,7.45 16.66,16.67 v 20.75 h -708.78"
         style="fill:#1d2a30;fill-opacity:1;fill-rule:nonzero;stroke:none"
         id="path316" /><path
         d="M 2100.06,1451.29 H 1599.4 l -28.67,7.34 c 1.03,5.46 2.1,11.02 3.23,16.72 l 99.5,-7.7 c 6.84,-2.87 16.2,-3.97 26.57,-3.97 28.23,0 63.88,8.17 75.99,11.16 58.08,-6.91 118.84,-11.16 118.84,-11.16 v 22.77 h 120.16 v -13.38 l 85.04,-21.78"
         style="fill:#45555c;fill-opacity:1;fill-rule:nonzero;stroke:none"
         id="path318" /><path
         d="m 2300.18,1723.4 h -478.72 l 18.64,52.22 h 478.72 l -18.64,-52.22"
         style="fill:#bbd2ef;fill-opacity:1;fill-rule:nonzero;stroke:none"
         id="path320" /><path
         d="m 2276.19,1656.18 h -478.72 c -1.39,0 -2.09,1.18 -1.57,2.62 0.52,1.45 2.05,2.62 3.44,2.62 h 478.72 c 1.38,0 2.08,-1.17 1.56,-2.62 -0.51,-1.44 -2.05,-2.62 -3.43,-2.62"
         style="fill:#c4d1ea;fill-opacity:1;fill-rule:nonzero;stroke:none"
         id="path322" /><path
         d="m 2250.03,1582.92 h -478.72 c -1.38,0 -2.08,1.17 -1.56,2.62 0.51,1.43 2.05,2.61 3.43,2.61 h 478.72 c 1.38,0 2.08,-1.18 1.57,-2.61 -0.52,-1.45 -2.05,-2.62 -3.44,-2.62"
         style="fill:#c4d1ea;fill-opacity:1;fill-rule:nonzero;stroke:none"
         id="path324" /><path
         d="m 2223.88,1509.65 h -351.74 c -4.23,1.57 -8.92,3.32 -13.93,5.23 h 367.54 c 1.38,0 2.08,-1.18 1.56,-2.61 -0.51,-1.45 -2.05,-2.62 -3.43,-2.62"
         style="fill:#c4d1ea;fill-opacity:1;fill-rule:nonzero;stroke:none"
         id="path326" /><path
         d="m 2064.67,85.9609 h 52.14 l 93.68,1304.3691 h -69.17 L 2064.67,85.9609"
         style="fill:#1d2a30;fill-opacity:1;fill-rule:nonzero;stroke:none"
         id="path328" /><path
         d="m 2072.74,223.711 5.78,98.301 h 0.02 l -5.78,-98.301 h -0.02 m 54.01,0.66 7.01,97.641 h 0.02 l -7.02,-97.641 c -0.07,0 0.05,0 -0.01,0 m 7.21,100.141 h -0.02 l 8.95,124.617 h 0.03 l -8.96,-124.617 m -55.27,0 h -0.02 l 7.34,124.617 v 0 l -7.32,-124.617 m 64.41,127.117 h -0.03 l 32.03,445.992 h 0.06 L 2143.1,451.629 m -56.94,0 h -0.01 l 2.81,47.66 -2.8,-47.66 m 89.18,448.492 h -0.06 l 32.65,454.469 0.23,3.08 h 0.12 l -2.36,-32.13 -30.58,-425.419"
         style="fill:#ffffff;fill-opacity:1;fill-rule:nonzero;stroke:none"
         id="path330" /><path
         d="m 2142.92,449.129 h -0.03 l 0.18,2.5 h 0.03 l -0.18,-2.5 m -56.91,0 v 0 l 0.14,2.5 h 0.01 l -0.15,-2.5"
         style="fill:#f3f3f2;fill-opacity:1;fill-rule:nonzero;stroke:none"
         id="path332" /><path
         d="m 2133.78,322.012 h -0.02 l 0.18,2.5 h 0.02 l -0.18,-2.5 m -55.24,0 h -0.02 l 0.15,2.5 h 0.02 l -0.15,-2.5"
         style="fill:#f3f3f2;fill-opacity:1;fill-rule:nonzero;stroke:none"
         id="path334" /><path
         d="m 2175.16,897.621 h -0.06 l 0.18,2.5 h 0.06 l -0.18,-2.5"
         style="fill:#f3f3f2;fill-opacity:1;fill-rule:nonzero;stroke:none"
         id="path336" /><path
         d="m 2116.81,85.9609 h -52.18 l 8.11,137.7501 h 0.02 l -8.09,-137.7501 h 52.14 l 9.94,138.4101 c 0.06,0 -0.06,0 0.01,0 l -9.95,-138.4101"
         style="fill:#fafafa;fill-opacity:1;fill-rule:nonzero;stroke:none"
         id="path338" /><path
         d="m 2116.81,85.9609 h -52.14 l 8.09,137.7501 5.78,98.301 0.15,2.5 7.32,124.617 0.15,2.5 2.8,47.66 17.53,297.941 c 12.49,63.321 20.4,122.25 20.41,169.899 0,23.18 -1.87,43.691 -6,60.741 -0.2,0.82 -0.43,1.64 -0.69,2.46 l 17.37,295.21 0.18,3.1 h 68.16 l 2.01,25.95 -32.65,-454.469 -0.18,-2.5 -32.03,-445.992 -0.18,-2.5 -8.95,-124.617 -0.18,-2.5 -7.01,-97.641 -9.94,-138.4101"
         style="fill:#45555c;fill-opacity:1;fill-rule:nonzero;stroke:none"
         id="path340" /><path
         d="m 2137.69,1328.64 h -0.11 l 1.76,28.08 -1.65,-28.08"
         style="fill:#cecdcc;fill-opacity:1;fill-rule:nonzero;stroke:none"
         id="path342" /><path
         d="m 2137.76,1328.64 h -0.07 l 1.65,28.08 0.06,0.95 h 0.1 l -1.74,-29.03"
         style="fill:#182124;fill-opacity:1;fill-rule:nonzero;stroke:none"
         id="path344" /><path
         d="m 2207.93,1354.59 0.22,3.08 h 0.01 l -0.23,-3.08"
         style="fill:#cfcecc;fill-opacity:1;fill-rule:nonzero;stroke:none"
         id="path346" /><path
         d="m 2205.92,1328.64 h -68.16 l 1.74,29.03 h 68.65 l -0.22,-3.08 -2.01,-25.95"
         style="fill:#364248;fill-opacity:1;fill-rule:nonzero;stroke:none"
         id="path348" /><path
         d="m 1681.99,85.9609 h 52.15 l 8.51,1304.3691 h -69.17 l 8.51,-1304.3691"
         style="fill:#1d2a30;fill-opacity:1;fill-rule:nonzero;stroke:none"
         id="path350" /><path
         d="m 1681.13,218.309 c -0.01,0.011 -0.04,0.023 -0.04,0.023 l -0.68,103.68 h 0.04 l 0.68,-103.703 m -0.7,106.203 h -0.04 l -0.82,124.617 h 0.05 l 0.81,-124.617 m -0.83,127.117 h -0.04 l -2.66,406.621 h 0.05 l 2.65,-406.621"
         style="fill:#ffffff;fill-opacity:1;fill-rule:nonzero;stroke:none"
         id="path352" /><path
         d="m 1679.62,449.129 h -0.05 l -0.01,2.5 h 0.04 l 0.02,-2.5"
         style="fill:#f5f5f5;fill-opacity:1;fill-rule:nonzero;stroke:none"
         id="path354" /><path
         d="m 1680.45,322.012 h -0.04 l -0.02,2.5 h 0.04 l 0.02,-2.5"
         style="fill:#f5f5f5;fill-opacity:1;fill-rule:nonzero;stroke:none"
         id="path356" /><path
         d="m 1734.13,85.9609 h -52.18 l -0.54,82.7301 c 0.01,0 0.03,-0.011 0.04,-0.011 l 0.54,-82.7191 h 52.14"
         style="fill:#fafbfb;fill-opacity:1;fill-rule:nonzero;stroke:none"
         id="path358" /><path
         d="m 1737.57,611.84 1.61,246.41 v 0 l -1.61,-246.41"
         style="fill:#ffffff;fill-opacity:1;fill-rule:nonzero;stroke:none"
         id="path360" /><path
         d="m 1734.13,85.9609 h -52.14 l -0.54,82.7191 c 23.71,-6.051 41.79,-11.442 53.12,-15.008 l -0.44,-67.7111 m 0.71,109.1601 c -14.65,7.117 -32.59,15.109 -53.71,23.188 l -0.68,103.703 -0.02,2.5 -0.81,124.617 -0.02,2.5 -2.65,406.621 h 62.23 l -1.61,-246.41 -2.73,-416.719"
         style="fill:#5d6c72;fill-opacity:1;fill-rule:nonzero;stroke:none"
         id="path362" /><path
         d="m 1674.58,1212.63 -0.01,0.01 -0.5,77.46 v 0 l 0.51,-77.47 m 67.73,124.64 v 0 l 0.13,20.4 v 0 l -0.13,-20.4 m -68.55,1.47 v 0 l -0.13,18.93 h 0.01 l 0.12,-18.93"
         style="fill:#cecdcc;fill-opacity:1;fill-rule:nonzero;stroke:none"
         id="path364" /><path
         d="m 1674.64,1212.62 c -0.02,0.01 -0.05,0.01 -0.06,0.01 l -0.51,77.47 h 0.06 l 0.51,-77.48 m 67.67,124.65 h -0.01 l 0.14,20.4 v 0 l -0.13,-20.4 m -68.5,1.47 h -0.05 l -0.12,18.93 h 0.05 l 0.12,-18.93"
         style="fill:#cfcdcc;fill-opacity:1;fill-rule:nonzero;stroke:none"
         id="path366" /><path
         d="m 1727.9,1202.18 c -17.76,3.78 -35.56,7.27 -53.26,10.44 l -0.51,77.48 h 22.9 c 25.97,0 45.23,-24.08 39.53,-49.42 l -8.66,-38.5 m 14.4,135.09 c -3.44,0.96 -7.09,1.47 -10.88,1.47 h -57.61 l -0.12,18.93 h 68.75 l -0.14,-20.4"
         style="fill:#475459;fill-opacity:1;fill-rule:nonzero;stroke:none"
         id="path368" /><path
         d="m 1128.39,85.9609 h 52.14 l 93.69,1304.3691 h -69.18 L 1128.39,85.9609"
         style="fill:#1d2a30;fill-opacity:1;fill-rule:nonzero;stroke:none"
         id="path370" /><path
         d="m 1188.48,196.629 0.14,1.961 c 0.01,0 0,0 0.01,0 l -0.14,-1.961 c -0.05,0 0.04,0 -0.01,0 m -50.44,53.902 11.69,198.598 v 0 l -11.67,-198.59 c -0.01,-0.008 -0.01,-0.008 -0.02,-0.008 m 55.1,10.981 13.48,187.617 h 0.02 L 1193.15,261.52 c -0.01,-0.008 0,0 -0.01,-0.008 m 13.68,190.117 h -0.02 L 1236,858.25 h 0.05 l -29.23,-406.621 m -56.94,0 v 0 l 2.08,35.422 -2.08,-35.422"
         style="fill:#ffffff;fill-opacity:1;fill-rule:nonzero;stroke:none"
         id="path372" /><path
         d="m 1206.64,449.129 h -0.02 l 0.18,2.5 h 0.02 l -0.18,-2.5 m -56.91,0 v 0 l 0.15,2.5 v 0 l -0.15,-2.5"
         style="fill:#f5f5f5;fill-opacity:1;fill-rule:nonzero;stroke:none"
         id="path374" /><path
         d="m 1180.53,85.9609 h -52.17 l 6.15,104.4881 c 0.01,0 0.01,0 0.02,0 l -6.14,-104.4881 h 52.14 l 7.95,110.6681 c 0.05,0 -0.04,0 0.01,0 l -7.96,-110.6681"
         style="fill:#fafbfb;fill-opacity:1;fill-rule:nonzero;stroke:none"
         id="path376" /><path
         d="m 1180.53,85.9609 h -52.14 l 6.14,104.4881 c 17.06,2.922 35.14,5.68 54.09,8.141 l -0.14,-1.961 -7.95,-110.6681 m -42.47,164.5781 11.67,198.59 0.15,2.5 2.08,35.422 21.84,371.199 h 62.2 l -29.2,-406.621 -0.18,-2.5 -13.48,-187.617 c -19.36,-3.231 -37.74,-6.942 -55.08,-10.973"
         style="fill:#5d6c72;fill-opacity:1;fill-rule:nonzero;stroke:none"
         id="path378" /><path
         d="m 2661.17,85.9609 h 52.15 L 2636.66,1390.33 h -69.17 L 2661.17,85.9609"
         style="fill:#1d2a30;fill-opacity:1;fill-rule:nonzero;stroke:none"
         id="path380" /><path
         d="m 2621.69,635.648 -18.83,261.973 h 0.02 l 18.81,-261.973 m -18.99,264.473 h -0.02 l -15.4,214.219 h 0.03 l 15.39,-214.219"
         style="fill:#ffffff;fill-opacity:1;fill-rule:nonzero;stroke:none"
         id="path382" /><path
         d="m 2602.88,897.621 h -0.02 l -0.18,2.5 h 0.02 l 0.18,-2.5"
         style="fill:#f5f5f5;fill-opacity:1;fill-rule:nonzero;stroke:none"
         id="path384" /><path
         d="m 2587.31,1114.34 h -0.03 l -10.07,139.98 h 0.05 l 10.05,-139.98 m -12.2,169.88 h -0.04 l -2.98,41.32 -2.35,32.13 h 0.1 l 5.27,-73.45"
         style="fill:#d9e6f6;fill-opacity:1;fill-rule:nonzero;stroke:none"
         id="path386" /><path
         d="m 2577.26,1254.32 h -0.05 l -2.14,29.9 h 0.04 l 2.15,-29.9"
         style="fill:#9ba6ba;fill-opacity:1;fill-rule:nonzero;stroke:none"
         id="path388" /><path
         d="m 2713.3,85.9609 h -52.09 l -39.52,549.6871 -18.81,261.973 -0.18,2.5 -15.39,214.219 -10.05,139.98 -2.15,29.9 -5.27,73.45 h 0.01 l 2.24,-29.03 h 68.16 l 0.19,-3.1 72.86,-1239.5791"
         style="fill:#5d6c72;fill-opacity:1;fill-rule:nonzero;stroke:none"
         id="path390" /><path
         d="m 2640.44,1328.64 h -0.15 l -1.71,29.03 h 0.04 l 1.82,-29.03"
         style="fill:#9cacd3;fill-opacity:1;fill-rule:nonzero;stroke:none"
         id="path392" /><path
         d="m 2640.29,1328.64 h -0.04 l -1.73,29.03 h 0.06 l 1.71,-29.03"
         style="fill:#182124;fill-opacity:1;fill-rule:nonzero;stroke:none"
         id="path394" /><path
         d="m 2640.25,1328.64 h -68.16 l -2.24,29.03 h 68.67 l 1.73,-29.03"
         style="fill:#475459;fill-opacity:1;fill-rule:nonzero;stroke:none"
         id="path396" /><path
         d="m 1171.83,1357.67 h 1498.05 c 11.94,0 21.62,9.67 21.62,21.62 V 1423 H 1150.21 v -43.71 c 0,-11.95 9.68,-21.62 21.62,-21.62"
         style="fill:#4870c0;fill-opacity:1;fill-rule:nonzero;stroke:none"
         id="path398" /><path
         d="M 2691.5,1390.33 H 1558.91 c 1.18,7.6 2.49,15.65 3.91,24.14 H 2691.5 v -23.51 -0.63"
         style="fill:#395eb4;fill-opacity:1;fill-rule:nonzero;stroke:none"
         id="path400" /><path
         d="m 1117.89,1414.47 h 1605.93 c 10.16,0 18.4,8.25 18.4,18.41 0,10.17 -8.24,18.41 -18.4,18.41 H 1117.89 c -10.17,0 -18.4,-8.24 -18.4,-18.41 0,-10.16 8.23,-18.41 18.4,-18.41"
         style="fill:#4870c0;fill-opacity:1;fill-rule:nonzero;stroke:none"
         id="path402" /><path
         d="m 2672.49,1497.63 c 0,-30.48 -8.51,-46.31 -8.51,-46.31 h -365.91 v 8.68 h 7.41 v 75.33 h -7.41 v 8.68 h 365.91 c 0,0 8.51,-16.33 8.51,-46.38"
         style="fill:#1d2a30;fill-opacity:1;fill-rule:nonzero;stroke:none"
         id="path404" /><path
         d="m 2663.98,1451.32 h -59.58 c 0,0 8.52,15.83 8.52,46.31 0,30.05 -8.52,46.38 -8.52,46.38 h 32.61 v 0 h 26.97 c 0,0 8.51,-16.33 8.51,-46.38 0,-11.95 -1.3,-21.65 -2.89,-29.03 -2.47,-11.43 -5.62,-17.28 -5.62,-17.28 m -127.67,0 h -68.09 c 0,0 8.51,15.83 8.51,46.31 0,30.05 -8.51,46.38 -8.51,46.38 h 32.61 v 0 h 35.48 c 0,0 8.51,-16.33 8.51,-46.38 0,-30.48 -8.51,-46.31 -8.51,-46.31"
         style="fill:#45555c;fill-opacity:1;fill-rule:nonzero;stroke:none"
         id="path406" /><path
         d="m 2468.22,1451.32 h -170.15 v 8.68 h 7.41 v 75.33 h -7.41 v 8.68 h 32.61 137.54 c 0,0 8.51,-16.33 8.51,-46.38 0,-30.48 -8.51,-46.31 -8.51,-46.31 m -162.74,84.01 V 1460 h 146.31 c 0,0 6.9,12.86 6.9,37.63 0,24.42 -6.9,37.7 -6.9,37.7 h -146.31"
         style="fill:#364248;fill-opacity:1;fill-rule:nonzero;stroke:none"
         id="path408" /><path
         d="m 2451.79,1460 h -146.31 v 75.33 h 146.31 c 0,0 6.9,-13.28 6.9,-37.7 0,-24.77 -6.9,-37.63 -6.9,-37.63"
         style="fill:#dcdedc;fill-opacity:1;fill-rule:nonzero;stroke:none"
         id="path410" /><path
         d="m 2604.4,1451.32 h -68.09 c 0,0 8.51,15.83 8.51,46.31 0,30.05 -8.51,46.38 -8.51,46.38 h 32.61 v 0 h 35.48 c 0,0 8.52,-16.33 8.52,-46.38 0,-30.48 -8.52,-46.31 -8.52,-46.31"
         style="fill:#b8bdbd;fill-opacity:1;fill-rule:nonzero;stroke:none"
         id="path412" /><path
         d="m 2705.11,1590.31 c 0,-30.47 -8.52,-46.3 -8.52,-46.3 h -365.91 v 8.69 h 7.41 v 75.33 h -7.41 v 8.68 h 365.91 c 0,0 8.52,-16.35 8.52,-46.4"
         style="fill:#4870c0;fill-opacity:1;fill-rule:nonzero;stroke:none"
         id="path414" /><path
         d="m 2500.83,1544.01 h -170.15 v 8.69 h 7.41 v 75.33 h -7.41 v 8.68 h 170.15 c 0,0 8.51,-16.35 8.51,-46.4 0,-30.47 -8.51,-46.3 -8.51,-46.3 m -162.74,84.02 v -75.33 h 146.31 c 0,0 6.89,12.85 6.89,37.61 0,24.44 -6.89,37.72 -6.89,37.72 h -146.31"
         style="fill:#395eb4;fill-opacity:1;fill-rule:nonzero;stroke:none"
         id="path416" /><path
         d="m 2484.4,1552.7 h -146.31 v 75.33 h 146.31 c 0,0 6.89,-13.28 6.89,-37.72 0,-24.76 -6.89,-37.61 -6.89,-37.61"
         style="fill:#d8e3f5;fill-opacity:1;fill-rule:nonzero;stroke:none"
         id="path418" /><path
         d="m 2637.01,1544.01 h -68.09 c 0,0 8.51,15.83 8.51,46.3 0,30.05 -8.51,46.4 -8.51,46.4 h 68.09 c 0,0 8.51,-16.35 8.51,-46.4 0,-30.47 -8.51,-46.3 -8.51,-46.3"
         style="fill:#395eb4;fill-opacity:1;fill-rule:nonzero;stroke:none"
         id="path420" /><path
         d="m 1477.54,308.922 -32.19,-149.063 -76.39,1.383 31.99,147.68 h 76.59"
         style="fill:#f9a95e;fill-opacity:1;fill-rule:nonzero;stroke:none"
         id="path422" /><path
         d="m 1466.12,164.301 c 9.2,5.078 22.27,10.66 27.14,8.41 1.03,-0.492 1.73,-1.481 1.84,-2.609 0.58,-2.243 -0.05,-4.602 -1.67,-6.25 -3.82,-3.282 -13.85,-3.082 -27.31,0.449 m -1.1,3.789 -1.56,-0.879 c 0.29,7.23 1.65,19.289 6.44,23.348 1.05,0.98 2.46,1.48 3.89,1.371 l 0.87,-0.11 c 2.52,-0.449 3.1,-1.742 3.19,-2.781 0.44,-5.16 -6.35,-15.359 -12.83,-20.949 m -8.19,-4.418 1.59,-0.203 1.93,-0.719 0.32,-0.531 0.64,0.051 c 6.48,-2.028 13.14,-3.348 19.9,-3.938 5.03,-0.902 10.21,0.117 14.53,2.859 2.74,2.438 3.81,6.239 2.77,9.77 -0.27,2.301 -1.75,4.301 -3.84,5.309 -4.89,2.25 -13.7,-0.579 -21.15,-3.899 4.7,5.848 8.19,12.719 7.52,17.461 -0.48,3.09 -3.37,5.469 -6.49,5.77 -2.75,0.5 -6.32,-0.231 -8.49,-2 -7.95,-6.864 -9.23,-28.454 -9.23,-29.782 v -0.058 -0.02 -0.07"
         style="fill:#4870c0;fill-opacity:1;fill-rule:nonzero;stroke:none"
         id="path424" /><path
         d="m 1454.99,172.988 -85.52,5.332 c -2.98,0.321 -5.65,-1.828 -5.96,-4.8 l -0.01,-0.09 -8.4,-67.469 c -0.46,-7.3712 5.1,-13.7501 12.47,-14.3008 29.87,-1.3789 44.2,-0.5391 81.85,-2.5899 23.1,-1.3789 68.63,-6.3008 100.51,-3.2109 31.87,3.0898 27.97,34.5116 14.21,36.0196 -32.65,3.723 -75.88,27.703 -96.31,45.902 -3.59,3.11 -8.1,4.949 -12.84,5.207"
         style="fill:#1d2a30;fill-opacity:1;fill-rule:nonzero;stroke:none"
         id="path426" /><path
         d="m 1924.16,308.922 -32.18,-149.063 -76.39,1.383 31.98,147.68 h 76.59"
         style="fill:#f9a95e;fill-opacity:1;fill-rule:nonzero;stroke:none"
         id="path428" /><path
         d="m 1832.71,240.309 h -0.08 l 5.41,24.902 h 0.07 l -5.4,-24.902 m 79.88,14.992 1.05,4.89 v 0 l -1.05,-4.89"
         style="fill:#cecdcc;fill-opacity:1;fill-rule:nonzero;stroke:none"
         id="path430" /><path
         d="m 1908.25,235.25 -75.54,5.059 5.4,24.902 75.53,-5.02 -1.05,-4.89 -4.34,-20.051"
         style="fill:#ca8849;fill-opacity:1;fill-rule:nonzero;stroke:none"
         id="path432" /><path
         d="m 1912.74,164.301 c 9.21,5.078 22.27,10.66 27.14,8.41 1.03,-0.492 1.73,-1.481 1.84,-2.609 0.58,-2.243 -0.05,-4.602 -1.67,-6.25 -3.81,-3.282 -13.84,-3.082 -27.31,0.449 z m -1.09,3.789 -1.57,-0.879 c 0.29,7.23 1.65,19.289 6.44,23.348 1.05,0.98 2.46,1.48 3.9,1.371 l 0.86,-0.11 c 2.52,-0.449 3.1,-1.742 3.19,-2.781 0.44,-5.16 -6.34,-15.359 -12.82,-20.949 z m -8.2,-4.418 1.6,-0.203 1.92,-0.719 0.32,-0.531 0.64,0.051 c 6.48,-2.028 13.14,-3.348 19.9,-3.938 5.03,-0.902 10.21,0.117 14.53,2.859 2.74,2.438 3.81,6.239 2.77,9.77 -0.27,2.301 -1.75,4.301 -3.84,5.309 -4.89,2.25 -13.69,-0.579 -21.15,-3.899 4.71,5.848 8.19,12.719 7.52,17.461 -0.47,3.09 -3.36,5.469 -6.49,5.77 -2.75,0.5 -6.32,-0.231 -8.48,-2 -7.96,-6.864 -9.24,-28.454 -9.24,-29.782 v -0.058 -0.02 -0.07"
         style="fill:#4870c0;fill-opacity:1;fill-rule:nonzero;stroke:none"
         id="path434" /><path
         d="m 1901.61,172.988 -85.52,5.332 c -2.97,0.321 -5.64,-1.828 -5.96,-4.8 l -0.01,-0.09 -8.39,-67.469 c -0.47,-7.3712 5.09,-13.7501 12.46,-14.3008 29.87,-1.3789 44.2,-0.5391 81.86,-2.5899 23.1,-1.3789 68.62,-6.3008 100.5,-3.2109 31.88,3.0898 27.97,34.5116 14.21,36.0196 -32.65,3.723 -75.88,27.703 -96.31,45.902 -3.58,3.11 -8.1,4.949 -12.84,5.207"
         style="fill:#1d2a30;fill-opacity:1;fill-rule:nonzero;stroke:none"
         id="path436" /><path
         d="M 1614.44,592.5 C 1564.08,401.031 1503.16,263.91 1503.16,263.91 l -139.4,10.641 c 0,0 57.21,223.398 77.92,428 12.83,126.289 11.69,230.808 -25.27,238.89 -23.29,5.129 -77.74,4.938 -147.48,3.329 v 259.99 c 195.75,-40.2 390.55,-116.03 405.38,-176.85 20.71,-85.609 -15.49,-266.828 -59.87,-435.41"
         style="fill:#4870c0;fill-opacity:1;fill-rule:nonzero;stroke:none"
         id="path438" /><path
         d="m 1529.67,329.199 -143.99,6.742 v 32.438 c 18.43,84.031 43.67,212.43 56,334.172 4.6,45.258 7.4,87.73 7.41,123.961 -0.01,-36.231 -2.81,-78.703 -7.41,-123.961 59.78,-38.301 120.68,-77.071 172.76,-110.051 -13.52,-51.41 -27.8,-98.898 -41.46,-140.871 -0.27,-0.828 -0.55,-1.668 -0.82,-2.5 -15.74,-48.199 -30.61,-88.988 -42.49,-119.93"
         style="fill:#8daee0;fill-opacity:1;fill-rule:nonzero;stroke:none"
         id="path440" /><path
         d="m 1614.44,592.5 c -52.08,32.98 -112.98,71.75 -172.76,110.051 4.6,45.258 7.4,87.73 7.41,123.961 v 0 c 0,11.207 -0.27,21.828 -0.84,31.738 h 223.06 c -11.57,-81.051 -33.04,-175.219 -56.87,-265.75 v 0"
         style="fill:#678acf;fill-opacity:1;fill-rule:nonzero;stroke:none"
         id="path442" /><path
         d="m 1538.17,1230.3 12.29,98.72 -398.99,65.68 c 0,0 -130.47,-258.54 -66.61,-385.25 39.41,-78.188 334.53,-72.438 552.7,-66.7 106.13,2.801 194.05,5.59 225.47,-1.27 96.96,-21.199 -52.64,-666.898 -52.64,-666.898 l 139.39,-10.633 c 0,0 215.41,581.129 171.12,763.921 -19.33,79.77 -348.05,185.36 -582.73,202.43"
         style="fill:#4870c0;fill-opacity:1;fill-rule:nonzero;stroke:none"
         id="path444" /><path
         d="m 1973.05,329.359 -149.07,6.969 c 24.1,113.024 71.76,354.531 71.74,496.07 -0.01,61.332 -8.97,103.891 -32.69,109.082 -10.04,2.192 -25.84,3.399 -46.16,3.93 -0.03,43.68 -35.44,79.07 -79.13,79.07 h -28.07 l 40.02,172.92 c 183.69,-41.56 357.32,-112.22 371.21,-169.53 4.13,-17.05 6,-37.561 6,-60.741 -0.01,-47.649 -7.92,-106.578 -20.41,-169.899 -0.01,-0.058 -0.02,-0.121 -0.04,-0.179 -22.57,-114.41 -60.06,-243.141 -92.7,-345.422 -0.27,-0.848 -0.53,-1.649 -0.8,-2.5 -15,-46.918 -28.95,-88.188 -39.9,-119.77 m -285.13,695.121 h -362.17 c -35.67,75.18 -62.22,167.95 -81.99,265.62 h 301.86 l -7.45,-59.8 v 0 c 59.4,-4.32 124.82,-14.31 189.73,-28.12 l -39.98,-177.7"
         style="fill:#b4caec;fill-opacity:1;fill-rule:nonzero;stroke:none"
         id="path446" /><path
         d="m 1757.67,2033.25 c -3.4,-5.94 -2.98,-12.59 0.91,-14.79 3.9,-2.19 9.72,0.79 13.11,6.74 3.4,5.95 3.05,12.53 -0.78,14.8 -3.83,2.27 -9.49,-1.12 -13.24,-6.75"
         style="fill:#1d2a30;fill-opacity:1;fill-rule:nonzero;stroke:none"
         id="path448" /><path
         d="m 1751.39,2065.14 -1.95,1.75 c -0.89,2.04 0.03,4.41 2.05,5.33 11.81,5.41 25.51,4.72 36.71,-1.85 1.83,-1.12 2.4,-3.51 1.28,-5.33 l -0.16,-0.24 c -1.28,-1.78 -3.71,-2.26 -5.57,-1.12 -8.91,5.04 -19.7,5.47 -28.98,1.15 -1.12,-0.38 -2.35,-0.27 -3.38,0.31"
         style="fill:#1d2a30;fill-opacity:1;fill-rule:nonzero;stroke:none"
         id="path450" /><path
         d="m 1763.29,2040.84 c -3.31,-22.25 -3.53,-44.84 -0.66,-67.14 -16.36,-3.68 -31.49,10.97 -31.49,10.97 l 32.15,56.17"
         style="fill:#f03e4c;fill-opacity:1;fill-rule:nonzero;stroke:none"
         id="path452" /><path
         d="m 1727.48,1957.25 c -2.35,-2.93 -4.77,-5.75 -7.33,-8.35 -15.21,-15.76 -34.34,-25.75 -54.28,-29.8 -5.23,-1.1 -10.54,-1.77 -15.86,-2.06 -28.04,-1.42 -56.04,8.61 -75.64,30.26 -8.08,8.75 -14.8,19.6 -19.45,32.38 -18.63,50.16 0.36,89.73 27.12,159.18 5.53,15.05 14.43,28.62 26.18,39.46 41.03,38.43 105.47,36.21 143.8,-4.79 54.15,-57.12 17.7,-161.97 -24.54,-216.28"
         style="fill:#f47272;fill-opacity:1;fill-rule:nonzero;stroke:none"
         id="path454" /><path
         d="m 1644.78,1916.91 c -15.41,0 -30.66,3.47 -44.34,10.45 3.9,5.77 8.59,11.27 13.74,16.54 3.12,3.26 6.44,6.4 9.87,9.45 13.58,-7.27 29.66,-18.35 41.82,-34.25 -5.23,-1.1 -10.54,-1.77 -15.86,-2.06 -1.74,-0.09 -3.48,-0.13 -5.23,-0.13"
         style="fill:#cd5a58;fill-opacity:1;fill-rule:nonzero;stroke:none"
         id="path456" /><path
         d="m 1440.56,1916.5 c 6.84,-48.98 113.85,-67.26 113.85,-67.26 0,0 52.82,-24.04 54.98,-3.09 -21.85,25.3 -24.27,47.33 -16.73,66.67 4.4,11.26 12.21,21.55 21.52,31.08 4.83,5.06 10.17,9.82 15.59,14.38 l -32.65,134.03 c -23.52,-50.94 -103.88,-168.56 -156.56,-175.81"
         style="fill:#f47272;fill-opacity:1;fill-rule:nonzero;stroke:none"
         id="path458" /><path
         d="m 1745.95,2211.44 c 0,0 22.85,2.84 40.38,-39.79 14.77,-35.92 -19.99,-43.69 -18.49,-81.88 1.5,-38.21 -33.37,-59.37 -33.37,-59.37 0,0 -29.33,-25.29 -54.27,-11.58 0,0 -32.64,-16 -41.23,-43.93 -8.58,-27.93 -59.07,22.52 -104.55,14.88 0,0 -30.76,28.75 -28.48,98.59 1.5,46.08 21.9,87.55 21.9,87.55 0,0 13.28,41.59 65.28,64.81 52,23.23 143.03,5.57 152.83,-29.28"
         style="fill:#1d2a30;fill-opacity:1;fill-rule:nonzero;stroke:none"
         id="path460" /><path
         d="m 1673.93,2039.4 c -2.61,-16.56 0.6,-31.04 8.93,-40.27 11.15,-12.09 28.98,3.24 36.2,24.5 6.27,18.89 8.42,48.51 -7.86,51.83 -16.28,3.32 -33.84,-15.68 -37.27,-36.06"
         style="fill:#f47272;fill-opacity:1;fill-rule:nonzero;stroke:none"
         id="path462" /><path
         d="m 1597.08,1898.66 c 0,0 -43.66,41.45 -104.65,48.7 -60.98,7.27 -80.88,-48.7 -80.88,-48.7 l 179.45,-36.34 6.08,36.34"
         style="fill:#4870c0;fill-opacity:1;fill-rule:nonzero;stroke:none"
         id="path464" /><path
         d="m 1566.64,1520.02 73.05,-10.95 c 0,0 24.81,8.2 51,10.95 26.18,2.75 56.51,0 56.51,0 0,0 33.08,-12.4 33.08,-44.1 0,0 -77.19,-20.67 -106.82,-8.27 l -106.82,8.27 v 44.1"
         style="fill:#f47272;fill-opacity:1;fill-rule:nonzero;stroke:none"
         id="path466" /><path
         d="m 1700.03,1463.68 c -10.37,0 -19.73,1.1 -26.57,3.97 l -99.5,7.7 c 0.35,1.79 0.7,3.59 1.06,5.4 2.34,11.79 4.87,24.1 7.61,36.87 l 57.06,-8.55 c 0,0 9.19,3.04 22.29,6.03 5.67,-11.81 11.79,-19.97 18.32,-22.64 16.61,-6.79 55.52,-12.84 95.72,-17.62 -12.11,-2.99 -47.76,-11.16 -75.99,-11.16"
         style="fill:#cd5a58;fill-opacity:1;fill-rule:nonzero;stroke:none"
         id="path468" /><path
         d="m 1685.4,1876.05 c -14.95,-41.6 -28.33,-81.73 -40.14,-120.2 -7.52,-23.83 -14.42,-47.14 -20.8,-69.61 -5.32,-18.92 -10.24,-37.22 -14.84,-54.98 -2.19,-8.57 -4.39,-17.04 -6.48,-25.4 -11.5,-46.09 -20.8,-88.11 -28.12,-125.11 -21.94,-110.16 -27.07,-176.33 -27.07,-176.33 l -410.24,51.32 c 14.21,70.45 25.29,132.02 40.76,198.38 8.57,36.38 18.29,74.21 30.84,115.71 8.78,29.79 19.02,61.46 31.14,95.84 41.19,118.11 79.12,150.82 79.12,150.82 157.83,25.31 365.83,-40.44 365.83,-40.44"
         style="fill:#4870c0;fill-opacity:1;fill-rule:nonzero;stroke:none"
         id="path470" /><path
         d="m 1821.82,1512.4 73.04,-10.94 c 0,0 24.81,8.19 51,10.94 26.19,2.76 56.51,0 56.51,0 0,0 33.08,-12.4 33.08,-44.1 0,0 -77.18,-20.67 -106.82,-8.27 l -106.81,8.27 v 44.1"
         style="fill:#f47272;fill-opacity:1;fill-rule:nonzero;stroke:none"
         id="path472" /><path
         d="m 1348.96,268.031 165.99,-11.019 24.43,71.738 -182.87,8.559 -7.55,-69.278"
         style="fill:#4870c0;fill-opacity:1;fill-rule:nonzero;stroke:none"
         id="path474" /><path
         d="m 1516.67,262.082 c -39.6,6.457 -83.32,10.93 -130.99,12.148 v 61.711 l 153.7,-7.191 -1.45,-4.238 -0.85,-2.5 -20.41,-59.93"
         style="fill:#658acf;fill-opacity:1;fill-rule:nonzero;stroke:none"
         id="path476" /><path
         d="m 1795.59,268.031 165.98,-11.019 24.43,71.738 -182.87,8.559 -7.54,-69.278"
         style="fill:#4870c0;fill-opacity:1;fill-rule:nonzero;stroke:none"
         id="path478" /><path
         d="m 1961.57,257.012 -47.93,3.179 -75.53,5.02 -42.52,2.82 7.54,69.278 182.87,-8.559 -1.45,-4.238 -0.85,-2.5 -22.13,-65"
         style="fill:#658acf;fill-opacity:1;fill-rule:nonzero;stroke:none"
         id="path480" /><path
         d="m 1136.84,1349.77 184.87,-24.24 5.98,27.25 -185.19,26.95 -5.66,-29.96"
         style="fill:#100f0d;fill-opacity:1;fill-rule:nonzero;stroke:none"
         id="path482" /><path
         d="m 1343.07,1352.63 -2.24,-27.1 170.85,-23.5 v 26.78 l -168.61,23.82"
         style="fill:#100f0d;fill-opacity:1;fill-rule:nonzero;stroke:none"
         id="path484" /><path
         d="m 1522.28,1327.34 v -25.31 l 24.8,-3.31 v 24.46 l -24.8,4.16"
         style="fill:#100f0d;fill-opacity:1;fill-rule:nonzero;stroke:none"
         id="path486" /><path
         d="m 1673.04,1852.06 c 33.37,-6.76 50.68,-238.7 58.1,-269.4 6.49,-26.83 163.72,-81.2 163.72,-81.2 v -37.78 c 0,0 -173.96,12.17 -214.56,28.78 -40.61,16.61 -65.56,245.9 -65.56,245.9 l 58.3,113.7"
         style="fill:#f47272;fill-opacity:1;fill-rule:nonzero;stroke:none"
         id="path488" /><path
         d="m 1551.65,1338.74 h -110.27 l -98.31,13.89 -1.15,-13.89 h -17.31 l 3.08,14.04 -98.01,14.26 c -14.93,90.45 -24.72,182.21 -31.13,265.7 3.35,12.06 6.92,24.41 10.76,37.09 8.78,29.79 19.02,61.46 31.14,95.84 41.19,118.11 79.12,150.82 79.12,150.82 25.46,4.09 52.26,5.8 79.24,5.8 140.31,0 286.59,-46.24 286.59,-46.24 -3.07,-8.55 -6.07,-17.02 -9.01,-25.44 -1.1,0.73 -2.21,1.22 -3.35,1.45 l -41.32,-80.59 -11.65,13.43 c 0,0 -23.31,-83.61 -10.45,-153.64 -2.19,-8.57 -4.39,-17.04 -6.48,-25.4 -7.83,-31.4 -14.65,-60.91 -20.51,-88.24 -2.74,-12.77 -5.27,-25.08 -7.61,-36.87 -0.36,-1.81 -0.71,-3.61 -1.06,-5.4 v 0 c -1.13,-5.7 -2.2,-11.26 -3.23,-16.72 -0.47,-2.47 -0.93,-4.92 -1.38,-7.34 -2.42,-13.04 -4.59,-25.33 -6.53,-36.82 -1.42,-8.49 -2.73,-16.54 -3.91,-24.14 -1.88,-12.07 -3.46,-22.98 -4.79,-32.66 -0.95,-6.95 -1.77,-13.28 -2.47,-18.93"
         style="fill:#658acf;fill-opacity:1;fill-rule:nonzero;stroke:none"
         id="path490" /><path
         d="m 1324.61,1338.74 h -50.99 l -39.98,5 c -1.36,7.76 -2.68,15.52 -3.96,23.3 l 98.01,-14.26 -3.08,-14.04"
         style="fill:#2b2a2a;fill-opacity:1;fill-rule:nonzero;stroke:none"
         id="path492" /><path
         d="m 1441.38,1338.74 h -99.46 l 1.15,13.89 98.31,-13.89"
         style="fill:#2b2a2a;fill-opacity:1;fill-rule:nonzero;stroke:none"
         id="path494" /><path
         d="m 1609.62,1631.26 c -12.86,70.03 10.45,153.64 10.45,153.64 l 11.65,-13.43 -16.98,-33.11 c 0,0 2.72,-24.94 7.81,-58.96 -4.6,-16.5 -8.89,-32.52 -12.93,-48.14 v 0"
         style="fill:#557bc6;fill-opacity:1;fill-rule:nonzero;stroke:none"
         id="path496" /><path
         d="m 1622.55,1679.4 v 0 c -5.09,34.02 -7.81,58.96 -7.81,58.96 l 16.98,33.11 41.32,80.59 c 1.14,-0.23 2.25,-0.72 3.35,-1.45 v 0 c -11.36,-32.57 -21.74,-64.19 -31.13,-94.76 -7.52,-23.83 -14.42,-47.14 -20.8,-69.61 -0.64,-2.29 -1.28,-4.57 -1.91,-6.84"
         style="fill:#f78f8e;fill-opacity:1;fill-rule:nonzero;stroke:none"
         id="path498" /><path
         d="m 1685.37,1876.1 c 30.61,-9.51 45.77,-209.8 45.77,-209.8 l -111.02,-15.35 -23.04,82.14 c 0,0 9.18,38.79 22.42,79.58 19.12,58.91 65.87,63.43 65.87,63.43"
         style="fill:#4870c0;fill-opacity:1;fill-rule:nonzero;stroke:none"
         id="path500" /><path
         d="m 968.715,120.012 c 0,19.41 -15.731,35.148 -35.145,35.148 -19.41,0 -35.148,-15.738 -35.148,-35.148 0,-19.41 15.738,-35.1526 35.148,-35.1526 19.414,0 35.145,15.7426 35.145,35.1526"
         style="fill:#1d2a30;fill-opacity:1;fill-rule:nonzero;stroke:none"
         id="path502" /><path
         d="m 933.57,84.8594 c -19.41,0 -35.148,15.7426 -35.148,35.1526 0,18.488 14.273,33.636 32.398,35.039 v -17.68 c -8.398,-1.32 -14.824,-8.59 -14.824,-17.359 0,-9.711 7.871,-17.582 17.574,-17.582 9.707,0 17.575,7.871 17.575,17.582 0,1.449 -0.176,2.859 -0.508,4.199 0.351,0.437 0.672,0.918 0.957,1.418 l 9.359,16.422 c 4.86,-6.031 7.762,-13.699 7.762,-22.039 0,-19.41 -15.731,-35.1526 -35.145,-35.1526"
         style="fill:#45555c;fill-opacity:1;fill-rule:nonzero;stroke:none"
         id="path504" /><path
         d="m 1814.79,120.012 c 0,19.41 -15.74,35.148 -35.15,35.148 -19.41,0 -35.14,-15.738 -35.14,-35.148 0,-19.41 15.73,-35.1526 35.14,-35.1526 19.41,0 35.15,15.7426 35.15,35.1526"
         style="fill:#1d2a30;fill-opacity:1;fill-rule:nonzero;stroke:none"
         id="path506" /><path
         d="m 1779.64,84.8594 c -19.41,0 -35.14,15.7426 -35.14,35.1526 0,8.34 2.9,16.008 7.76,22.027 l 9.36,-16.41 c 0.28,-0.5 0.6,-0.981 0.96,-1.418 -0.33,-1.34 -0.51,-2.75 -0.51,-4.199 0,-9.711 7.87,-17.582 17.57,-17.582 9.71,0 17.58,7.871 17.58,17.582 0,8.769 -6.43,16.039 -14.83,17.359 v 17.68 c 18.13,-1.403 32.4,-16.551 32.4,-35.039 0,-9.301 -3.61,-17.762 -9.51,-24.0511 -6.41,-6.832 -15.53,-11.1015 -25.64,-11.1015"
         style="fill:#45555c;fill-opacity:1;fill-rule:nonzero;stroke:none"
         id="path508" /><path
         d="m 933.57,102.43 c -9.703,0 -17.574,7.871 -17.574,17.582 0,8.769 6.426,16.039 14.824,17.359 v -6.25 0 c 0,-6.129 4.977,-11.109 11.114,-11.109 3.421,0 6.613,1.57 8.703,4.199 0.332,-1.34 0.508,-2.75 0.508,-4.199 0,-9.711 -7.868,-17.582 -17.575,-17.582"
         style="fill:#6a797f;fill-opacity:1;fill-rule:nonzero;stroke:none"
         id="path510" /><path
         d="m 1779.64,102.43 c -9.7,0 -17.57,7.871 -17.57,17.582 0,1.449 0.18,2.859 0.51,4.199 2.08,-2.629 5.28,-4.199 8.7,-4.199 6.14,0 11.11,4.98 11.11,11.109 v 6.25 c 8.4,-1.32 14.83,-8.59 14.83,-17.359 0,-9.711 -7.87,-17.582 -17.58,-17.582"
         style="fill:#6a797f;fill-opacity:1;fill-rule:nonzero;stroke:none"
         id="path512" /><path
         d="m 1385.68,274.23 v 378.11 h -58.15 V 274.23 c -226.45,-5.8 -364.038,-84.968 -391.585,-102.32 -3.211,-2.031 -5.125,-5.57 -5.125,-9.371 v -31.418 c 0,-6.129 4.977,-11.109 11.114,-11.109 3.996,0 7.679,2.136 9.66,5.617 l 13.429,23.551 c 0,0 155.757,55.539 362.507,60.031 v -62.152 c 0,-7.938 6.43,-14.379 14.38,-14.379 h 29.39 c 7.95,0 14.38,6.441 14.38,14.379 v 62.152 c 206.75,-4.492 362.51,-60.031 362.51,-60.031 l 13.43,-23.551 c 1.98,-3.481 5.67,-5.617 9.66,-5.617 6.14,0 11.11,4.98 11.11,11.109 v 31.418 c 0,3.801 -1.91,7.34 -5.12,9.371 -27.55,17.352 -165.14,96.52 -391.59,102.32"
         style="fill:#1d2a30;fill-opacity:1;fill-rule:nonzero;stroke:none"
         id="path514" /><path
         d="m 1771.28,120.012 c -3.99,0 -7.68,2.136 -9.66,5.617 l -13.43,23.551 c 0,0 -4.73,1.691 -13.62,4.492 -11.33,3.566 -29.41,8.957 -53.12,15.008 -52.21,13.32 -131.66,29.82 -226.19,37.082 -22.39,1.73 -45.65,2.929 -69.58,3.449 v -31.902 -30.25 c 0,-6.411 -4.2,-11.848 -10,-13.7 v 14.141 0 c 0,4.23 -3.42,7.66 -7.66,7.66 h -22.83 c -4.23,0 -7.66,-3.43 -7.66,-7.66 v -14.141 c -5.8,1.852 -10,7.289 -10,13.7 v 62.152 0 c -49.74,-1.082 -96.53,-5.121 -138.91,-10.621 -18.95,-2.461 -37.03,-5.219 -54.09,-8.141 -0.01,0 -0.01,0 -0.02,0 C 1031.19,172.77 965.023,149.18 965.023,149.18 l -13.429,-23.551 c -1.981,-3.481 -5.664,-5.617 -9.66,-5.617 -6.137,0 -11.114,4.98 -11.114,11.109 v 31.418 c 0,3.801 1.914,7.34 5.125,9.371 27.547,17.352 165.135,96.52 391.585,102.32 v 259.59 h 58.15 v -82.191 -2.5 -174.899 0 c 226.45,-5.8 364.04,-84.968 391.59,-102.32 3.21,-2.031 5.12,-5.57 5.12,-9.371 v -31.418 c 0,-6.129 -4.97,-11.109 -11.11,-11.109"
         style="fill:#182124;fill-opacity:1;fill-rule:nonzero;stroke:none"
         id="path516" /><path
         d="m 1368.02,84.8594 h -22.83 c -4.23,0 -7.66,3.4297 -7.66,7.6601 V 147.5 c 0,4.23 3.43,7.66 7.66,7.66 h 22.83 c 4.24,0 7.66,-3.43 7.66,-7.66 V 92.5195 c 0,-4.2304 -3.42,-7.6601 -7.66,-7.6601"
         style="fill:#1d2a30;fill-opacity:1;fill-rule:nonzero;stroke:none"
         id="path518" /><path
         d="m 1368.02,84.8594 h -22.83 c -4.23,0 -7.66,3.4297 -7.66,7.6601 V 147.5 c 0,4.23 3.43,7.66 7.66,7.66 h 22.83 c 4.24,0 7.66,-3.43 7.66,-7.66 V 133.359 92.5195 c 0,-0.4101 -0.03,-0.8007 -0.09,-1.1914 -0.57,-3.6562 -3.74,-6.4687 -7.57,-6.4687"
         style="fill:#45555c;fill-opacity:1;fill-rule:nonzero;stroke:none"
         id="path520" /><path
         d="M 1816.87,897.57 H 896.348 v 47.789 c 0,43.7 35.422,79.121 79.121,79.121 h 762.271 c 43.7,0 79.13,-35.421 79.13,-79.121 V 897.57"
         style="fill:#4870c0;fill-opacity:1;fill-rule:nonzero;stroke:none"
         id="path522" /><path
         d="m 1224.61,1338.74 h 506.81 c 26.07,0 45.36,-24.26 39.48,-49.66 l -90.6,-391.529 h -20.93 l 77.19,343.129 c 5.7,25.34 -13.56,49.42 -39.53,49.42 h -462.08 l -10.34,48.64"
         style="fill:#1d2a30;fill-opacity:1;fill-rule:nonzero;stroke:none"
         id="path524" /><path
         d="M 1416.42,883.859 V 553.051 c 0,-10.66 -8.67,-19.231 -19.23,-19.231 h -81.11 c -10.66,0 -19.23,8.571 -19.23,19.231 v 330.808 h 119.57"
         style="fill:#1d2a30;fill-opacity:1;fill-rule:nonzero;stroke:none"
         id="path526" /><path
         d="M 1416.42,746.422 H 1296.85 V 858.25 h 108.07 v 0 h 11.5 V 746.422"
         style="fill:#182124;fill-opacity:1;fill-rule:nonzero;stroke:none"
         id="path528" /><path
         d="m 1842.03,917.93 v -39.5 c 0,-11.18 -9.09,-20.18 -20.28,-20.18 H 891.41 c -11.18,0 -20.172,9 -20.172,20.18 v 39.5 c 0,11.09 8.992,20.179 20.172,20.179 h 930.34 c 11.19,0 20.28,-9.089 20.28,-20.179"
         style="fill:#1d2a30;fill-opacity:1;fill-rule:nonzero;stroke:none"
         id="path530" /><path
         d="M 1414.02,897.551 H 871.238 c 0,0 -172.461,286.809 -172.461,760.709 v 174.03 c 0,71.49 58.016,129.5 129.606,129.5 h 230.157 c 70.14,0 127.52,-55.71 129.51,-125.84 6.69,-244.16 42.64,-772.94 225.97,-938.399"
         style="fill:#1d2a30;fill-opacity:1;fill-rule:nonzero;stroke:none"
         id="path532" /><path
         d="m 700.648,1573.15 v 0 0 m -0.543,13.33 v 0 0 m -0.121,3.35 v 0 0 m -0.113,3.29 c 0,0.04 -0.004,0.08 -0.004,0.13 0,-0.05 0.004,-0.08 0.004,-0.13 m -0.074,2.3 v 0.01 -0.01 m -0.035,1.09 -0.004,0.07 0.004,-0.07 m -0.106,3.36 c 0,0.04 0,0.05 -0.004,0.1 0,-0.03 0.004,-0.07 0.004,-0.1 m -0.035,1.15 c 0,0.03 0,0.04 0,0.06 0,-0.03 0,-0.03 0,-0.06 m -0.062,2.24 c -0.004,0.04 0,0.02 -0.004,0.07 0,-0.03 0.004,-0.05 0.004,-0.07 m -0.036,1.14 c 0,0.02 0,0.05 0,0.08 0,-0.03 0,-0.06 0,-0.08 m -0.058,2.23 c 0,0.03 0,0.06 -0.004,0.08 0.004,-0.02 0.004,-0.05 0.004,-0.08 m -0.031,1.17 v 0.03 -0.03 m -0.028,1.13 -0.004,0.01 c 0.004,-0.03 0,0.02 0.004,-0.01 m -0.027,1.09 c -0.004,0.05 -0.004,0.04 -0.004,0.09 0,-0.03 0.004,-0.06 0.004,-0.09 m -0.031,1.15 c 0,0.02 0,0.07 0,0.09 0,-0.02 0,-0.06 0,-0.09 m -0.051,2.21 c 0,0.05 -0.004,0.1 -0.004,0.15 0.004,-0.06 0.004,-0.1 0.004,-0.15 m -0.027,1.15 c 0,0.05 0,0.12 -0.004,0.17 0.004,-0.06 0.004,-0.11 0.004,-0.17 m -0.051,2.29 c 0,0.04 0,0.05 0,0.09 0,-0.03 0,-0.07 0,-0.09 m -0.024,1.14 c 0,0.05 0,0.07 0,0.12 0,-0.05 0,-0.06 0,-0.12 m -0.043,2.26 c -0.004,0.03 -0.004,0.07 -0.004,0.1 0,-0.03 0,-0.07 0.004,-0.1 m -0.023,1.18 v 0.05 -0.05 m -0.043,2.24 c 0,0.05 0,0.05 0,0.1 0,-0.03 0,-0.07 0,-0.1 m -0.02,1.12 c 0,0.07 0,0.12 -0.003,0.19 0.003,-0.05 0.003,-0.13 0.003,-0.19 m -0.039,2.27 c 0,0.05 0,0.1 0,0.15 0,-0.06 0,-0.09 0,-0.15 m -0.015,1.16 c 0,0.04 -0.004,0.14 -0.004,0.19 0.004,-0.09 0.004,-0.11 0.004,-0.19 m -0.02,1.19 c 0,0.05 0,0.08 0,0.13 0,-0.06 0,-0.07 0,-0.13 m -0.015,1.09 c 0,0.05 0,0.09 0,0.14 0,-0.06 0,-0.08 0,-0.14 m -0.016,1.15 c 0,0.05 0,0.14 0,0.18 0,-0.05 0,-0.12 0,-0.18 m -0.016,1.2 c 0,0.03 0,0.08 0,0.11 0,-0.03 0,-0.08 0,-0.11 m -0.015,1.08 c 0,0.05 0,0.1 0,0.14 0,-0.05 0,-0.08 0,-0.14 m -0.012,1.15 c 0,0.05 -0.004,0.15 -0.004,0.2 0.004,-0.06 0.004,-0.14 0.004,-0.2 m -0.016,1.19 c 0,0.07 0,0.11 0,0.19 0,-0.06 0,-0.14 0,-0.19 m -0.011,1.13 c 0,0.02 0,0.08 0,0.11 0,-0.03 0,-0.08 0,-0.11 m -0.012,1.12 c 0,0.09 0,0.12 0,0.21 0,-0.05 0,-0.16 0,-0.21 m -0.012,1.24 c 0,0.02 0,0.03 0,0.05 0,-0.03 0,-0.02 0,-0.05 m -0.012,1.13 c 0,0.02 0,0.03 0,0.06 0,-0.03 0,-0.04 0,-0.06 m -0.007,1.09 c 0,0.05 0,0.14 0,0.19 0,-0.06 0,-0.13 0,-0.19 m -0.008,1.19 c -0.004,0.07 -0.004,0.12 -0.004,0.19 0,-0.06 0,-0.13 0.004,-0.19 m -0.012,1.13 c 0,0.03 0,0.1 0,0.12 0,-0.06 0,-0.06 0,-0.12 m -0.008,1.11 c 0,0.1 0,0.15 0,0.25 0,-0.09 0,-0.16 0,-0.25 m -0.007,1.21 c 0,0.07 0,0.15 0,0.23 0,-0.09 0,-0.14 0,-0.23 m -0.004,1.14 c 0,0.02 0,0.1 0,0.12 0,-0.05 0,-0.06 0,-0.12 m -0.008,1.14 c 0,0.05 0,0.14 0,0.19 0,-0.06 0,-0.13 0,-0.19 m -0.004,1.2 c 0,0.07 0,0.12 0,0.19 0,-0.08 0,-0.11 0,-0.19 m -0.004,1.16 c 0,0.03 -0.004,0.06 -0.004,0.09 0,-0.03 0.004,-0.06 0.004,-0.09 m -0.004,1.09 c 0,0.07 0,0.17 -0.004,0.24 0.004,-0.08 0.004,-0.16 0.004,-0.24 m -0.004,1.23 c 0,0.07 0,0.1 0,0.18 0,-0.06 0,-0.12 0,-0.18 m -0.004,1.17 c 0,0.02 0,0.05 0,0.07 0,-0.03 0,-0.04 0,-0.07 m 0,1.11 c 0,0.07 0,0.11 0,0.18 0,-0.06 0,-0.12 0,-0.18 m -0.004,1.2 c 0,0.04 0,0.13 0,0.18 0,-0.06 0,-0.13 0,-0.18 m 0,175.26 c 0,71.52 57.985,129.5 129.504,129.5 h 0.102 c -71.59,0 -129.606,-58.01 -129.606,-129.5"
         style="fill:#ffffff;fill-opacity:1;fill-rule:nonzero;stroke:none"
         id="path534" /><path
         d="M 1294.62,897.551 H 895.777 c -15.422,0 -29.566,8.508 -36.66,22.187 -36.383,70.172 -143.043,303.542 -158.469,653.412 v 0 c -0.195,4.43 -0.375,8.87 -0.543,13.33 v 0 c -0.039,1.12 -0.082,2.23 -0.121,3.35 v 0 c -0.039,1.09 -0.074,2.19 -0.113,3.29 0,0.05 -0.004,0.08 -0.004,0.13 -0.023,0.72 -0.047,1.44 -0.07,2.17 v 0.01 c -0.016,0.37 -0.024,0.71 -0.035,1.08 l -0.004,0.07 c -0.035,1.1 -0.067,2.19 -0.102,3.29 0,0.03 -0.004,0.07 -0.004,0.1 -0.007,0.35 -0.019,0.7 -0.031,1.05 0,0.03 0,0.03 0,0.06 -0.019,0.7 -0.043,1.47 -0.062,2.18 0,0.02 -0.004,0.04 -0.004,0.07 -0.008,0.35 -0.02,0.71 -0.032,1.07 0,0.02 0,0.05 0,0.08 -0.019,0.7 -0.039,1.45 -0.058,2.15 0,0.03 0,0.06 -0.004,0.08 -0.008,0.38 -0.016,0.71 -0.027,1.09 v 0.03 c -0.012,0.38 -0.02,0.72 -0.028,1.1 -0.004,0.03 0,-0.02 -0.004,0.01 -0.007,0.36 -0.015,0.73 -0.023,1.08 0,0.03 -0.004,0.06 -0.004,0.09 -0.008,0.35 -0.016,0.7 -0.027,1.06 0,0.03 0,0.07 0,0.09 -0.02,0.71 -0.035,1.41 -0.051,2.12 0,0.05 0,0.09 -0.004,0.15 -0.008,0.33 -0.016,0.67 -0.023,1 0,0.06 0,0.11 -0.004,0.17 -0.016,0.71 -0.032,1.41 -0.047,2.12 0,0.02 0,0.06 0,0.09 -0.008,0.33 -0.016,0.72 -0.024,1.05 0,0.06 0,0.07 0,0.12 -0.015,0.71 -0.031,1.43 -0.043,2.14 -0.004,0.03 -0.004,0.07 -0.004,0.1 -0.007,0.38 -0.011,0.7 -0.019,1.08 v 0.05 c -0.016,0.74 -0.027,1.46 -0.043,2.19 0,0.03 0,0.07 0,0.1 -0.008,0.33 -0.012,0.69 -0.02,1.02 0,0.06 0,0.14 -0.003,0.19 -0.012,0.69 -0.024,1.39 -0.036,2.08 0,0.06 0,0.09 0,0.15 -0.004,0.33 -0.011,0.67 -0.015,1.01 0,0.08 0,0.1 -0.004,0.19 -0.004,0.33 -0.008,0.67 -0.016,1 0,0.06 0,0.07 0,0.13 -0.008,0.33 -0.012,0.63 -0.015,0.96 0,0.06 0,0.08 0,0.14 -0.008,0.33 -0.012,0.67 -0.016,1.01 0,0.06 0,0.13 0,0.18 -0.008,0.36 -0.012,0.67 -0.016,1.02 0,0.03 0,0.08 0,0.11 -0.007,0.33 -0.011,0.63 -0.015,0.97 0,0.06 0,0.09 0,0.14 -0.004,0.34 -0.008,0.68 -0.012,1.01 0,0.06 0,0.14 -0.004,0.2 -0.004,0.33 -0.008,0.65 -0.012,0.99 0,0.05 0,0.13 0,0.19 -0.004,0.31 -0.007,0.63 -0.011,0.94 0,0.03 0,0.08 0,0.11 -0.004,0.33 -0.008,0.67 -0.012,1.01 0,0.05 0,0.16 0,0.21 -0.004,0.34 -0.008,0.69 -0.012,1.03 0,0.03 0,0.02 0,0.05 -0.004,0.34 -0.008,0.74 -0.012,1.08 0,0.02 0,0.03 0,0.06 -0.003,0.36 -0.003,0.67 -0.007,1.03 0,0.06 0,0.13 0,0.19 -0.004,0.33 -0.008,0.66 -0.008,1 -0.004,0.06 -0.004,0.13 -0.004,0.19 0,0.31 -0.004,0.63 -0.008,0.94 0,0.06 0,0.06 0,0.12 -0.004,0.34 -0.004,0.65 -0.008,0.99 0,0.09 0,0.16 0,0.25 -0.004,0.31 -0.004,0.65 -0.007,0.96 0,0.09 0,0.14 0,0.23 0,0.31 -0.004,0.6 -0.004,0.91 0,0.06 0,0.07 0,0.12 -0.004,0.36 -0.004,0.66 -0.008,1.02 0,0.06 0,0.13 0,0.19 0,0.34 -0.004,0.67 -0.004,1.01 0,0.08 0,0.11 0,0.19 -0.004,0.32 -0.004,0.66 -0.004,0.97 0,0.03 -0.004,0.06 -0.004,0.09 0,0.33 0,0.66 0,1 0,0.08 0,0.16 -0.004,0.24 0,0.34 0,0.65 0,0.99 0,0.06 0,0.12 0,0.18 0,0.31 -0.004,0.67 -0.004,0.99 0,0.03 0,0.04 0,0.07 0,0.34 0,0.7 0,1.04 0,0.06 0,0.12 0,0.18 0,0.34 0,0.68 -0.004,1.02 0,0.05 0,0.12 0,0.18 0,0.36 0,0.69 0,1.05 v 0 174.03 0 c 0,71.49 58.016,129.5 129.606,129.5 h 198.807 c 70.13,0 127.51,-55.71 129.5,-125.84 5.98,-218.15 35.31,-663.45 172.23,-873.891 18.08,-27.778 -1.15,-64.508 -34.3,-64.508"
         style="fill:#45555c;fill-opacity:1;fill-rule:nonzero;stroke:none"
         id="path536" /><path
         d="m 1821.86,858.25 h -82.68 82.57 c 10.49,0 19.14,7.91 20.18,18.109 -1.04,-10.168 -9.63,-18.109 -20.07,-18.109"
         style="fill:#cecdcc;fill-opacity:1;fill-rule:nonzero;stroke:none"
         id="path538" /><path
         d="m 1841.93,876.359 c 0,0.039 0,0.071 0.01,0.11 -0.01,-0.039 -0.01,-0.071 -0.01,-0.11 m 0.01,0.133 c 0,0.028 0,0.059 0.01,0.078 -0.01,-0.019 -0.01,-0.05 -0.01,-0.078 m 0.01,0.129 c 0,0.02 0,0.051 0.01,0.07 -0.01,-0.019 -0.01,-0.05 -0.01,-0.07 m 0.01,0.129 c 0,0.02 0,0.039 0.01,0.059 0,-0.02 -0.01,-0.039 -0.01,-0.059 m 0.01,0.121 c 0,0.02 0,0.039 0.01,0.059 -0.01,-0.02 -0.01,-0.039 -0.01,-0.059 m 0.01,0.129 c 0,0.02 0,0.031 0,0.051 0,-0.02 0,-0.031 0,-0.051 m 0.01,0.129 c 0,0.012 0,0.019 0,0.031 0,-0.012 0,-0.019 0,-0.031 m 0.01,0.133 c 0,0.008 0,0.019 0,0.027 0,-0.008 0,-0.019 0,-0.027 m 0,0.129 c 0.01,0.007 0.01,0.031 0.01,0.039 0,-0.008 0,-0.032 -0.01,-0.039 m 0.01,0.129 c 0,0.011 0,0.019 0,0.031 0,-0.012 0,-0.02 0,-0.031 m 0.01,0.128 c 0,0.024 0,0.043 0,0.063 0,-0.02 0,-0.039 0,-0.063 m 0,0.133 c 0,0.02 0,0.039 0,0.059 0,-0.02 0,-0.039 0,-0.059 m 0,0.129 c 0.01,0.11 0.01,0.219 0.01,0.328 0,-0.109 0,-0.218 -0.01,-0.328"
         style="fill:#cecdcc;fill-opacity:1;fill-rule:nonzero;stroke:none"
         id="path540" /><path
         d="m 1821.75,858.25 h -82.57 v 0 h -334.26 c -15.06,0 -27.27,12.219 -27.27,27.281 v 12.02 h 36.37 v 0 c -10.32,9.308 -20.18,19.789 -29.59,31.289 5,5.68 12.33,9.269 20.49,9.269 h 416.83 c 11.19,0 20.28,-9.089 20.28,-20.179 v -17.809 -2.5 -19.191 0 c 0,-0.059 0,-0.121 0,-0.192 0,-0.109 0,-0.218 -0.01,-0.328 0,-0.019 0,-0.051 0,-0.07 0,-0.02 0,-0.039 0,-0.059 0,-0.031 0,-0.051 0,-0.07 0,-0.02 0,-0.039 0,-0.063 -0.01,-0.039 -0.01,-0.07 -0.01,-0.097 0,-0.012 0,-0.02 0,-0.031 0,-0.028 0,-0.059 0,-0.09 0,-0.008 0,-0.032 -0.01,-0.039 0,-0.032 0,-0.071 0,-0.102 0,-0.008 0,-0.019 0,-0.027 0,-0.032 -0.01,-0.071 -0.01,-0.102 0,-0.012 0,-0.019 0,-0.031 0,-0.027 0,-0.047 -0.01,-0.078 0,-0.02 0,-0.031 0,-0.051 0,-0.02 0,-0.039 0,-0.07 -0.01,-0.02 -0.01,-0.039 -0.01,-0.059 0,-0.019 0,-0.039 0,-0.062 -0.01,-0.02 -0.01,-0.039 -0.01,-0.059 0,-0.02 0,-0.039 0,-0.059 -0.01,-0.019 -0.01,-0.05 -0.01,-0.07 0,-0.019 0,-0.031 0,-0.051 -0.01,-0.019 -0.01,-0.05 -0.01,-0.078 0,-0.012 0,-0.012 0,-0.023 -0.01,-0.039 -0.01,-0.071 -0.01,-0.11 v 0 c -1.04,-10.199 -9.69,-18.109 -20.18,-18.109"
         style="fill:#182124;fill-opacity:1;fill-rule:nonzero;stroke:none"
         id="path542" /><path
         d="m 1414.02,897.551 h -36.37 v 13.281 c 0,6.898 2.56,13.199 6.78,18.008 9.41,-11.5 19.27,-21.981 29.59,-31.289"
         style="fill:#182124;fill-opacity:1;fill-rule:nonzero;stroke:none"
         id="path544" /></g></g></svg>
